<svg xmlns="http://www.w3.org/2000/svg" xmlns:xlink="http://www.w3.org/1999/xlink" id="Layer_1"
    data-name="Layer 1" viewBox="0 0 993 993">
    <defs>
        <radialGradient id="radial-gradient" cx="512.061" cy="512.121" r="444.122"
            gradientUnits="userSpaceOnUse">
            <stop offset=".99" stop-opacity=".5" />
            <stop offset="1" stop-opacity="0" />
        </radialGradient>
        <radialGradient id="radial-gradient-2" cx="514.5" cy="516.5" r="496.5"
            gradientUnits="userSpaceOnUse">
            <stop offset=".913" />
            <stop offset="1" stop-opacity="0" />
        </radialGradient>
        <radialGradient id="radial-gradient-3" cx="512.059" cy="512.121" r="486.273"
            gradientUnits="userSpaceOnUse">
            <stop offset=".99" stop-color="#fff" />
            <stop offset=".995" stop-color="#fdfdfd" />
            <stop offset=".997" stop-color="#f6f6f6" />
            <stop offset=".998" stop-color="#ebebeb" />
            <stop offset=".999" stop-color="#dadada" />
            <stop offset="1" stop-color="#c7c7c7" />
        </radialGradient>
        <radialGradient xlink:href="#radial-gradient" id="radial-gradient-5" cx="494.061"
            cy="492.121" r="444.122" />
        <radialGradient id="radial-gradient-6" cx="5.295" cy="1029.314" r="4.653"
            gradientTransform="matrix(94.65428 0 0 -94.65428 -7.154 97921.139)"
            gradientUnits="userSpaceOnUse">
            <stop offset="0" />
            <stop offset="1" stop-color="#322f32" />
        </radialGradient>
        <radialGradient id="radial-gradient-7" cx="578.89" cy="473.319" r="353.942"
            gradientTransform="matrix(1 0 0 1.09706 0 -45.942)" gradientUnits="userSpaceOnUse">
            <stop offset="0" stop-color="#c2c0c2" />
            <stop offset="1" stop-color="#ebebeb" />
        </radialGradient>
        <clipPath id="clip-path" transform="translate(-18 -20)">
            <path id="SVGID"
                d="M67.938 512.121c0 245.286 198.84 444.121 444.121 444.121s444.126-198.835 444.126-444.12C956.185 266.84 757.341 68 512.059 68S67.938 266.84 67.938 512.121"
                style="fill:url(#radial-gradient)" />
        </clipPath>
        <clipPath id="clip-path-2" transform="translate(-18 -20)">
            <path
                d="M71.603 512.121c0 243.262 197.199 440.456 440.456 440.456s440.46-197.194 440.46-440.456c0-243.257-197.203-440.456-440.46-440.456S71.603 268.864 71.603 512.121"
                style="fill:none" />
        </clipPath>
    </defs>
    <path
        d="M514.5 20C788.71 20 1011 242.29 1011 516.5S788.71 1013 514.5 1013 18 790.71 18 516.5 240.29 20 514.5 20"
        shape-rendering="geometricPrecision" style="fill:url(#radial-gradient-2)"
        transform="translate(-18 -20)" />
    <path
        d="M512.06 25.849c268.561 0 486.272 217.71 486.272 486.272s-217.71 486.273-486.273 486.273S25.786 780.684 25.786 512.12 243.497 25.85 512.06 25.85"
        shape-rendering="geometricPrecision" style="fill:url(#radial-gradient-3)"
        transform="translate(-18 -20)" />
    <path id="SVGID-2"
        d="M67.938 512.121c0 245.286 198.84 444.121 444.121 444.121s444.126-198.835 444.126-444.12C956.185 266.84 757.341 68 512.059 68S67.938 266.84 67.938 512.121"
        style="fill:url(#radial-gradient)" data-name="SVGID" shape-rendering="geometricPrecision"
        transform="translate(-18 -20)" />
    <g style="clip-path:url(#clip-path)">
        <path d="M49.938 48h888.247v888.242H49.938z" shape-rendering="geometricPrecision"
            style="fill:url(#radial-gradient-5)" />
    </g>
    <g style="clip-path:url(#clip-path-2)">
        <path d="M53.603 51.665H934.52v880.912H53.603z" shape-rendering="geometricPrecision"
            style="fill:url(#radial-gradient-6)" />
    </g>
    <path
        d="M684.907 370.502a199.24 199.24 0 0 1-277.24 70.456 202.8 202.8 0 0 1-44.914-37.774 198.92 198.92 0 0 1-49.898-141.133c.284-5.79.768-11.562 1.527-17.31a199 199 0 0 1 2.977-16.873q1.897-8.578 4.547-16.962 2.572-8.16 5.864-16.074c2.274-5.485 4.81-10.854 7.546-16.122 2.882-5.547 6.073-10.944 9.482-16.184q4.714-7.249 10.044-14.062c3.854-4.951 7.95-9.727 12.27-14.277q6.542-6.887 13.67-13.162c4.838-4.262 9.912-8.25 15.14-12.022q4.042-2.917 8.236-5.611a244.394 244.394 0 0 0-109.082 323.486q.82 1.704 1.668 3.395.384.768.774 1.533a4.6 4.6 0 0 0 .47.917c.324.36.405.299.9.29a195 195 0 0 1 7.736.021q7.144.154 14.266.815a199.58 199.58 0 0 1 178.162 166.366 201.3 201.3 0 0 1 .641 60.167 198.75 198.75 0 0 1-46.161 101.855 202.2 202.2 0 0 1-49.777 41.784 199.86 199.86 0 0 1-124.15 26.494 203 203 0 0 1-23.203-4.03 199 199 0 0 1-14.71-4.07 242.6 242.6 0 0 0 68.547 18.972 247 247 0 0 0 66.41-.798 243.5 243.5 0 0 0 108.668-44.887 246 246 0 0 0 59.734-63.074q1.04-1.588 2.057-3.19c.263-.415.85-1.07.775-1.51a8.5 8.5 0 0 0-1.051-1.944q-2.003-3.758-3.844-7.598-3.698-7.717-6.722-15.733a198 198 0 0 1-9.34-33.367 200.9 200.9 0 0 1 .04-73.98 197.9 197.9 0 0 1 21.358-59.255 199.08 199.08 0 0 1 173.09-103.06q7.337-.05 14.663.425 7.066.47 14.088 1.418 6.952.95 13.828 2.394 6.73 1.42 13.355 3.29 6.489 1.841 12.843 4.118 6.44 2.313 12.708 5.064 6.39 2.79 12.562 6.046 6.165 3.243 12.1 6.907a192 192 0 0 1 10.912 7.251q5.49 3.94 10.727 8.208c3.603 2.931 7.08 6.02 10.461 9.202q5.401 5.084 10.408 10.563 4.998 5.448 9.57 11.27c3.4 4.319 6.639 8.773 9.66 13.364a206 206 0 0 1 8.749 14.515 200 200 0 0 1 10.068 21.366 207 207 0 0 1 7.973 24.371 243.74 243.74 0 0 0-51.678-120.94A245.7 245.7 0 0 0 789.4 399.34a242.9 242.9 0 0 0-95.948-28.304q-4.267-.341-8.544-.534"
        shape-rendering="geometricPrecision" style="fill:url(#radial-gradient-7)"
        transform="translate(-18 -20)" />
</svg>