<svg xmlns="http://www.w3.org/2000/svg" width="16" height="16"><path d="M0 2h1v1H0zm1 0h1v1H1zm1 0h1v1H2z" shape-rendering="crispEdges" style="fill:#000;opacity:255"/><path d="M3 2h1v1H3z" shape-rendering="crispEdges" style="fill:#000200;opacity:255"/><path d="M4 2h1v1H4z" shape-rendering="crispEdges" style="fill:#000;opacity:255"/><path d="M5 2h1v1H5z" shape-rendering="crispEdges" style="fill:#000202;opacity:255"/><path d="M6 2h1v1H6z" shape-rendering="crispEdges" style="fill:#000002;opacity:255"/><path d="M7 2h1v1H7z" shape-rendering="crispEdges" style="fill:#000;opacity:255"/><path d="M8 2h1v1H8zm1 0h1v1H9z" shape-rendering="crispEdges" style="fill:#010000;opacity:255"/><path d="M10 2h1v1h-1zm1 0h1v1h-1zm1 0h1v1h-1zm1 0h1v1h-1zm1 0h1v1h-1zm1 0h1v1h-1zM0 3h1v1H0z" shape-rendering="crispEdges" style="fill:#000;opacity:255"/><path d="M1 3h1v1H1zm1 0h1v1H2zm1 0h1v1H3zm1 0h1v1H4z" shape-rendering="crispEdges" style="fill:#fff;opacity:255"/><path d="M5 3h1v1H5z" shape-rendering="crispEdges" style="fill:#fffdff;opacity:255"/><path d="M6 3h1v1H6z" shape-rendering="crispEdges" style="fill:#fffffc;opacity:255"/><path d="M7 3h1v1H7zm1 0h1v1H8z" shape-rendering="crispEdges" style="fill:#fdffff;opacity:255"/><path d="M9 3h1v1H9z" shape-rendering="crispEdges" style="fill:#fff;opacity:255"/><path d="M10 3h1v1h-1z" shape-rendering="crispEdges" style="fill:#fffffd;opacity:255"/><path d="M11 3h1v1h-1z" shape-rendering="crispEdges" style="fill:#fffeff;opacity:255"/><path d="M12 3h1v1h-1z" shape-rendering="crispEdges" style="fill:#fff;opacity:255"/><path d="M13 3h1v1h-1z" shape-rendering="crispEdges" style="fill:#fdfdff;opacity:255"/><path d="M14 3h1v1h-1z" shape-rendering="crispEdges" style="fill:#fff;opacity:255"/><path d="M15 3h1v1h-1zM0 4h1v1H0z" shape-rendering="crispEdges" style="fill:#000;opacity:255"/><path d="M1 4h1v1H1z" shape-rendering="crispEdges" style="fill:#fffeff;opacity:255"/><path d="M2 4h1v1H2zm1 0h1v1H3z" shape-rendering="crispEdges" style="fill:#000001;opacity:255"/><path d="M4 4h1v1H4z" shape-rendering="crispEdges" style="fill:#000;opacity:255"/><path d="M5 4h1v1H5z" shape-rendering="crispEdges" style="fill:#000001;opacity:255"/><path d="M6 4h1v1H6z" shape-rendering="crispEdges" style="fill:#000;opacity:255"/><path d="M7 4h1v1H7z" shape-rendering="crispEdges" style="fill:#000202;opacity:255"/><path d="M8 4h1v1H8z" shape-rendering="crispEdges" style="fill:#000100;opacity:255"/><path d="M9 4h1v1H9z" shape-rendering="crispEdges" style="fill:#fffeff;opacity:255"/><path d="M10 4h1v1h-1z" shape-rendering="crispEdges" style="fill:#fffcfe;opacity:255"/><path d="M11 4h1v1h-1z" shape-rendering="crispEdges" style="fill:#fff;opacity:255"/><path d="M12 4h1v1h-1z" shape-rendering="crispEdges" style="fill:#fdffff;opacity:255"/><path d="M13 4h1v1h-1z" shape-rendering="crispEdges" style="fill:#fffeff;opacity:255"/><path d="M14 4h1v1h-1z" shape-rendering="crispEdges" style="fill:#fcffff;opacity:255"/><path d="M15 4h1v1h-1z" shape-rendering="crispEdges" style="fill:#000002;opacity:255"/><path d="M0 5h1v1H0z" shape-rendering="crispEdges" style="fill:#000;opacity:255"/><path d="M1 5h1v1H1z" shape-rendering="crispEdges" style="fill:#fffffc;opacity:255"/><path d="M2 5h1v1H2z" shape-rendering="crispEdges" style="fill:#020000;opacity:255"/><path d="M3 5h1v1H3z" shape-rendering="crispEdges" style="fill:#fdffff;opacity:255"/><path d="M4 5h1v1H4z" shape-rendering="crispEdges" style="fill:#fffffe;opacity:255"/><path d="M5 5h1v1H5z" shape-rendering="crispEdges" style="fill:#feffff;opacity:255"/><path d="M6 5h1v1H6z" shape-rendering="crispEdges" style="fill:#fefdff;opacity:255"/><path d="M7 5h1v1H7z" shape-rendering="crispEdges" style="fill:#fff;opacity:255"/><path d="M8 5h1v1H8z" shape-rendering="crispEdges" style="fill:#020001;opacity:255"/><path d="M9 5h1v1H9z" shape-rendering="crispEdges" style="fill:#fff;opacity:255"/><path d="M10 5h1v1h-1z" shape-rendering="crispEdges" style="fill:#fffffe;opacity:255"/><path d="M11 5h1v1h-1z" shape-rendering="crispEdges" style="fill:#fff;opacity:255"/><path d="M12 5h1v1h-1z" shape-rendering="crispEdges" style="fill:#fdfffd;opacity:255"/><path d="M13 5h1v1h-1z" shape-rendering="crispEdges" style="fill:#fffdfe;opacity:255"/><path d="M14 5h1v1h-1z" shape-rendering="crispEdges" style="fill:#fffffd;opacity:255"/><path d="M15 5h1v1h-1z" shape-rendering="crispEdges" style="fill:#020000;opacity:255"/><path d="M0 6h1v1H0z" shape-rendering="crispEdges" style="fill:#000;opacity:255"/><path d="M1 6h1v1H1z" shape-rendering="crispEdges" style="fill:#fff;opacity:255"/><path d="M2 6h1v1H2z" shape-rendering="crispEdges" style="fill:#010002;opacity:255"/><path d="M3 6h1v1H3z" shape-rendering="crispEdges" style="fill:#000;opacity:255"/><path d="M4 6h1v1H4z" shape-rendering="crispEdges" style="fill:#010302;opacity:255"/><path d="M5 6h1v1H5z" shape-rendering="crispEdges" style="fill:#000100;opacity:255"/><path d="M6 6h1v1H6z" shape-rendering="crispEdges" style="fill:#fffeff;opacity:255"/><path d="M7 6h1v1H7z" shape-rendering="crispEdges" style="fill:#feffff;opacity:255"/><path d="M8 6h1v1H8z" shape-rendering="crispEdges" style="fill:#000;opacity:255"/><path d="M9 6h1v1H9z" shape-rendering="crispEdges" style="fill:#fff;opacity:255"/><path d="M10 6h1v1h-1z" shape-rendering="crispEdges" style="fill:#000002;opacity:255"/><path d="M11 6h1v1h-1z" shape-rendering="crispEdges" style="fill:#000300;opacity:255"/><path d="M12 6h1v1h-1zm1 0h1v1h-1z" shape-rendering="crispEdges" style="fill:#000;opacity:255"/><path d="M14 6h1v1h-1z" shape-rendering="crispEdges" style="fill:#fff;opacity:255"/><path d="M15 6h1v1h-1z" shape-rendering="crispEdges" style="fill:#000100;opacity:255"/><path d="M0 7h1v1H0z" shape-rendering="crispEdges" style="fill:#000;opacity:255"/><path d="M1 7h1v1H1z" shape-rendering="crispEdges" style="fill:#fefffe;opacity:255"/><path d="M2 7h1v1H2z" shape-rendering="crispEdges" style="fill:#000100;opacity:255"/><path d="M3 7h1v1H3z" shape-rendering="crispEdges" style="fill:#000;opacity:255"/><path d="M4 7h1v1H4z" shape-rendering="crispEdges" style="fill:#000201;opacity:255"/><path d="M5 7h1v1H5zm1 0h1v1H6z" shape-rendering="crispEdges" style="fill:#fff;opacity:255"/><path d="M7 7h1v1H7z" shape-rendering="crispEdges" style="fill:#020001;opacity:255"/><path d="M8 7h1v1H8z" shape-rendering="crispEdges" style="fill:#000100;opacity:255"/><path d="M9 7h1v1H9z" shape-rendering="crispEdges" style="fill:#fffeff;opacity:255"/><path d="M10 7h1v1h-1z" shape-rendering="crispEdges" style="fill:#fff;opacity:255"/><path d="M11 7h1v1h-1z" shape-rendering="crispEdges" style="fill:#fffeff;opacity:255"/><path d="M12 7h1v1h-1z" shape-rendering="crispEdges" style="fill:#010001;opacity:255"/><path d="M13 7h1v1h-1z" shape-rendering="crispEdges" style="fill:#000100;opacity:255"/><path d="M14 7h1v1h-1z" shape-rendering="crispEdges" style="fill:#fffffe;opacity:255"/><path d="M15 7h1v1h-1z" shape-rendering="crispEdges" style="fill:#000;opacity:255"/><path d="M0 8h1v1H0z" shape-rendering="crispEdges" style="fill:#000001;opacity:255"/><path d="M1 8h1v1H1z" shape-rendering="crispEdges" style="fill:#fffeff;opacity:255"/><path d="M2 8h1v1H2z" shape-rendering="crispEdges" style="fill:#000;opacity:255"/><path d="M3 8h1v1H3z" shape-rendering="crispEdges" style="fill:#000002;opacity:255"/><path d="M4 8h1v1H4z" shape-rendering="crispEdges" style="fill:#fffffe;opacity:255"/><path d="M5 8h1v1H5z" shape-rendering="crispEdges" style="fill:#fff;opacity:255"/><path d="M6 8h1v1H6zm1 0h1v1H7zm1 0h1v1H8z" shape-rendering="crispEdges" style="fill:#000;opacity:255"/><path d="M9 8h1v1H9z" shape-rendering="crispEdges" style="fill:#fffdff;opacity:255"/><path d="M10 8h1v1h-1z" shape-rendering="crispEdges" style="fill:#fdffff;opacity:255"/><path d="M11 8h1v1h-1z" shape-rendering="crispEdges" style="fill:#000201;opacity:255"/><path d="M12 8h1v1h-1z" shape-rendering="crispEdges" style="fill:#000;opacity:255"/><path d="M13 8h1v1h-1z" shape-rendering="crispEdges" style="fill:#fff;opacity:255"/><path d="M14 8h1v1h-1z" shape-rendering="crispEdges" style="fill:#fffffe;opacity:255"/><path d="M15 8h1v1h-1zM0 9h1v1H0z" shape-rendering="crispEdges" style="fill:#000;opacity:255"/><path d="M1 9h1v1H1z" shape-rendering="crispEdges" style="fill:#fff;opacity:255"/><path d="M2 9h1v1H2zm1 0h1v1H3z" shape-rendering="crispEdges" style="fill:#000;opacity:255"/><path d="M4 9h1v1H4z" shape-rendering="crispEdges" style="fill:#fefffe;opacity:255"/><path d="M5 9h1v1H5z" shape-rendering="crispEdges" style="fill:#fff;opacity:255"/><path d="M6 9h1v1H6zm1 0h1v1H7zm1 0h1v1H8z" shape-rendering="crispEdges" style="fill:#000;opacity:255"/><path d="M9 9h1v1H9z" shape-rendering="crispEdges" style="fill:#fff;opacity:255"/><path d="M10 9h1v1h-1z" shape-rendering="crispEdges" style="fill:#feffff;opacity:255"/><path d="M11 9h1v1h-1zm1 0h1v1h-1z" shape-rendering="crispEdges" style="fill:#000;opacity:255"/><path d="M13 9h1v1h-1z" shape-rendering="crispEdges" style="fill:#fffeff;opacity:255"/><path d="M14 9h1v1h-1z" shape-rendering="crispEdges" style="fill:#fff;opacity:255"/><path d="M15 9h1v1h-1z" shape-rendering="crispEdges" style="fill:#000001;opacity:255"/><path d="M0 10h1v1H0z" shape-rendering="crispEdges" style="fill:#020000;opacity:255"/><path d="M1 10h1v1H1z" shape-rendering="crispEdges" style="fill:#fffeff;opacity:255"/><path d="M2 10h1v1H2zm1 0h1v1H3z" shape-rendering="crispEdges" style="fill:#000;opacity:255"/><path d="M4 10h1v1H4z" shape-rendering="crispEdges" style="fill:#feffff;opacity:255"/><path d="M5 10h1v1H5z" shape-rendering="crispEdges" style="fill:#fffffe;opacity:255"/><path d="M6 10h1v1H6zm1 0h1v1H7z" shape-rendering="crispEdges" style="fill:#000100;opacity:255"/><path d="M8 10h1v1H8z" shape-rendering="crispEdges" style="fill:#000300;opacity:255"/><path d="M9 10h1v1H9z" shape-rendering="crispEdges" style="fill:#fff;opacity:255"/><path d="M10 10h1v1h-1z" shape-rendering="crispEdges" style="fill:#010000;opacity:255"/><path d="M11 10h1v1h-1z" shape-rendering="crispEdges" style="fill:#000;opacity:255"/><path d="M12 10h1v1h-1z" shape-rendering="crispEdges" style="fill:#fdffff;opacity:255"/><path d="M13 10h1v1h-1zm1 0h1v1h-1z" shape-rendering="crispEdges" style="fill:#fffffd;opacity:255"/><path d="M15 10h1v1h-1zM0 11h1v1H0z" shape-rendering="crispEdges" style="fill:#000;opacity:255"/><path d="M1 11h1v1H1z" shape-rendering="crispEdges" style="fill:#fff;opacity:255"/><path d="M2 11h1v1H2z" shape-rendering="crispEdges" style="fill:#020000;opacity:255"/><path d="M3 11h1v1H3zm1 0h1v1H4zm1 0h1v1H5zm1 0h1v1H6z" shape-rendering="crispEdges" style="fill:#000;opacity:255"/><path d="M7 11h1v1H7z" shape-rendering="crispEdges" style="fill:#000200;opacity:255"/><path d="M8 11h1v1H8z" shape-rendering="crispEdges" style="fill:#000;opacity:255"/><path d="M9 11h1v1H9z" shape-rendering="crispEdges" style="fill:#fff;opacity:255"/><path d="M10 11h1v1h-1zm1 0h1v1h-1z" shape-rendering="crispEdges" style="fill:#000;opacity:255"/><path d="M12 11h1v1h-1z" shape-rendering="crispEdges" style="fill:#020000;opacity:255"/><path d="M13 11h1v1h-1z" shape-rendering="crispEdges" style="fill:#000;opacity:255"/><path d="M14 11h1v1h-1z" shape-rendering="crispEdges" style="fill:#fff;opacity:255"/><path d="M15 11h1v1h-1z" shape-rendering="crispEdges" style="fill:#020000;opacity:255"/><path d="M0 12h1v1H0z" shape-rendering="crispEdges" style="fill:#030000;opacity:255"/><path d="M1 12h1v1H1z" shape-rendering="crispEdges" style="fill:#fdffff;opacity:255"/><path d="M2 12h1v1H2z" shape-rendering="crispEdges" style="fill:#fff;opacity:255"/><path d="M3 12h1v1H3z" shape-rendering="crispEdges" style="fill:#fffeff;opacity:255"/><path d="M4 12h1v1H4z" shape-rendering="crispEdges" style="fill:#fffdfe;opacity:255"/><path d="M5 12h1v1H5z" shape-rendering="crispEdges" style="fill:#fff;opacity:255"/><path d="M6 12h1v1H6z" shape-rendering="crispEdges" style="fill:#fffffe;opacity:255"/><path d="M7 12h1v1H7zm1 0h1v1H8zm1 0h1v1H9z" shape-rendering="crispEdges" style="fill:#fff;opacity:255"/><path d="M10 12h1v1h-1z" shape-rendering="crispEdges" style="fill:#fffdff;opacity:255"/><path d="M11 12h1v1h-1z" shape-rendering="crispEdges" style="fill:#fff;opacity:255"/><path d="M12 12h1v1h-1z" shape-rendering="crispEdges" style="fill:#fdffff;opacity:255"/><path d="M13 12h1v1h-1z" shape-rendering="crispEdges" style="fill:#fffffe;opacity:255"/><path d="M14 12h1v1h-1z" shape-rendering="crispEdges" style="fill:#fdfffd;opacity:255"/><path d="M15 12h1v1h-1z" shape-rendering="crispEdges" style="fill:#000;opacity:255"/><path d="M0 13h1v1H0z" shape-rendering="crispEdges" style="fill:#000102;opacity:255"/><path d="M1 13h1v1H1z" shape-rendering="crispEdges" style="fill:#000;opacity:255"/><path d="M2 13h1v1H2z" shape-rendering="crispEdges" style="fill:#000002;opacity:255"/><path d="M3 13h1v1H3z" shape-rendering="crispEdges" style="fill:#010000;opacity:255"/><path d="M4 13h1v1H4z" shape-rendering="crispEdges" style="fill:#000;opacity:255"/><path d="M5 13h1v1H5z" shape-rendering="crispEdges" style="fill:#000100;opacity:255"/><path d="M6 13h1v1H6z" shape-rendering="crispEdges" style="fill:#000002;opacity:255"/><path d="M7 13h1v1H7z" shape-rendering="crispEdges" style="fill:#000;opacity:255"/><path d="M8 13h1v1H8zm1 0h1v1H9z" shape-rendering="crispEdges" style="fill:#000300;opacity:255"/><path d="M10 13h1v1h-1z" shape-rendering="crispEdges" style="fill:#010000;opacity:255"/><path d="M11 13h1v1h-1z" shape-rendering="crispEdges" style="fill:#020000;opacity:255"/><path d="M12 13h1v1h-1z" shape-rendering="crispEdges" style="fill:#000202;opacity:255"/><path d="M13 13h1v1h-1z" shape-rendering="crispEdges" style="fill:#000;opacity:255"/><path d="M14 13h1v1h-1z" shape-rendering="crispEdges" style="fill:#000200;opacity:255"/><path d="M15 13h1v1h-1z" shape-rendering="crispEdges" style="fill:#000002;opacity:255"/></svg>