<svg style="enable-background:new 0 0 240 234" viewBox="0 0 240 234" xml:space="preserve" xmlns="http://www.w3.org/2000/svg"><style></style><g id="vlpa"><g id="vlpb"><g id="vlpc"><path style="fill:#00005b" d="M42.5 0h155C221 0 240 19 240 42.5v149c0 23.5-19 42.5-42.5 42.5h-155C19 234 0 215 0 191.5v-149C0 19 19 0 42.5 0z" id="vlpd"/></g></g><g id="vlpe"><g id="vlpf"><path style="fill:#99f" d="M96.4 140H59.2l-7.6 23.6c-.2.9-1 1.5-1.9 1.4H30.9c-1.1 0-1.4-.6-1.1-1.8L62 70.9c.3-1 .6-1.9 1-3.1.4-2.1.6-4.3.6-6.5-.1-.5.3-1 .8-1.1H90.3c.7 0 1.2.3 1.3.8l36.5 102c.3 1.1 0 1.6-1 1.6h-20.9c-.7.1-1.4-.4-1.6-1.1l-8.2-24zM65 120.1h25.4c-.6-2.1-1.4-4.6-2.3-7.2-.9-2.7-1.8-5.6-2.7-8.6-1-3.1-1.9-6.1-2.9-9.2s-1.9-6-2.7-8.9c-.8-2.8-1.5-5.4-2.2-7.8h-.2c-.9 4.3-2 8.6-3.4 12.9-1.5 4.8-3 9.8-4.6 14.8-1.3 5.1-2.9 9.8-4.4 14zM187 131h-31.7c.4 3.1 1.4 6.2 3.1 8.9 1.8 2.7 4.3 4.8 7.3 6 4 1.7 8.4 2.6 12.8 2.5 3.5-.1 7-.4 10.4-1.1 3.1-.4 6.1-1.2 8.9-2.3.5-.4.8-.2.8.8v15.3c0 .4-.1.8-.2 1.2-.2.3-.4.5-.7.7-3.2 1.4-6.5 2.4-10 3-4.7.9-9.4 1.3-14.2 1.2-7.6 0-14-1.2-19.2-3.5-4.9-2.1-9.2-5.4-12.6-9.5-3.2-3.9-5.5-8.3-6.9-13.1-1.4-4.7-2.1-9.6-2.1-14.6 0-5.4.8-10.7 2.5-15.9 1.6-5 4.1-9.6 7.5-13.7 3.3-4 7.4-7.2 12.1-9.5s10.3-3.1 16.7-3.1c5.3-.1 10.6.9 15.5 3.1 4.1 1.8 7.7 4.5 10.5 8 2.6 3.4 4.7 7.2 6 11.4 1.3 4 1.9 8.1 1.9 12.2 0 2.4-.1 4.5-.2 6.4-.2 1.9-.3 3.3-.4 4.2-.1.7-.7 1.3-1.4 1.3-.6 0-1.7.1-3.3.2-1.6.2-3.5.3-5.8.3s-4.7-.4-7.3-.4zm-31.7-14.6h21.1c2.6 0 4.5 0 5.7-.1.8-.1 1.6-.3 2.3-.8v-1c0-1.3-.2-2.5-.6-3.7-1.8-5.6-7.1-9.4-13-9.2-5.5-.3-10.7 2.6-13.3 7.6-1.2 2.3-1.9 4.7-2.2 7.2z"/></g></g></g></svg>