<?xml version="1.0" encoding="UTF-8"?>
<!-- Generator: Adobe Illustrator 21.1.0, SVG Export Plug-In . SVG Version: 6.00 Build 0)  -->
<svg version="1.1" id="Capa_1" xmlns="http://www.w3.org/2000/svg" xmlns:xlink="http://www.w3.org/1999/xlink" x="0px" y="0px" viewBox="0 0 240 234" style="enable-background:new 0 0 240 234;" xml:space="preserve">
<style type="text/css">
	.st0{fill:#1F0040;}
	.st1{fill:#D291FF;}
</style>
<g>
	<path class="st0" d="M10,10h220v214H10V10z"/>
	<path class="st1" d="M0,0v234h240V0H0z M10,10h220v214H10V10z M67.8,132.5l-7.9,29.9c-0.2,0.8-0.5,1.1-1.5,1.1H43.7   c-1,0-1.2-0.3-1-1.5l28.4-99.3c0.5-1.8,0.8-3.2,1-8.2c0-0.7,0.3-1,0.8-1h21c0.7,0,1,0.2,1.2,1l31.8,107.7c0.2,0.8,0,1.3-0.8,1.3   h-16.5c-0.8,0-1.3-0.3-1.5-1l-8.3-30H67.8L67.8,132.5z M95.9,116.3c-2.8-11.1-9.6-35.3-12.1-47h-0.2c-2.1,11.7-7.6,31.5-11.7,47   C72,116.3,95.9,116.3,95.9,116.3z M149.5,126.5c0.2,13.5,6.6,22.6,21.8,22.6c5.9,0,11-0.8,16.3-3.1c0.7-0.3,1.2-0.2,1.2,0.7v12.5   c0,1-0.3,1.5-1,2c-5.3,2.6-11.9,3.8-20.1,3.8c-26.4,0-36.3-19.5-36.3-41.3c0-23.6,12.2-42.9,33.7-42.9c21.8,0,29.4,18.3,29.4,33.2   c0,4.8-0.3,8.7-0.8,10.6c-0.2,0.8-0.5,1.1-1.3,1.3c-2,0.3-7.9,0.7-16.7,0.7L149.5,126.5L149.5,126.5z M169.8,112.7   c5.1,0,6.9,0,7.4-0.2c0-0.7,0.2-1.2,0.2-1.7c0-5.4-2.6-15.4-13-15.4c-9.6,0-13.7,8.4-14.7,17.3L169.8,112.7L169.8,112.7z"/>
</g>
<script xmlns=""/></svg>