<svg viewBox="0 0 24 24" xml:space="preserve" xmlns="http://www.w3.org/2000/svg"><g><g style="fill:#000;fill-opacity:0"><path d="M0 1080c0-186 1-200 18-200 10 0 104 79 210 176 146 134 192 182 192 200v24H0zM1250 1265c0-8 7-15 15-15s15 7 15 15-7 15-15 15-15-7-15-15zM1047 221C944 117 860 25 860 16c0-14 24-16 210-16h210v410h-23c-17 0-74-52-210-189zM0 20C0 7 7 0 20 0s20 7 20 20-7 20-20 20S0 33 0 20z" style="fill:#000;fill-opacity:0" transform="matrix(.02276 0 0 .02276 -2.49 -2.49)"/></g><path d="M211 1084 20 908V20h875l183 183 182 182v875H402zm1009-261-1-398-177-183L865 59l-402 1H60v818l188 171 187 171h785z" style="fill:#101010;fill-opacity:0" transform="matrix(.02276 0 0 .02276 -2.49 -2.49)" fill="#101010"/><path d="M218 1079 30 908V30h433l432-1 177 183 177 183 1 428v427H405zm992-260V428l-172-179L865 70l-395 3-395 2-3 400-2 400 182 167 183 168h775z" style="fill:#191919;fill-opacity:0" transform="matrix(.02276 0 0 .02276 -2.49 -2.49)" fill="#191919"/><path d="M222 1072 40 905l2-430 3-430 425-2 425-3 173 179 172 179v842H405zm976-262 2-385-167-167L865 90H90l1 398 1 397 171 157 172 158 380-3 380-2z" style="fill:#212121;fill-opacity:0" transform="matrix(.02276 0 0 .02276 -2.49 -2.49)" fill="#212121"/><path d="M3.494 21.13.24 18.149V.24H17.876l3.004 3.004 3.026 3.027v17.863h-8.579l-8.601-.023zm19.502-5.94V7.159l-2.867-3.004-2.868-3.003H1.378v16.566l.751.568c.387.32 1.752 1.57 3.004 2.754L7.408 23.2l7.805.022h7.783z" fill="#525252"/><path d="M4.45 21.722c-1.251-1.184-2.617-2.435-3.026-2.754L.696 18.4V.468h17.248l2.867 3.004 2.868 3.003V23.906h-8.466l-8.487-.023zm18.318-6.736V7.18l-2.776-2.776-2.799-2.8H1.606V17.49l2.867 2.64 2.89 2.64H22.768z" fill="#5a5a5a"/><path d="m3.79 20.811-2.867-2.64V.924h16.953l2.799 2.799 2.776 2.776v16.953H6.68zm18.75-5.939V7.181l-2.662-2.663-2.685-2.685H1.833V17.49l2.8 2.526 2.775 2.526h15.133z" fill="#636363"/><path d="m3.95 20.698-2.8-2.526V1.15h16.725l2.686 2.685 2.662 2.662v16.725H6.726zm18.136-6.053V6.953L19.65 4.518l-2.458-2.457H2.288v15.656l.751.591a76.38 76.38 0 0 1 2.549 2.276l1.82 1.73h14.678z" fill="#6b6b6b"/><path d="M4.905 21.266a76.38 76.38 0 0 0-2.548-2.275l-.751-.592V1.38H17.876l2.457 2.457 2.435 2.435v16.724H6.726zm16.953-6.621V7.18L19.56 4.723 17.26 2.288H2.516v7.578l-.023 7.555 2.458 2.32 2.457 2.345h14.45z" fill="#737373"/><path d="m4.268 20.424-2.457-2.32.022-8.238v-8.26H17.944l2.298 2.435 2.299 2.457v16.27H6.725zm17.363-6.007V7.181l-2.208-2.207-2.23-2.23H2.744v14.722l2.275 2.094 2.276 2.07H21.63z" fill="#7b7b7b"/><path d="M4.336 20.242 2.061 18.15V2.06h15.815l2.23 2.23 2.207 2.207v15.815H6.612zm17.067-5.939V7.181l-2.094-2.094-2.116-2.116H3.2v7.373c0 6.94.022 7.418.432 7.691.228.16 1.16.979 2.07 1.843l1.64 1.525H21.402z" fill="#848484"/><path d="M5.02 20.561c-.911-.865-1.844-1.684-2.072-1.843-.41-.273-.432-.774-.432-8.374V2.288h15.36l2.116 2.117 2.094 2.093V22.086H6.657zm15.928-6.485V6.953l-1.866-1.866L17.193 3.2H3.426v14.29l1.98 1.843 1.98 1.843H20.948z" fill="#8c8c8c"/><path d="m4.723 20.015-1.98-1.843V2.516h15.133l1.889 1.889L21.63 6.27v15.587H6.703zm15.997-5.94V7.182l-1.775-1.889-1.752-1.866H3.653v7.009l-.022 6.986 1.889 1.752 1.888 1.775H20.72z" fill="#949494"/><path d="m4.837 19.856-1.889-1.753.023-7.668V2.744H17.876l1.752 1.865 1.775 1.89V21.63H6.726zm15.61-5.962.046-6.69-1.639-1.662-1.638-1.66-6.554 1.774H4.11v6.895l.023 6.872 1.706 1.548 1.707 1.524 6.417-.045 6.417-.069z" fill="#9c9c9c"/><path d="m5.156 19.878-1.707-1.547-.023-7.555V3.2H17.9l1.638 1.66 1.638 1.662-.045 7.373-.068 7.395-7.1.068-7.1.046zm15.11-6.144v-6.53L18.74 5.656 17.216 4.11H4.336v13.357l1.457 1.388 1.456 1.411h13.016z" fill="#a5a5a5"/><path d="m5.11 19.537-1.456-1.388V3.426H17.899l1.524 1.548 1.525 1.547v14.427H6.566zm14.7-6.03V6.976l-1.297-1.32-1.297-1.32H4.564V17.49l1.41 1.274 1.389 1.275H19.81z" fill="#adadad"/><path d="m5.292 19.446-1.41-1.274V3.654h14.017l1.297 1.32 1.297 1.32V20.72H6.68zm14.29-5.94V7.182l-1.251-1.32-1.229-1.297-6.098.045-6.099.069-.068 6.371-.045 6.372 1.297 1.183 1.32 1.183 6.098.023h6.076z" fill="#b5b5b5"/><path d="m5.406 19.287-1.297-1.184.045-7.054.069-7.054 6.78-.068 6.782-.046 1.229 1.297 1.251 1.32V20.493h-6.758l-6.781-.023zm13.949-5.894v-6.19l-1.07-1.092-1.069-1.092H5.247V17.58l1.092.979 1.07 1 5.984.024h5.962z" fill="#bdbdbd"/><path d="m5.656 19.241-1.092-.978V4.336h13.335l1.07 1.093 1.069 1.092v13.744h-6.645l-6.667-.023zM18.9 13.166v-6.19l-.842-.865-.842-.864H5.474v12.151l.956.979.956.978H18.9z" fill="#c5c5c5"/><path d="m5.747 19.06-.955-.98V4.565h13.107l.842.865.842.864V20.038H6.703zm12.925-6.031V6.931l-.75-.729-.752-.728-5.688.046-5.666.068-.069 5.94-.045 5.938.933.842.955.82h11.082z" fill="#cecece"/><path d="m5.952 18.99-.933-.841.046-6.622.068-6.622 6.349-.068 6.371-.045.751.728.751.728V19.81H6.908zm12.493-6.052V7.204l-.615-.638-.614-.637H6.156v11.697l.638.523c.592.5.75.5 6.144.523h5.507z" fill="#d6d6d6"/><path d="m6.111 18.832-.637-.524V5.247H17.9l.614.637.614.637v12.834h-6.189c-6.099-.023-6.212-.023-6.827-.523zm12.106-6.008c0-5.461-.023-5.62-.5-6.144-.478-.523-.547-.523-5.917-.523H6.384v5.62c0 5.462.023 5.621.501 6.144.478.524.546.524 5.916.524h5.416z" fill="#dedede"/><path d="M6.202 18.604c-.5-.523-.5-.683-.5-6.827V5.474H11.8c6.099 0 6.121 0 6.6.524.5.523.5.682.5 6.826v6.303H12.8c-6.098 0-6.12 0-6.599-.523zm11.56-6.03c0-4.096-.068-5.712-.273-5.917-.205-.204-1.752-.273-5.575-.273H6.612v5.507c0 4.802.045 5.553.387 5.917.341.364.819.41 5.575.41h5.188z" fill="#e6e6e6"/><path d="M6.316 18.49c-.341-.364-.387-1.16-.387-6.599v-6.19h5.985c4.346 0 6.053.069 6.258.274.205.205.273 1.98.273 6.599V18.9h-5.871c-5.416 0-5.917-.023-6.258-.41zm11.219-6.053c0-4.847-.046-5.575-.365-5.689-.204-.068-2.548-.136-5.233-.136h-4.87v5.552c0 4.233.068 5.598.296 5.666.136.069 2.503.137 5.234.137l4.938.023z" fill="#efefef"/><path d="M6.68 18.513c-.227-.068-.296-1.57-.296-6.349V5.93h5.553c3.049 0 5.711.069 5.916.137.319.114.364.91.364 6.371v6.235l-5.62-.022c-3.118 0-5.78-.069-5.917-.137zm10.627-6.212V7.067H7.295v10.468h10.012z" fill="#f7f7f7"/><path d="M6.612 12.3V6.385H17.99v11.833H6.612z" fill="#fff"/></g></svg>