<?xml version="1.0" encoding="UTF-8"?>
<svg fill="none"  xmlns="http://www.w3.org/2000/svg" viewBox="0 0 992.94 987.55">
  <path fill="#e44058" class="cls-1" d="m172.28,817.96c-42.12-42.12-75.18-91.15-98.27-145.74-23.9-56.5-36.01-116.54-36.01-178.45s12.12-121.95,36.01-178.45c23.09-54.59,56.15-103.62,98.27-145.74,42.12-42.12,91.15-75.18,145.74-98.27,40.52-17.14,82.87-28.22,126.42-33.11V0C194.7,26.01,0,237.16,0,493.78s194.7,467.77,444.44,493.78v-38.2c-43.55-4.9-85.89-15.97-126.42-33.11-54.59-23.09-103.62-56.15-145.74-98.27Z"/>
  <path fill="#e44058" class="cls-1" d="m549.44.1v38.21c43.22,4.95,85.24,15.99,125.48,33.01,54.59,23.09,103.62,56.15,145.74,98.27,42.12,42.12,75.18,91.15,98.27,145.74,23.9,56.5,36.01,116.54,36.01,178.45s-12.12,121.95-36.01,178.45c-23.09,54.59-56.15,103.62-98.27,145.74-42.12,42.12-91.15,75.18-145.74,98.27-40.23,17.02-82.26,28.06-125.48,33.01v38.21c249.29-26.44,443.5-237.38,443.5-493.68S798.73,26.54,549.44.1Z"/>
  <g>
    <polygon fill="#e44058" class="cls-1" points="242.55 381.64 437.42 381.64 437.42 286.81 151.96 286.81 151.96 700.74 437.42 700.74 437.42 605.46 242.55 605.46 242.55 381.64"/>
    <path fill="#e44058" class="cls-1" d="m840.98,286.81h-383.74v159.78h-75v99.78h75v154.37h383.74l-95.22-206.97,95.22-206.97Zm-300,319v-60h120l30,60h-150Zm120-164h-120v-60h150l-30,60Z"/>
  </g>
</svg>