<svg viewBox="0 0 24 24" xmlns="http://www.w3.org/2000/svg"><path d="M5.2 4.837c-.02.02-.028 1.52-.028 6.607v6.58l-.18.066a92.565 92.565 0 0 0-.637.23c-.043.017-.118.042-.162.059-.284.1-.93.31-1.107.359-.285.074-.872.247-1.257.366a1.052 1.052 0 0 0-.187.098 8.606 8.606 0 0 1-.242.156.983.983 0 0 0-.198.177c-.2.261-.408.51-.47.567-.074.065-.37.37-.524.538l-.095.105v3.159h5.456c3.62 0 5.456-.006 5.456-.023 0-.014-.01-.023-.021-.023-.012 0-.103-.105-.2-.235-.215-.28-.45-.525-.602-.625-.145-.098-.226-.27-.282-.611a.205.205 0 0 0-.084-.135c-.133-.098-.203-.224-.26-.462-.062-.282-.05-.429.05-.646a.545.545 0 0 1 .189-.24l.112-.08-.091-.09a.536.536 0 0 1-.143-.261c-.046-.152-.049-.182-.023-.31.063-.306.184-.423.564-.546a.573.573 0 0 1 .383.044c.086.051.221.082.221.051 0-.011-.044-.04-.098-.058-.41-.147-.44-.163-.545-.28-.154-.172-.2-.275-.203-.457a.55.55 0 0 1 .193-.454c.161-.145.278-.184.502-.173.107.007.221.03.263.051.114.059.13.045.042-.041a1.635 1.635 0 0 1-.191-.276c-.089-.156-.112-.219-.121-.333-.017-.238.086-.403.33-.532.136-.072.155-.074.4-.072.226.002.36.021.613.093.049.014.051.01.051-.114 0-.126.058-.347.124-.476a.64.64 0 0 1 .256-.237c.084-.033.24-.033.296-.003.056.03.103.194.161.593.05.312.054.33.152.466.056.08.142.219.19.312.052.094.124.231.166.308.08.152.164.28.206.315.014.011.123.158.244.324.12.165.266.343.325.396.26.236.389.385.49.576.055.107.134.259.176.336.068.124.084.191.14.595.035.249.068.461.073.468.004.007.023.096.044.198.051.257.163.56.245.663.09.114.105.151.184.485.049.2.086.307.128.354.03.037.07.107.086.156a.816.816 0 0 0 .07.159.26.26 0 0 1 .045.1c0 .035.07.138.186.275.044.054.107.135.14.184.033.047.096.13.14.187l.082.102h3.784l3.782.003v-4.631l-.122-.03a1.625 1.625 0 0 1-.193-.06c-.037-.017-.205-.087-.373-.16-.166-.07-.413-.165-.548-.214a5.294 5.294 0 0 1-.548-.221l-.315-.14a10.252 10.252 0 0 0-.848-.338 10.869 10.869 0 0 1-.616-.22 3.79 3.79 0 0 0-.424-.151c-.07-.023-.15-.049-.175-.06a2.442 2.442 0 0 0-.152-.05.684.684 0 0 1-.128-.046c-.06-.042-.347-.11-.53-.126l-.205-.017V4.81H12.02c-5.25 0-6.799.007-6.82.028zm5.102 7.654v.851H8.6V11.64h1.702zm6.808 0v.851h-1.702V11.64h1.702z"/></svg>