<?xml version="1.0" encoding="UTF-8" standalone="no"?>
<svg
   viewBox="0 0 24 24"
   version="1.1"
   id="svg1"
   sodipodi:docname="cttmono-fix.svg"
   inkscape:version="1.3.1 (91b66b0783, 2023-11-16)"
   xmlns:inkscape="http://www.inkscape.org/namespaces/inkscape"
   xmlns:sodipodi="http://sodipodi.sourceforge.net/DTD/sodipodi-0.dtd"
   xmlns="http://www.w3.org/2000/svg"
   xmlns:svg="http://www.w3.org/2000/svg">
  <defs
     id="defs1" />
  <sodipodi:namedview
     id="namedview1"
     pagecolor="#505050"
     bordercolor="#eeeeee"
     borderopacity="1"
     inkscape:showpageshadow="0"
     inkscape:pageopacity="0"
     inkscape:pagecheckerboard="0"
     inkscape:deskcolor="#505050"
     inkscape:zoom="35.060711"
     inkscape:cx="13.191404"
     inkscape:cy="9.3837229"
     inkscape:window-width="2560"
     inkscape:window-height="1490"
     inkscape:window-x="-12"
     inkscape:window-y="-12"
     inkscape:window-maximized="1"
     inkscape:current-layer="svg1" />
  <g
     transform="matrix(0.00233164,0,0,-0.00233164,0.11273044,23.904784)"
     stroke="none"
     id="g2">
    <path
       d="m 2182,8178 c -9,-9 -12,-652 -12,-2834 V 2522 l -77,-28 c -43,-15 -114,-40 -158,-57 -44,-16 -96,-35 -115,-42 -19,-7 -51,-18 -70,-25 -122,-43 -399,-133 -475,-154 -122,-32 -374,-106 -539,-157 -16,-5 -52,-24 -80,-42 -28,-19 -75,-49 -104,-67 -29,-19 -67,-53 -85,-76 C 381,1762 292,1655 266,1631 234,1603 107,1472 41,1400 L 0,1355 V 678 0 h 2340 c 1553,0 2340,3 2340,10 0,6 -4,10 -9,10 -5,0 -44,45 -86,101 -92,120 -193,225 -258,268 -62,42 -97,116 -121,262 -4,24 -16,43 -36,58 -57,42 -87,96 -111,198 -27,121 -22,184 21,277 25,52 44,76 81,103 l 48,34 -39,39 c -29,29 -45,57 -61,112 -20,65 -21,78 -10,133 27,131 79,181 242,234 44,14 123,5 164,-19 37,-22 95,-35 95,-22 0,5 -19,17 -42,25 -176,63 -189,70 -234,120 -66,74 -86,118 -87,196 -1,83 24,142 83,195 69,62 119,79 215,74 46,-3 95,-13 113,-22 49,-25 56,-19 18,18 -19,19 -56,72 -82,118 -38,67 -48,94 -52,143 -7,102 37,173 142,228 58,31 66,32 171,31 97,-1 155,-9 263,-40 21,-6 22,-4 22,49 0,54 25,149 53,204 20,38 76,89 110,102 36,14 103,14 127,1 24,-13 44,-83 69,-254 21,-134 23,-142 65,-200 24,-34 61,-94 82,-134 22,-40 53,-99 71,-132 34,-65 70,-120 88,-135 6,-5 53,-68 105,-139 51,-71 114,-147 139,-170 112,-101 167,-165 210,-247 24,-46 58,-111 76,-144 29,-53 36,-82 60,-255 15,-107 29,-198 31,-201 2,-3 10,-41 19,-85 22,-110 70,-240 105,-284 39,-49 45,-65 79,-208 21,-86 37,-132 55,-152 13,-16 30,-46 37,-67 6,-21 20,-51 30,-68 11,-16 19,-36 19,-43 0,-15 30,-59 80,-118 19,-23 46,-58 60,-79 14,-20 41,-56 60,-80 l 35,-44 h 1623 l 1622,-1 v 993 993 l -52,13 c -29,7 -66,19 -83,26 -16,7 -88,37 -160,68 -71,30 -177,71 -235,92 -58,20 -123,45 -145,55 -22,10 -62,28 -90,40 -27,12 -88,39 -135,60 -118,53 -280,118 -364,145 -106,35 -244,84 -264,94 -20,11 -104,41 -182,65 -30,10 -64,21 -75,26 -11,4 -40,14 -65,21 -25,7 -49,16 -55,20 -26,18 -149,47 -227,54 l -88,7 V 5481 8190 H 5107 c -2252,0 -2916,-3 -2925,-12 z M 4370,4895 v -365 h -365 -365 v 365 365 h 365 365 z m 2920,0 v -365 h -365 -365 v 365 365 h 365 365 z"
       id="path1-2" />
  </g>
</svg>
