<svg viewBox="0 0 24 24" xmlns="http://www.w3.org/2000/svg"><path d="M12 2.5c.664 0 1.2.559 1.2 1.25v8.125c0 .344.27.625.6.625.33 0 .6-.281.6-.625V5c0-.691.536-1.25 1.2-1.25.664 0 1.2.559 1.2 1.25v6.875c0 .344.27.625.6.625.33 0 .6-.281.6-.625V7.5c0-.691.536-1.25 1.2-1.25.664 0 1.2.559 1.2 1.25v7.621a1.643 1.643 0 0 0-.938 1.086l-.333 1.219-1.17.347c-.686.207-1.159.86-1.159 1.602 0 .738.469 1.39 1.147 1.598A6.399 6.399 0 0 1 13.8 22.5h-.72c-2.235 0-4.384-.895-6-2.5l-4.215-4.18a1.612 1.612 0 0 1-.052-2.21 1.461 1.461 0 0 1 2.122-.055l2.269 2.25c0-.059-.004-.121-.004-.18V5c0-.691.536-1.25 1.2-1.25.664 0 1.2.559 1.2 1.25v6.875c0 .344.27.625.6.625.33 0 .6-.281.6-.625V3.75c0-.691.536-1.25 1.2-1.25zm-.274 12.758A.343.343 0 0 0 11.4 15a.343.343 0 0 0-.326.258l-.274.992-.953.285a.353.353 0 0 0-.247.34c0 .156.101.297.247.34l.953.285.274.992a.343.343 0 0 0 .326.258c.15 0 .285-.105.326-.258L12 17.5l.953-.285a.353.353 0 0 0 .247-.34.353.353 0 0 0-.247-.34L12 16.25zM3.9 7.188l1.811.539c.173.05.289.214.289.398a.412.412 0 0 1-.289.398l-1.811.54-.518 1.886A.4.4 0 0 1 3 11.25a.4.4 0 0 1-.382-.3L2.1 9.062l-1.811-.54A.412.412 0 0 1 0 8.125c0-.184.116-.348.289-.398l1.811-.54.518-1.886A.4.4 0 0 1 3 5a.4.4 0 0 1 .382.3zm18 11.25 1.811.539c.173.05.289.214.289.398a.412.412 0 0 1-.289.398l-1.811.54-.517 1.886A.4.4 0 0 1 21 22.5a.4.4 0 0 1-.383-.3l-.517-1.887-1.811-.54a.412.412 0 0 1-.289-.398c0-.184.116-.348.289-.398l1.811-.54.517-1.886A.4.4 0 0 1 21 16.25a.4.4 0 0 1 .383.3z" style="stroke-width:.0382732"/></svg>