<svg version="1.1" viewBox="0 0 24 24" xmlns="http://www.w3.org/2000/svg"><defs><linearGradient id="paint0_linear" x1="53.864" x2="33.309" y1="27.605" y2="67.296" gradientTransform="matrix(.47497 0 0 .47497 -8.5189 -9.7886)" gradientUnits="userSpaceOnUse"><stop stop-color="#303030" offset="0"/><stop stop-color="#232323" offset="1"/></linearGradient><filter id="filter2_d" x="-4.1709" y="-14.13" width="89.707" height="79.626" color-interpolation-filters="sRGB" filterUnits="userSpaceOnUse"><feFlood flood-opacity="0" result="BackgroundImageFix"/><feColorMatrix in="SourceAlpha" result="hardAlpha" values="0 0 0 0 0 0 0 0 0 0 0 0 0 0 0 0 0 0 127 0"/><feOffset dy="-18"/><feGaussianBlur stdDeviation="14.5"/><feColorMatrix values="0 0 0 0 0 0 0 0 0 0 0 0 0 0 0 0 0 0 0.25 0"/><feBlend in2="BackgroundImageFix" result="effect1_dropShadow"/><feBlend in="SourceGraphic" in2="effect1_dropShadow" result="shape"/></filter><linearGradient id="paint4_linear" x1="31.188" x2="59.422" y1="41.351" y2="53.354" gradientUnits="userSpaceOnUse"><stop stop-color="#A3D972" offset="0"/><stop stop-color="#FFF500" offset="1"/></linearGradient><filter id="filter1_d" x="2.8291" y="-4.2927" width="75.626" height="64.976" color-interpolation-filters="sRGB" filterUnits="userSpaceOnUse"><feFlood flood-opacity="0" result="BackgroundImageFix"/><feColorMatrix in="SourceAlpha" result="hardAlpha" values="0 0 0 0 0 0 0 0 0 0 0 0 0 0 0 0 0 0 127 0"/><feOffset dy="-15"/><feGaussianBlur stdDeviation="11"/><feColorMatrix values="0 0 0 0 0 0 0 0 0 0 0 0 0 0 0 0 0 0 0.25 0"/><feBlend in2="BackgroundImageFix" result="effect1_dropShadow"/><feBlend in="SourceGraphic" in2="effect1_dropShadow" result="shape"/></filter><linearGradient id="paint3_linear" x1="36.422" x2="50.926" y1="37.04" y2="53.131" gradientUnits="userSpaceOnUse"><stop stop-color="#51FBE5" offset="0"/><stop stop-color="#A4D76C" offset="1"/></linearGradient><linearGradient id="paint1_linear" x1="40.683" x2="40.683" y1="32.87" y2="53.846" gradientTransform="matrix(.47497 0 0 .47497 -8.5189 -9.7886)" gradientUnits="userSpaceOnUse"><stop stop-color="#028987" offset="0"/><stop stop-color="#025A42" offset="1"/></linearGradient><filter id="filter0_d" x="22.789" y="20.756" width="41.358" height="51.975" color-interpolation-filters="sRGB" filterUnits="userSpaceOnUse"><feFlood flood-opacity="0" result="BackgroundImageFix"/><feColorMatrix in="SourceAlpha" result="hardAlpha" values="0 0 0 0 0 0 0 0 0 0 0 0 0 0 0 0 0 0 127 0"/><feOffset dx="-7"/><feGaussianBlur stdDeviation="5"/><feColorMatrix values="0 0 0 0 0 0 0 0 0 0 0 0 0 0 0 0 0 0 0.25 0"/><feBlend in2="BackgroundImageFix" result="effect1_dropShadow"/><feBlend in="SourceGraphic" in2="effect1_dropShadow" result="shape"/></filter><linearGradient id="paint2_linear" x1="38.153" x2="55.617" y1="40.979" y2="49.831" gradientUnits="userSpaceOnUse"><stop stop-color="#03756B" offset="0"/><stop stop-color="#E3ED24" offset="1"/></linearGradient></defs><rect x=".030573" y=".18584" width="23.749" height="23.749" rx="4.2748" fill="url(#paint0_linear)" stroke-width=".47497"/><path d="m11.39 9.1635c-4.7395 0.32004-6.533-2.1211-7.9126-3.3398-0.7791 7.5261 1.3472 8.5923 3.652 9.6565 2.3048 1.0643 7.8071-1.0884 11.167 0.17674-0.17047-5.3585-2.1669-6.8135-6.9063-6.4935z" fill="url(#paint1_linear)" stroke-width=".47497"/><g transform="matrix(.47497 0 0 .47497 -8.5189 -9.7886)" filter="url(#filter0_d)"><path d="m58.747 30.756h-15.969c0.708 4.652 5.251 4.652 5.251 4.652h2.36l-3.245 22.71h-7.3553c0 1.59 1.9162 4.6128 4.1975 4.6128h11.792c0.4458-0.0392 1.3649-0.53 1.475-2.1788s-1.2915-2.3096-2.006-2.434h-3.304l3.1467-22.71c1.1013 0.0393 3.4967 0.0942 4.2676 0 0.9637-0.1177 1.7897-0.687 1.7897-2.591 0-1.5232-1.5996-2.0087-2.3993-2.061z" fill="url(#paint2_linear)"/></g><g transform="matrix(.47497 0 0 .47497 -8.5189 -9.7886)" filter="url(#filter1_d)"><path d="m31.38 40.802c-2.5348-1.3866-5.4739-5.4228-6.0985-8.0948-0.2895 1.8316-0.9437 8.4848 0.1874 11.384 1.4139 3.624 6.0814 6.598 9.9142 6.598s11.652-1.1817 15.314-0.2363c2.9299 0.7563 5.0877 1.766 5.7577 3.23-0.7216-9.2604-7.8213-10.003-13.832-10.419-3.9861-0.2757-8.0745-0.7287-11.243-2.4619z" fill="url(#paint3_linear)" fill-opacity=".7"/></g><g transform="matrix(.47497 0 0 .47497 -8.5189 -9.7886)" filter="url(#filter2_d)"><path d="m31.563 49.085c-4.7225-1.7947-5.9882-9.0323-6.2604-16.215-3.1302 21.941 10.071 22.532 15.974 21.213 5.9031-1.3184 10.718-1.6923 15.26-0.3935-1.429-2.1843-3.1642-3.4634-8.1487-3.7192s-10.922 1.3578-16.825-0.8855z" fill="url(#paint4_linear)"/></g></svg>
