<svg viewBox="0 0 24 24" xmlns="http://www.w3.org/2000/svg"><g shape-rendering="crispEdges"><path fill="#820000" d="M11.745 0h.511v.511h-.511z"/><g fill="#820002"><path d="M12.255 0h.511v.51h-.51zM12.766 0h.51v.51h-.51zM13.277 0h.51v.51h-.51z"/></g><path fill="#810001" d="M13.787 0h.51v.51h-.51z"/><path fill="maroon" d="M14.298 0h.51v.51h-.51z"/><path fill="#830707" d="M14.809 0h.51v.51h-.51z"/><path fill="#810001" d="M15.32 0h.51v.51h-.51z"/><path fill="#810002" d="M15.83 0h.51v.51h-.51z"/><path fill="#810001" d="M16.34 0h.511v.51h-.51z"/><path fill="#820000" d="M16.851 0h.51v.51h-.51z"/><path fill="#6d0000" d="M17.362 0h.51v.51h-.51z"/><path fill="#890000" d="M10.213.51h.51v.511h-.51z"/><path fill="#830003" d="M10.723.51h.511v.511h-.51z"/><path fill="#820002" d="M11.234.51h.51v.511h-.51z"/><path fill="#971500" d="M11.745.51h.51v.511h-.51z"/><path fill="#bb3800" d="M12.255.51h.511v.511h-.51z"/><path fill="#d85400" d="M12.766.51h.51v.511h-.51z"/><path fill="#ed6800" d="M13.277.51h.51v.511h-.51z"/><path fill="#fb7500" d="M13.787.51h.51v.511h-.51z"/><path fill="#ff7900" d="M14.298.51h.51v.511h-.51z"/><path fill="#fe7800" d="M14.809.51h.51v.511h-.51z"/><path fill="#f67100" d="M15.32.51h.51v.511h-.51z"/><path fill="#e66100" d="M15.83.51h.51v.511h-.51z"/><path fill="#ce4a00" d="M16.34.51h.511v.511h-.51z"/><path fill="#ae2b00" d="M16.851.51h.51v.511h-.51z"/><path fill="maroon" d="M17.362.51h.51v.511h-.51z"/><path fill="#810001" d="M17.872.51h.511v.511h-.51z"/><path fill="#830000" d="M18.383.51h.51v.511h-.51z"/><path fill="#a42100" d="M9.192 1.021h.51v.51h-.51z"/><path fill="#840004" d="M9.702 1.021h.51v.51h-.51z"/><path fill="#810101" d="M10.213 1.021h.51v.51h-.51z"/><path fill="#b12e00" d="M10.723 1.021h.511v.51h-.51z"/><path fill="#e86100" d="M11.234 1.021h.51v.51h-.51z"/><g fill="#ff7600"><path d="M11.745 1.021h.51v.51h-.51zM12.255 1.021h.511v.51h-.51zM12.766 1.021h.51v.51h-.51zM13.277 1.021h.51v.51h-.51zM13.787 1.021h.51v.51h-.51zM14.298 1.021h.51v.51h-.51zM14.809 1.021h.51v.51h-.51z"/></g><path fill="#fd7600" d="M15.319 1.021h.511v.511h-.511z"/><g fill="#ff7600"><path d="M15.83 1.021h.51v.51h-.51zM16.34 1.021h.511v.51h-.51zM16.851 1.021h.51v.51h-.51z"/></g><path fill="#fc7300" d="M17.362 1.021h.51v.51h-.51z"/><path fill="#d34e00" d="M17.872 1.021h.511v.51h-.51z"/><path fill="#991800" d="M18.383 1.021h.51v.51h-.51z"/><path fill="#810001" d="M18.894 1.021h.51v.51h-.51z"/><path fill="#820000" d="M19.404 1.021h.511v.51h-.51z"/><path fill="#830000" d="M8.68 1.532h.512v.51H8.68z"/><path fill="#830003" d="M9.192 1.532h.51v.51h-.51z"/><path fill="#a42100" d="M9.702 1.532h.51v.51h-.51z"/><path fill="#ed6300" d="M10.213 1.532h.51v.51h-.51z"/><path fill="#fd7300" d="M10.723 1.532h.511v.51h-.51z"/><g fill="#ff7300"><path d="M11.234 1.532h.51v.51h-.51zM11.745 1.532h.51v.51h-.51zM12.255 1.532h.511v.51h-.51zM12.766 1.532h.51v.51h-.51z"/></g><path fill="#ff7301" d="M13.277 1.532h.511v.511h-.511z"/><g fill="#ff7300"><path d="M13.787 1.532h.51v.51h-.51zM14.298 1.532h.51v.51h-.51zM14.809 1.532h.51v.51h-.51zM15.32 1.532h.51v.51h-.51zM15.83 1.532h.51v.51h-.51zM16.34 1.532h.511v.51h-.51zM16.851 1.532h.51v.51h-.51zM17.362 1.532h.51v.51h-.51zM17.872 1.532h.511v.51h-.51z"/></g><path fill="#fe7300" d="M18.383 1.532h.51v.51h-.51z"/><path fill="#d34c00" d="M18.894 1.532h.51v.51h-.51z"/><path fill="maroon" d="M19.404 1.532h.511v.51h-.51z"/><path fill="#810000" d="M19.915 1.532h.51v.51h-.51z"/><path fill="#a00" d="M20.426 1.532h.51v.51h-.51z"/><path fill="#840007" d="M8.17 2.043h.51v.51h-.51z"/><path fill="#810001" d="M8.68 2.043h.512v.51H8.68z"/><path fill="#cb4200" d="M9.192 2.043h.51v.51h-.51z"/><path fill="#fe7100" d="M9.702 2.043h.51v.51h-.51z"/><g fill="#ff7100"><path d="M10.213 2.043h.51v.51h-.51zM10.723 2.043h.511v.51h-.51zM11.234 2.043h.51v.51h-.51zM11.745 2.043h.51v.51h-.51zM12.255 2.043h.511v.51h-.51zM12.766 2.043h.51v.51h-.51zM13.277 2.043h.51v.51h-.51zM13.787 2.043h.51v.51h-.51zM14.298 2.043h.51v.51h-.51zM14.809 2.043h.51v.51h-.51zM15.32 2.043h.51v.51h-.51zM15.83 2.043h.51v.51h-.51zM16.34 2.043h.511v.51h-.51zM16.851 2.043h.51v.51h-.51zM17.362 2.043h.51v.51h-.51zM17.872 2.043h.511v.51h-.51zM18.383 2.043h.51v.51h-.51zM18.894 2.043h.51v.51h-.51z"/></g><path fill="#f56800" d="M19.404 2.043h.511v.51h-.51z"/><path fill="#a52100" d="M19.915 2.043h.51v.51h-.51z"/><path fill="#820001" d="M20.426 2.043h.51v.51h-.51z"/><path fill="#940000" d="M20.936 2.043h.51v.51h-.51z"/><path fill="#850006" d="M7.66 2.553h.51v.51h-.51z"/><path fill="#810001" d="M8.17 2.553h.51v.51h-.51z"/><path fill="#e05300" d="M8.68 2.553h.512v.51H8.68z"/><g fill="#ff6e00"><path d="M9.192 2.553h.51v.51h-.51zM9.702 2.553h.51v.51h-.51zM10.213 2.553h.51v.51h-.51zM10.723 2.553h.511v.51h-.51zM11.234 2.553h.51v.51h-.51zM11.745 2.553h.51v.51h-.51zM12.255 2.553h.511v.51h-.51zM12.766 2.553h.51v.51h-.51zM13.277 2.553h.51v.51h-.51zM13.787 2.553h.51v.51h-.51zM14.298 2.553h.51v.51h-.51zM14.809 2.553h.51v.51h-.51zM15.32 2.553h.51v.51h-.51zM15.83 2.553h.51v.51h-.51zM16.34 2.553h.511v.51h-.51zM16.851 2.553h.51v.51h-.51zM17.362 2.553h.51v.51h-.51zM17.872 2.553h.511v.51h-.51zM18.383 2.553h.51v.51h-.51zM18.894 2.553h.51v.51h-.51zM19.404 2.553h.511v.51h-.51z"/></g><path fill="#fd6d00" d="M19.915 2.553h.51v.51h-.51z"/><path fill="#b62f00" d="M20.426 2.553h.51v.51h-.51z"/><path fill="#810001" d="M20.936 2.553h.51v.51h-.51z"/><path fill="#940000" d="M21.447 2.553h.51v.51h-.51z"/><path fill="#860008" d="M7.149 3.064h.51v.51h-.51z"/><path fill="#810001" d="M7.66 3.064h.51v.51h-.51z"/><path fill="#e35400" d="M8.17 3.064h.51v.51h-.51z"/><g fill="#ff6b00"><path d="M8.68 3.064h.512v.51H8.68zM9.192 3.064h.51v.51h-.51zM9.702 3.064h.51v.51h-.51zM10.213 3.064h.51v.51h-.51zM10.723 3.064h.511v.51h-.51zM11.234 3.064h.51v.51h-.51zM11.745 3.064h.51v.51h-.51zM12.255 3.064h.511v.51h-.51zM12.766 3.064h.51v.51h-.51zM13.277 3.064h.51v.51h-.51zM13.787 3.064h.51v.51h-.51zM14.298 3.064h.51v.51h-.51zM14.809 3.064h.51v.51h-.51zM15.32 3.064h.51v.51h-.51zM15.83 3.064h.51v.51h-.51z"/></g><path fill="#fd6b00" d="M16.34 3.064h.511v.511h-.511z"/><g fill="#ff6b00"><path d="M16.851 3.064h.51v.51h-.51zM17.362 3.064h.51v.51h-.51zM17.872 3.064h.511v.51h-.51zM18.383 3.064h.51v.51h-.51zM18.894 3.064h.51v.51h-.51zM19.404 3.064h.511v.51h-.51zM19.915 3.064h.51v.51h-.51z"/></g><path fill="#fe6b00" d="M20.426 3.064h.51v.51h-.51z"/><path fill="#b42e00" d="M20.936 3.064h.51v.51h-.51z"/><path fill="#810001" d="M21.447 3.064h.51v.51h-.51z"/><path fill="#a00" d="M21.958 3.064h.51v.51h-.51z"/><path fill="#940000" d="M6.638 3.574h.511v.511h-.51z"/><path fill="#820002" d="M7.149 3.574h.51v.511h-.51z"/><path fill="#d64700" d="M7.66 3.574h.51v.511h-.51z"/><g fill="#ff6900"><path d="M8.17 3.574h.51v.511h-.51zM8.68 3.574h.512v.511H8.68zM9.192 3.574h.51v.511h-.51zM9.702 3.574h.51v.511h-.51zM10.213 3.574h.51v.511h-.51zM10.723 3.574h.511v.511h-.51zM11.234 3.574h.51v.511h-.51zM11.745 3.574h.51v.511h-.51zM12.255 3.574h.511v.511h-.51zM12.766 3.574h.51v.511h-.51zM13.277 3.574h.51v.511h-.51z"/></g><path fill="#fa6500" d="M13.787 3.574h.51v.511h-.51z"/><path fill="#f15d00" d="M14.298 3.574h.51v.511h-.51z"/><path fill="#f35f00" d="M14.809 3.574h.51v.511h-.51z"/><path fill="#fd6800" d="M15.32 3.574h.51v.511h-.51z"/><g fill="#ff6900"><path d="M15.83 3.574h.51v.511h-.51zM16.34 3.574h.511v.511h-.51zM16.851 3.574h.51v.511h-.51zM17.362 3.574h.51v.511h-.51zM17.872 3.574h.511v.511h-.51zM18.383 3.574h.51v.511h-.51zM18.894 3.574h.51v.511h-.51zM19.404 3.574h.511v.511h-.51zM19.915 3.574h.51v.511h-.51zM20.426 3.574h.51v.511h-.51z"/></g><path fill="#fd6800" d="M20.936 3.574h.51v.511h-.51z"/><path fill="#a51f00" d="M21.447 3.574h.51v.511h-.51z"/><path fill="maroon" d="M21.958 3.574h.51v.511h-.51z"/><path fill="#860006" d="M6.638 4.085h.511v.51h-.51z"/><path fill="#b52b00" d="M7.149 4.085h.51v.51h-.51z"/><g fill="#f60"><path d="M7.66 4.085h.51v.51h-.51zM8.17 4.085h.51v.51h-.51zM8.68 4.085h.512v.51H8.68zM9.192 4.085h.51v.51h-.51zM9.702 4.085h.51v.51h-.51zM10.213 4.085h.51v.51h-.51zM10.723 4.085h.511v.51h-.51z"/></g><path fill="#ff6400" d="M11.234 4.085h.51v.51h-.51z"/><path fill="#f60" d="M11.745 4.085h.51v.51h-.51z"/><path fill="#e85400" d="M12.255 4.085h.511v.51h-.51z"/><path fill="#b42c00" d="M12.766 4.085h.51v.51h-.51z"/><path fill="#920f00" d="M13.277 4.085h.51v.51h-.51z"/><path fill="#820001" d="M13.787 4.085h.51v.51h-.51z"/><path fill="#830003" d="M14.298 4.085h.51v.51h-.51z"/><path fill="#830002" d="M14.809 4.085h.51v.51h-.51z"/><path fill="#840606" d="M15.32 4.085h.51v.51h-.51z"/><path fill="#9e1900" d="M15.83 4.085h.51v.51h-.51z"/><path fill="#c83a00" d="M16.34 4.085h.511v.51h-.51z"/><path fill="#f76000" d="M16.851 4.085h.51v.51h-.51z"/><g fill="#f60"><path d="M17.362 4.085h.51v.51h-.51zM17.872 4.085h.511v.51h-.51zM18.383 4.085h.51v.51h-.51zM18.894 4.085h.51v.51h-.51zM19.404 4.085h.511v.51h-.51zM19.915 4.085h.51v.51h-.51zM20.426 4.085h.51v.51h-.51zM20.936 4.085h.51v.51h-.51z"/></g><path fill="#f55f00" d="M21.447 4.085h.51v.51h-.51z"/><path fill="maroon" d="M21.958 4.085h.51v.51h-.51z"/><path fill="#820000" d="M22.468 4.085h.51v.51h-.51z"/><path fill="#88000b" d="M6.128 4.596h.51v.51h-.51z"/><path fill="maroon" d="M6.638 4.596h.511v.51h-.51z"/><path fill="#f85f00" d="M7.149 4.596h.51v.51h-.51z"/><g fill="#ff6300"><path d="M7.66 4.596h.51v.51h-.51zM8.17 4.596h.51v.51h-.51zM8.68 4.596h.512v.51H8.68zM9.192 4.596h.51v.51h-.51zM9.702 4.596h.51v.51h-.51zM10.213 4.596h.51v.51h-.51zM10.723 4.596h.511v.51h-.51z"/></g><path fill="#f55c00" d="M11.234 4.596h.51v.51h-.51z"/><path fill="#ad2301" d="M11.745 4.596h.51v.51h-.51z"/><path fill="#830003" d="M12.255 4.596h.511v.51h-.51z"/><path fill="#8e030f" d="M12.766 4.596h.51v.51h-.51z"/><path fill="#930013" d="M13.277 4.596h.51v.51h-.51z"/><path fill="#970017" d="M13.787 4.596h.51v.51h-.51zM14.298 4.596h.51v.51h-.51z"/><path fill="#950013" d="M14.809 4.596h.51v.51h-.51z"/><path fill="#960016" d="M15.32 4.596h.51v.51h-.51z"/><path fill="#900011" d="M15.83 4.596h.51v.51h-.51z"/><path fill="#890009" d="M16.34 4.596h.511v.51h-.51z"/><path fill="#840707" d="M16.851 4.596h.51v.51h-.51z"/><path fill="#cc3c00" d="M17.362 4.596h.51v.51h-.51z"/><path fill="#fe6300" d="M17.872 4.596h.511v.51h-.51z"/><g fill="#ff6300"><path d="M18.383 4.596h.51v.51h-.51zM18.894 4.596h.51v.51h-.51zM19.404 4.596h.511v.51h-.51zM19.915 4.596h.51v.51h-.51zM20.426 4.596h.51v.51h-.51zM20.936 4.596h.51v.51h-.51zM21.447 4.596h.51v.51h-.51z"/></g><path fill="#d34100" d="M21.958 4.596h.51v.51h-.51z"/><path fill="#810001" d="M22.468 4.596h.51v.51h-.51z"/><path fill="#850005" d="M6.128 5.106h.51v.511h-.51z"/><path fill="#cb3a00" d="M6.638 5.106h.511v.511h-.51z"/><g fill="#ff6100"><path d="M7.149 5.106h.51v.511h-.51zM7.66 5.106h.51v.511h-.51zM8.17 5.106h.51v.511h-.51zM8.68 5.106h.512v.511H8.68zM9.192 5.106h.51v.511h-.51zM9.702 5.106h.51v.511h-.51zM10.213 5.106h.51v.511h-.51z"/></g><path fill="#e95100" d="M10.723 5.106h.511v.511h-.51z"/><path fill="maroon" d="M11.234 5.106h.51v.511h-.51z"/><path fill="#8b000b" d="M11.745 5.106h.51v.511h-.51z"/><path fill="#960016" d="M12.255 5.106h.511v.511h-.51z"/><path fill="#9b0021" d="M12.766 5.106h.51v.511h-.51z"/><path fill="#96001e" d="M15.83 5.106h.51v.511h-.51z"/><path fill="#950017" d="M16.34 5.106h.511v.511h-.51z"/><path fill="#930014" d="M16.851 5.106h.51v.511h-.51z"/><path fill="#860005" d="M17.362 5.106h.51v.511h-.51z"/><path fill="#ad2300" d="M17.872 5.106h.511v.511h-.51z"/><path fill="#fc5f00" d="M18.383 5.106h.51v.511h-.51z"/><g fill="#ff6100"><path d="M18.894 5.106h.51v.511h-.51zM19.404 5.106h.511v.511h-.51zM19.915 5.106h.51v.511h-.51zM20.426 5.106h.51v.511h-.51zM20.936 5.106h.51v.511h-.51zM21.447 5.106h.51v.511h-.51z"/></g><g><path fill="#fe6100" d="M21.958 5.106h.51v.511h-.51z"/><path fill="#9a1300" d="M22.468 5.106h.51v.511h-.51z"/><path fill="#810000" d="M22.979 5.106h.51v.511h-.51z"/><path fill="#89000a" d="M5.617 5.617h.51v.51h-.51z"/><path fill="maroon" d="M6.128 5.617h.51v.51h-.51z"/><path fill="#fb5b00" d="M6.638 5.617h.511v.51h-.51z"/></g><g fill="#ff5e00"><path d="M7.149 5.617h.51v.51h-.51zM7.66 5.617h.51v.51h-.51zM8.17 5.617h.51v.51h-.51zM8.68 5.617h.512v.51H8.68zM9.192 5.617h.51v.51h-.51zM9.702 5.617h.51v.51h-.51z"/></g><g><path fill="#ef5200" d="M10.213 5.617h.51v.51h-.51z"/><path fill="#840606" d="M10.723 5.617h.511v.51h-.51z"/><path fill="#8e000f" d="M11.234 5.617h.51v.51h-.51z"/><path fill="#9b001c" d="M11.745 5.617h.51v.51h-.51z"/><path fill="#9c001d" d="M16.851 5.617h.51v.51h-.51z"/><path fill="#950016" d="M17.362 5.617h.51v.51h-.51z"/><path fill="#870008" d="M17.872 5.617h.511v.51h-.51z"/><path fill="#ad2200" d="M18.383 5.617h.51v.51h-.51z"/><path fill="#fe5e00" d="M18.894 5.617h.51v.51h-.51z"/></g><g fill="#ff5e00"><path d="M19.404 5.617h.511v.51h-.51zM19.915 5.617h.51v.51h-.51zM20.426 5.617h.51v.51h-.51zM20.936 5.617h.51v.51h-.51zM21.447 5.617h.51v.51h-.51zM21.958 5.617h.51v.51h-.51z"/></g><g><path fill="#d43e00" d="M22.468 5.617h.51v.51h-.51z"/><path fill="#820002" d="M22.979 5.617h.51v.51h-.51z"/><path fill="#870008" d="M5.617 6.128h.51v.51h-.51z"/><path fill="#b82800" d="M6.128 6.128h.51v.51h-.51z"/></g><g fill="#ff5b00"><path d="M6.638 6.128h.511v.51h-.51zM7.149 6.128h.51v.51h-.51zM7.66 6.128h.51v.51h-.51zM8.17 6.128h.51v.51h-.51zM8.68 6.128h.512v.51H8.68zM9.192 6.128h.51v.51h-.51z"/></g><g><path fill="#fd5b00" d="M9.702 6.128h.51v.51h-.51z"/><path fill="#9b1400" d="M10.213 6.128h.51v.51h-.51z"/><path fill="#8c000d" d="M10.723 6.128h.511v.51h-.51z"/><path fill="#a1001a" d="M11.234 6.128h.51v.51h-.51z"/><path fill="#a20017" d="M17.362 6.128h.51v.51h-.51z"/><path fill="#950016" d="M17.872 6.128h.511v.51h-.51z"/><path fill="#860005" d="M18.383 6.128h.51v.51h-.51z"/><path fill="#cc3700" d="M18.894 6.128h.51v.51h-.51z"/></g><g fill="#ff5b00"><path d="M19.404 6.128h.511v.51h-.51zM19.915 6.128h.51v.51h-.51zM20.426 6.128h.51v.51h-.51zM20.936 6.128h.51v.51h-.51zM21.447 6.128h.51v.51h-.51zM21.958 6.128h.51v.51h-.51z"/></g><g><path fill="#fc5900" d="M22.468 6.128h.51v.51h-.51z"/><path fill="maroon" d="M22.979 6.128h.51v.51h-.51z"/><path fill="#8b0000" d="M23.49 6.128H24v.51h-.51z"/><path fill="#840004" d="M5.617 6.638h.51v.511h-.51z"/><path fill="#e04400" d="M6.128 6.638h.51v.511h-.51z"/><path fill="#ff5900" d="M6.638 6.638h.511v.511h-.51zM7.149 6.638h.51v.511h-.51z"/><path fill="#ff5b00" d="M7.66 6.638h.51v.511h-.51z"/><path fill="#fd5900" d="M8.17 6.638h.51v.511h-.51z"/><path fill="#ff5900" d="M8.68 6.638h.512v.511H8.68zM9.192 6.638h.51v.511h-.51z"/><path fill="#ce3700" d="M9.702 6.638h.51v.511h-.51z"/><path fill="#860006" d="M10.213 6.638h.51v.511h-.51z"/><path fill="#9b001c" d="M10.723 6.638h.511v.511h-.51z"/><path fill="#9b0021" d="M17.872 6.638h.511v.511h-.51z"/><path fill="#930014" d="M18.383 6.638h.51v.511h-.51z"/><path fill="#840707" d="M18.894 6.638h.51v.511h-.51z"/><path fill="#f75400" d="M19.404 6.638h.511v.511h-.51z"/><path fill="#ff5902" d="M19.915 6.638h.51v.511h-.51z"/></g><g fill="#ff5900"><path d="M20.426 6.638h.51v.511h-.51zM20.936 6.638h.51v.511h-.51zM21.447 6.638h.51v.511h-.51zM21.958 6.638h.51v.511h-.51zM22.468 6.638h.51v.511h-.51z"/></g><g><path fill="#ae2000" d="M22.979 6.638h.51v.511h-.51z"/><path fill="maroon" d="M23.49 6.638H24v.511h-.51z"/><path fill="#990019" d="M5.106 7.149h.511v.51h-.51z"/><path fill="#830606" d="M5.617 7.149h.51v.51h-.51z"/><path fill="#fc5400" d="M6.128 7.149h.51v.51h-.51z"/></g><g fill="#ff5600"><path d="M6.638 7.149h.511v.51h-.51zM7.149 7.149h.51v.51h-.51zM7.66 7.149h.51v.51h-.51zM8.17 7.149h.51v.51h-.51zM8.68 7.149h.512v.51H8.68z"/></g><g><path fill="#fe5600" d="M9.192 7.149h.51v.51h-.51z"/><path fill="#950f00" d="M9.702 7.149h.51v.51h-.51z"/><path fill="#8e000f" d="M10.213 7.149h.51v.51h-.51z"/><path fill="#970019" d="M18.383 7.149h.51v.51h-.51z"/><path fill="#890009" d="M18.894 7.149h.51v.51h-.51z"/><path fill="#c73100" d="M19.404 7.149h.511v.51h-.51z"/></g><g fill="#ff5600"><path d="M19.915 7.149h.51v.51h-.51zM20.426 7.149h.51v.51h-.51zM20.936 7.149h.51v.51h-.51zM21.447 7.149h.51v.51h-.51zM21.958 7.149h.51v.51h-.51zM22.468 7.149h.51v.51h-.51z"/></g><g><path fill="#ce3500" d="M22.979 7.149h.51v.51h-.51z"/><path fill="#830003" d="M23.49 7.149H24v.51h-.51z"/><path fill="#8c000d" d="M5.106 7.66h.511v.51h-.51z"/><path fill="#910" d="M5.617 7.66h.51v.51h-.51z"/></g><g fill="#ff5300"><path d="M6.128 7.66h.51v.51h-.51zM6.638 7.66h.511v.51h-.51zM7.149 7.66h.51v.51h-.51zM7.66 7.66h.51v.51h-.51zM8.17 7.66h.51v.51h-.51zM8.68 7.66h.512v.51H8.68z"/></g><g><path fill="#eb4700" d="M9.192 7.66h.51v.51h-.51z"/><path fill="#840104" d="M9.702 7.66h.51v.51h-.51z"/><path fill="#9b0021" d="M10.213 7.66h.51v.51h-.51z"/><path fill="#a9001c" d="M18.383 7.66h.51v.51h-.51z"/><path fill="#910011" d="M18.894 7.66h.51v.51h-.51z"/><path fill="#9e1400" d="M19.404 7.66h.511v.51h-.51z"/></g><g fill="#ff5300"><path d="M19.915 7.66h.51v.51h-.51zM20.426 7.66h.51v.51h-.51zM20.936 7.66h.51v.51h-.51z"/></g><g><path fill="#ff5200" d="M21.447 7.66h.51v.51h-.51z"/><path fill="#ff5300" d="M21.958 7.66h.51v.51h-.51zM22.468 7.66h.51v.51h-.51z"/><path fill="#e64300" d="M22.979 7.66h.51v.51h-.51z"/><path fill="#820002" d="M23.49 7.66H24v.51h-.51z"/><path fill="#8a000c" d="M5.106 8.17h.511v.51h-.51z"/><path fill="#aa1b00" d="M5.617 8.17h.51v.51h-.51z"/><path fill="#ff5100" d="M6.128 8.17h.51v.51h-.51zM6.638 8.17h.511v.51h-.51z"/><path fill="#fd5100" d="M7.149 8.17h.51v.51h-.51z"/></g><g fill="#ff5100"><path d="M7.66 8.17h.51v.51h-.51zM8.17 8.17h.51v.51h-.51zM8.68 8.17h.512v.51H8.68z"/></g><g><path fill="#cf3200" d="M9.192 8.17h.51v.51h-.51z"/><path fill="#870008" d="M9.702 8.17h.51v.51h-.51z"/><path fill="#960016" d="M18.894 8.17h.51v.51h-.51z"/><path fill="#840707" d="M19.404 8.17h.511v.51h-.51z"/><path fill="#fd5000" d="M19.915 8.17h.51v.51h-.51z"/><path fill="#ff5100" d="M20.426 8.17h.51v.51h-.51zM20.936 8.17h.51v.51h-.51z"/><path fill="#fd5100" d="M21.447 8.17h.51v.51h-.51z"/><path fill="#ff5100" d="M21.958 8.17h.51v.51h-.51zM22.468 8.17h.51v.51h-.51z"/><path fill="#f74c00" d="M22.979 8.17h.51v.51h-.51z"/><path fill="#810001" d="M23.49 8.17H24v.51h-.51z"/><path fill="#8a000a" d="M5.106 8.68h.511v.512h-.51z"/><path fill="#b31f00" d="M5.617 8.68h.51v.512h-.51z"/></g><g fill="#ff4e00"><path d="M6.128 8.68h.51v.512h-.51zM6.638 8.68h.511v.512h-.51zM7.149 8.68h.51v.512h-.51zM7.66 8.68h.51v.512h-.51zM8.17 8.68h.51v.512h-.51zM8.68 8.68h.512v.512H8.68z"/></g><g><path fill="#c02800" d="M9.192 8.68h.51v.512h-.51z"/><path fill="#8a000a" d="M9.702 8.68h.51v.512h-.51z"/><path fill="#960017" d="M18.894 8.68h.51v.512h-.51z"/><path fill="#830003" d="M19.404 8.68h.511v.512h-.51z"/><path fill="#f24700" d="M19.915 8.68h.51v.512h-.51z"/></g><g fill="#ff4e00"><path d="M20.426 8.68h.51v.512h-.51zM20.936 8.68h.51v.512h-.51zM21.447 8.68h.51v.512h-.51zM21.958 8.68h.51v.512h-.51zM22.468 8.68h.51v.512h-.51z"/></g><g><path fill="#fe4e00" d="M22.979 8.68h.51v.512h-.51z"/><path fill="#830606" d="M23.49 8.68H24v.512h-.51z"/><path fill="#8b000a" d="M5.106 9.192h.511v.51h-.51z"/><path fill="#b41f00" d="M5.617 9.192h.51v.51h-.51z"/></g><g fill="#ff4b00"><path d="M6.128 9.192h.51v.51h-.51zM6.638 9.192h.511v.51h-.51zM7.149 9.192h.51v.51h-.51zM7.66 9.192h.51v.51h-.51zM8.17 9.192h.51v.51h-.51zM8.68 9.192h.512v.51H8.68z"/></g><g><path fill="#be2500" d="M9.192 9.192h.51v.51h-.51z"/><path fill="#880009" d="M9.702 9.192h.51v.51h-.51z"/><path fill="#960017" d="M18.894 9.192h.51v.51h-.51z"/><path fill="#830004" d="M19.404 9.192h.511v.51h-.51z"/><path fill="#f04300" d="M19.915 9.192h.51v.51h-.51z"/></g><g fill="#ff4b00"><path d="M20.426 9.192h.51v.51h-.51zM20.936 9.192h.51v.51h-.51zM21.447 9.192h.51v.51h-.51zM21.958 9.192h.51v.51h-.51zM22.468 9.192h.51v.51h-.51zM22.979 9.192h.51v.51h-.51z"/></g><g><path fill="maroon" d="M23.49 9.192H24v.51h-.51z"/><path fill="#8b000c" d="M5.106 9.702h.511v.51h-.51z"/><path fill="#ae1b00" d="M5.617 9.702h.51v.51h-.51z"/></g><g fill="#ff4900"><path d="M6.128 9.702h.51v.51h-.51zM6.638 9.702h.511v.51h-.51zM7.149 9.702h.51v.51h-.51z"/></g><g><path fill="#fe4900" d="M7.66 9.702h.51v.51h-.51z"/><path fill="#ff4900" d="M8.17 9.702h.51v.51h-.51zM8.68 9.702h.512v.51H8.68z"/><path fill="#c82900" d="M9.192 9.702h.51v.51h-.51z"/><path fill="#880008" d="M9.702 9.702h.51v.51h-.51z"/><path fill="#960017" d="M18.894 9.702h.51v.51h-.51z"/><path fill="#810002" d="M19.404 9.702h.511v.51h-.51z"/><path fill="#f94600" d="M19.915 9.702h.51v.51h-.51z"/></g><g fill="#ff4900"><path d="M20.426 9.702h.51v.51h-.51zM20.936 9.702h.51v.51h-.51zM21.447 9.702h.51v.51h-.51zM21.958 9.702h.51v.51h-.51zM22.468 9.702h.51v.51h-.51z"/></g><g><path fill="#fb4700" d="M22.979 9.702h.51v.51h-.51z"/><path fill="#810000" d="M23.49 9.702H24v.51h-.51z"/><path fill="#8d000d" d="M5.106 10.213h.511v.51h-.51z"/><path fill="#a11200" d="M5.617 10.213h.51v.51h-.51z"/></g><g fill="#ff4600"><path d="M6.128 10.213h.51v.51h-.51zM6.638 10.213h.511v.51h-.51zM7.149 10.213h.51v.51h-.51zM7.66 10.213h.51v.51h-.51zM8.17 10.213h.51v.51h-.51zM8.68 10.213h.512v.51H8.68z"/></g><g><path fill="#de3400" d="M9.192 10.213h.51v.51h-.51z"/><path fill="#850005" d="M9.702 10.213h.51v.51h-.51z"/><path fill="#920013" d="M18.894 10.213h.51v.51h-.51z"/><path fill="#910900" d="M19.404 10.213h.511v.51h-.51z"/></g><g fill="#ff4600"><path d="M19.915 10.213h.51v.51h-.51zM20.426 10.213h.51v.51h-.51zM20.936 10.213h.51v.51h-.51zM21.447 10.213h.51v.51h-.51zM21.958 10.213h.51v.51h-.51zM22.468 10.213h.51v.51h-.51z"/></g><g><path fill="#ee3d00" d="M22.979 10.213h.51v.51h-.51z"/><path fill="#820002" d="M23.49 10.213H24v.51h-.51z"/><path fill="#900012" d="M5.106 10.723h.511v.511h-.51z"/><path fill="#8d0903" d="M5.617 10.723h.51v.511h-.51z"/><path fill="#fe4300" d="M6.128 10.723h.51v.511h-.51z"/><path fill="#ff4300" d="M6.638 10.723h.511v.511h-.51z"/><path fill="#fd4300" d="M7.149 10.723h.51v.511h-.51z"/><path fill="#ff4301" d="M7.66 10.723h.51v.511h-.51z"/><path fill="#ff4300" d="M8.17 10.723h.51v.511h-.51z"/><path fill="#ff4301" d="M8.68 10.723h.512v.511H8.68z"/><path fill="#fb4100" d="M9.192 10.723h.51v.511h-.51z"/><path fill="#840707" d="M9.702 10.723h.51v.511h-.51z"/><path fill="#8a070e" d="M10.213 10.723h.51v.511h-.51z"/><path fill="#900" d="M18.383 10.723h.51v.511h-.51z"/><path fill="#8c000c" d="M18.894 10.723h.51v.511h-.51z"/><path fill="#b51c00" d="M19.404 10.723h.511v.511h-.51z"/></g><g fill="#ff4300"><path d="M19.915 10.723h.51v.511h-.51zM20.426 10.723h.51v.511h-.51zM20.936 10.723h.51v.511h-.51zM21.447 10.723h.51v.511h-.51zM21.958 10.723h.51v.511h-.51zM22.468 10.723h.51v.511h-.51z"/></g><g><path fill="#d92f00" d="M22.979 10.723h.51v.511h-.51z"/><path fill="#830003" d="M23.49 10.723H24v.511h-.51z"/><path fill="#9b001c" d="M5.106 11.234h.511v.51h-.51z"/><path fill="#830003" d="M5.617 11.234h.51v.51h-.51z"/><path fill="#ee3b00" d="M6.128 11.234h.51v.51h-.51z"/></g><g fill="#ff4100"><path d="M6.638 11.234h.511v.51h-.51zM7.149 11.234h.51v.51h-.51zM7.66 11.234h.51v.51h-.51zM8.17 11.234h.51v.51h-.51zM8.68 11.234h.512v.51H8.68zM9.192 11.234h.51v.51h-.51z"/></g><g><path fill="#b51b00" d="M9.702 11.234h.51v.51h-.51z"/><path fill="#870008" d="M10.213 11.234h.51v.51h-.51z"/><path fill="#970016" d="M18.383 11.234h.51v.51h-.51z"/><path fill="#830003" d="M18.894 11.234h.51v.51h-.51z"/><path fill="#e73400" d="M19.404 11.234h.511v.51h-.51z"/></g><g fill="#ff4100"><path d="M19.915 11.234h.51v.51h-.51zM20.426 11.234h.51v.51h-.51zM20.936 11.234h.51v.51h-.51zM21.447 11.234h.51v.51h-.51zM21.958 11.234h.51v.51h-.51zM22.468 11.234h.51v.51h-.51z"/></g><g><path fill="#bc1f00" d="M22.979 11.234h.51v.51h-.51z"/><path fill="#840003" d="M23.49 11.234H24v.51h-.51z"/><path fill="#880008" d="M5.617 11.745h.51v.51h-.51z"/><path fill="#ca2400" d="M6.128 11.745h.51v.51h-.51z"/><path fill="#ff3e00" d="M6.638 11.745h.511v.51h-.51z"/><path fill="#ff3c00" d="M7.149 11.745h.51v.51h-.51z"/></g><g fill="#ff3e00"><path d="M7.66 11.745h.51v.51h-.51zM8.17 11.745h.51v.51h-.51zM8.68 11.745h.512v.51H8.68zM9.192 11.745h.51v.51h-.51z"/></g><g><path fill="#f13800" d="M9.702 11.745h.51v.51h-.51z"/><path fill="#810001" d="M10.213 11.745h.51v.51h-.51z"/><path fill="#88000d" d="M10.723 11.745h.511v.51h-.51z"/><path fill="#902" d="M17.872 11.745h.511v.51h-.51z"/><path fill="#8b0000" d="M18.383 11.745h.51v.51h-.51z"/><path fill="#ab1500" d="M18.894 11.745h.51v.51h-.51z"/></g><g fill="#ff3e00"><path d="M19.404 11.745h.511v.51h-.51zM19.915 11.745h.51v.51h-.51zM20.426 11.745h.51v.51h-.51zM20.936 11.745h.51v.51h-.51zM21.447 11.745h.51v.51h-.51zM21.958 11.745h.51v.51h-.51zM22.468 11.745h.51v.51h-.51z"/></g><g><path fill="#970b00" d="M22.979 11.745h.51v.51h-.51z"/><path fill="#810000" d="M23.49 11.745H24v.51h-.51z"/><path fill="#8e000e" d="M5.617 12.255h.51v.511h-.51z"/><path fill="#9c0d00" d="M6.128 12.255h.51v.511h-.51z"/></g><g fill="#ff3b00"><path d="M6.638 12.255h.511v.511h-.51zM7.149 12.255h.51v.511h-.51zM7.66 12.255h.51v.511h-.51zM8.17 12.255h.51v.511h-.51zM8.68 12.255h.512v.511H8.68zM9.192 12.255h.51v.511h-.51zM9.702 12.255h.51v.511h-.51z"/></g><g><path fill="#d02500" d="M10.213 12.255h.51v.511h-.51z"/><path fill="#830003" d="M10.723 12.255h.511v.511h-.51z"/><path fill="#880009" d="M11.234 12.255h.51v.511h-.51z"/><path fill="#903" d="M17.362 12.255h.51v.511h-.51z"/><path fill="#8f000e" d="M17.872 12.255h.511v.511h-.51z"/><path fill="maroon" d="M18.383 12.255h.51v.511h-.51z"/><path fill="#f43600" d="M18.894 12.255h.51v.511h-.51z"/></g><g fill="#ff3b00"><path d="M19.404 12.255h.511v.511h-.51zM19.915 12.255h.51v.511h-.51zM20.426 12.255h.51v.511h-.51zM20.936 12.255h.51v.511h-.51zM21.447 12.255h.51v.511h-.51zM21.958 12.255h.51v.511h-.51z"/></g><g><path fill="#e93100" d="M22.468 12.255h.51v.511h-.51z"/><path fill="#820002" d="M22.979 12.255h.51v.511h-.51z"/><path fill="#970017" d="M5.617 12.766h.51v.51h-.51z"/><path fill="#830003" d="M6.128 12.766h.51v.51h-.51z"/><path fill="#e42d00" d="M6.638 12.766h.511v.51h-.51z"/></g><g fill="#ff3900"><path d="M7.149 12.766h.51v.51h-.51zM7.66 12.766h.51v.51h-.51zM8.17 12.766h.51v.51h-.51zM8.68 12.766h.512v.51H8.68zM9.192 12.766h.51v.51h-.51zM9.702 12.766h.51v.51h-.51zM10.213 12.766h.51v.51h-.51z"/></g><g><path fill="#c11d00" d="M10.723 12.766h.511v.51h-.51z"/><path fill="#830003" d="M11.234 12.766h.51v.51h-.51z"/><path fill="#880009" d="M11.745 12.766h.51v.51h-.51z"/><path fill="#900" d="M16.851 12.766h.51v.51h-.51z"/><path fill="#8c0000" d="M17.362 12.766h.51v.51h-.51z"/><path fill="#840707" d="M17.872 12.766h.511v.51h-.51z"/><path fill="#e82f00" d="M18.383 12.766h.51v.51h-.51z"/></g><g fill="#ff3900"><path d="M18.894 12.766h.51v.51h-.51zM19.404 12.766h.511v.51h-.51zM19.915 12.766h.51v.51h-.51z"/></g><path fill="#fe3900" d="M20.426 12.766h.511v.511h-.511z"/><g fill="#ff3900"><path d="M20.936 12.766h.51v.51h-.51zM21.447 12.766h.51v.51h-.51zM21.958 12.766h.51v.51h-.51z"/></g><g><path fill="#b21700" d="M22.468 12.766h.51v.51h-.51z"/><path fill="#840005" d="M22.979 12.766h.51v.51h-.51z"/><path fill="#8b000c" d="M6.128 13.277h.51v.51h-.51z"/><path fill="#a71000" d="M6.638 13.277h.511v.51h-.51z"/></g><g fill="#ff3600"><path d="M7.149 13.277h.51v.51h-.51zM7.66 13.277h.51v.51h-.51zM8.17 13.277h.51v.51h-.51zM8.68 13.277h.512v.51H8.68zM9.192 13.277h.51v.51h-.51zM9.702 13.277h.51v.51h-.51zM10.213 13.277h.51v.51h-.51zM10.723 13.277h.511v.51h-.51z"/></g><g><path fill="#d02200" d="M11.234 13.277h.51v.51h-.51z"/><path fill="#810001" d="M11.745 13.277h.51v.51h-.51z"/><path fill="#870007" d="M12.255 13.277h.511v.51h-.51z"/><path fill="#890009" d="M12.766 13.277h.51v.51h-.51z"/><path fill="#900" d="M15.83 13.277h.51v.51h-.51z"/><path fill="#8d000f" d="M16.34 13.277h.511v.51h-.51z"/><path fill="#860006" d="M16.851 13.277h.51v.51h-.51z"/><path fill="#9a0b00" d="M17.362 13.277h.51v.51h-.51z"/><path fill="#ee2f00" d="M17.872 13.277h.511v.51h-.51z"/></g><g fill="#ff3600"><path d="M18.383 13.277h.51v.51h-.51zM18.894 13.277h.51v.51h-.51zM19.404 13.277h.511v.51h-.51zM19.915 13.277h.51v.51h-.51zM20.426 13.277h.51v.51h-.51zM20.936 13.277h.51v.51h-.51zM21.447 13.277h.51v.51h-.51z"/></g><g><path fill="#ee2f00" d="M21.958 13.277h.51v.51h-.51z"/><path fill="#810001" d="M22.468 13.277h.51v.51h-.51z"/><path fill="#800" d="M22.979 13.277h.51v.51h-.51z"/><path fill="#920012" d="M6.128 13.787h.51v.51h-.51z"/><path fill="#8d0500" d="M6.638 13.787h.511v.51h-.51z"/></g><g fill="#f30"><path d="M7.149 13.787h.51v.51h-.51zM7.66 13.787h.51v.51h-.51zM8.17 13.787h.51v.51h-.51zM8.68 13.787h.512v.51H8.68zM9.192 13.787h.51v.51h-.51zM9.702 13.787h.51v.51h-.51zM10.213 13.787h.51v.51h-.51zM10.723 13.787h.511v.51h-.51z"/></g><g><path fill="#fe3300" d="M11.234 13.787h.51v.51h-.51z"/><path fill="#f12e00" d="M11.745 13.787h.51v.51h-.51z"/><path fill="#b51500" d="M12.255 13.787h.511v.51h-.51z"/><path fill="#840707" d="M12.766 13.787h.51v.51h-.51z"/><path fill="#860005" d="M13.277 13.787h.51v.51h-.51z"/><path fill="#870007" d="M13.787 13.787h.51v.51h-.51z"/><path fill="#890008" d="M14.298 13.787h.51v.51h-.51z"/><path fill="#880008" d="M14.809 13.787h.51v.51h-.51z"/><path fill="#860008" d="M15.32 13.787h.51v.51h-.51z"/><path fill="#830003" d="M15.83 13.787h.51v.51h-.51z"/><path fill="#950b03" d="M16.34 13.787h.511v.51h-.51z"/><path fill="#cd1f00" d="M16.851 13.787h.51v.51h-.51z"/><path fill="#fd3300" d="M17.362 13.787h.51v.51h-.51z"/></g><g fill="#f30"><path d="M17.872 13.787h.511v.51h-.51zM18.383 13.787h.51v.51h-.51zM18.894 13.787h.51v.51h-.51zM19.404 13.787h.511v.51h-.51zM19.915 13.787h.51v.51h-.51zM20.426 13.787h.51v.51h-.51zM20.936 13.787h.51v.51h-.51z"/></g><g><path fill="#fe3300" d="M21.447 13.787h.51v.51h-.51z"/><path fill="#a50f00" d="M21.958 13.787h.51v.51h-.51z"/><path fill="#860005" d="M22.468 13.787h.51v.51h-.51z"/><path fill="#960017" d="M5.617 14.298h.51v.51h-.51z"/><path fill="#850005" d="M6.128 14.298h.51v.51h-.51z"/><path fill="#bc1700" d="M6.638 14.298h.511v.51h-.51z"/></g><g fill="#ff3100"><path d="M7.149 14.298h.51v.51h-.51zM7.66 14.298h.51v.51h-.51zM8.17 14.298h.51v.51h-.51zM8.68 14.298h.512v.51H8.68zM9.192 14.298h.51v.51h-.51zM9.702 14.298h.51v.51h-.51zM10.213 14.298h.51v.51h-.51zM10.723 14.298h.511v.51h-.51zM11.234 14.298h.51v.51h-.51zM11.745 14.298h.51v.51h-.51zM12.255 14.298h.511v.51h-.51z"/></g><g><path fill="#fa2f00" d="M12.766 14.298h.51v.51h-.51z"/><path fill="#dd2400" d="M13.277 14.298h.51v.51h-.51z"/><path fill="#c71b00" d="M13.787 14.298h.51v.51h-.51z"/><path fill="#bd1700" d="M14.298 14.298h.51v.51h-.51z"/><path fill="#bf1800" d="M14.809 14.298h.51v.51h-.51z"/><path fill="#ce1e00" d="M15.32 14.298h.51v.51h-.51z"/><path fill="#ea2900" d="M15.83 14.298h.51v.51h-.51z"/><path fill="#fe3100" d="M16.34 14.298h.511v.51h-.51z"/></g><g fill="#ff3100"><path d="M16.851 14.298h.51v.51h-.51zM17.362 14.298h.51v.51h-.51zM17.872 14.298h.511v.51h-.51zM18.383 14.298h.51v.51h-.51zM18.894 14.298h.51v.51h-.51zM19.404 14.298h.511v.51h-.51zM19.915 14.298h.51v.51h-.51zM20.426 14.298h.51v.51h-.51zM20.936 14.298h.51v.51h-.51z"/></g><g><path fill="#cc1d00" d="M21.447 14.298h.51v.51h-.51z"/><path fill="#830003" d="M21.958 14.298h.51v.51h-.51z"/><path fill="#a00" d="M22.468 14.298h.51v.51h-.51z"/><path fill="#960017" d="M5.106 14.809h.511v.51h-.51z"/><path fill="#850005" d="M5.617 14.809h.51v.51h-.51z"/><path fill="#b31200" d="M6.128 14.809h.51v.51h-.51z"/><path fill="#fe2e00" d="M6.638 14.809h.511v.51h-.51z"/></g><g fill="#ff2e00"><path d="M7.149 14.809h.51v.51h-.51zM7.66 14.809h.51v.51h-.51zM8.17 14.809h.51v.51h-.51zM8.68 14.809h.512v.51H8.68zM9.192 14.809h.51v.51h-.51zM9.702 14.809h.51v.51h-.51zM10.213 14.809h.51v.51h-.51zM10.723 14.809h.511v.51h-.51zM11.234 14.809h.51v.51h-.51zM11.745 14.809h.51v.51h-.51zM12.255 14.809h.511v.51h-.51zM12.766 14.809h.51v.51h-.51zM13.277 14.809h.51v.51h-.51zM13.787 14.809h.51v.51h-.51zM14.298 14.809h.51v.51h-.51zM14.809 14.809h.51v.51h-.51zM15.32 14.809h.51v.51h-.51zM15.83 14.809h.51v.51h-.51zM16.34 14.809h.511v.51h-.51zM16.851 14.809h.51v.51h-.51zM17.362 14.809h.51v.51h-.51zM17.872 14.809h.511v.51h-.51zM18.383 14.809h.51v.51h-.51zM18.894 14.809h.51v.51h-.51zM19.404 14.809h.511v.51h-.51zM19.915 14.809h.51v.51h-.51zM20.426 14.809h.51v.51h-.51z"/></g><g><path fill="#e12300" d="M20.936 14.809h.51v.51h-.51z"/><path fill="#810001" d="M21.447 14.809h.51v.51h-.51z"/><path fill="#880006" d="M21.958 14.809h.51v.51h-.51z"/><path fill="#960017" d="M4.596 15.32h.51v.51h-.51z"/><path fill="#850005" d="M5.106 15.32h.511v.51h-.51z"/><path fill="#b31100" d="M5.617 15.32h.51v.51h-.51z"/><path fill="#fe2b00" d="M6.128 15.32h.51v.51h-.51z"/></g><g fill="#ff2b00"><path d="M6.638 15.32h.511v.51h-.51zM7.149 15.32h.51v.51h-.51zM7.66 15.32h.51v.51h-.51zM8.17 15.32h.51v.51h-.51z"/></g><path fill="#ff2a00" d="M8.681 15.319h.511v.511h-.511z"/><g fill="#ff2b00"><path d="M9.192 15.32h.51v.51h-.51zM9.702 15.32h.51v.51h-.51zM10.213 15.32h.51v.51h-.51zM10.723 15.32h.511v.51h-.51zM11.234 15.32h.51v.51h-.51zM11.745 15.32h.51v.51h-.51zM12.255 15.32h.511v.51h-.51zM12.766 15.32h.51v.51h-.51zM13.277 15.32h.51v.51h-.51zM13.787 15.32h.51v.51h-.51zM14.298 15.32h.51v.51h-.51zM14.809 15.32h.51v.51h-.51zM15.32 15.32h.51v.51h-.51zM15.83 15.32h.51v.51h-.51zM16.34 15.32h.511v.51h-.51zM16.851 15.32h.51v.51h-.51zM17.362 15.32h.51v.51h-.51zM17.872 15.32h.511v.51h-.51zM18.383 15.32h.51v.51h-.51zM18.894 15.32h.51v.51h-.51zM19.404 15.32h.511v.51h-.51zM19.915 15.32h.51v.51h-.51z"/></g><g><path fill="#e42200" d="M20.426 15.32h.51v.51h-.51z"/><path fill="#810001" d="M20.936 15.32h.51v.51h-.51z"/><path fill="#890008" d="M21.447 15.32h.51v.51h-.51z"/><path fill="#960017" d="M4.085 15.83h.51v.51h-.51z"/><path fill="#850005" d="M4.596 15.83h.51v.51h-.51z"/><path fill="#b31000" d="M5.106 15.83h.511v.51h-.51z"/><path fill="#fe2900" d="M5.617 15.83h.51v.51h-.51z"/></g><g fill="#ff2900"><path d="M6.128 15.83h.51v.51h-.51zM6.638 15.83h.511v.51h-.51zM7.149 15.83h.51v.51h-.51zM7.66 15.83h.51v.51h-.51zM8.17 15.83h.51v.51h-.51zM8.68 15.83h.512v.51H8.68zM9.192 15.83h.51v.51h-.51zM9.702 15.83h.51v.51h-.51zM10.213 15.83h.51v.51h-.51zM10.723 15.83h.511v.51h-.51zM11.234 15.83h.51v.51h-.51zM11.745 15.83h.51v.51h-.51zM12.255 15.83h.511v.51h-.51zM12.766 15.83h.51v.51h-.51zM13.277 15.83h.51v.51h-.51zM13.787 15.83h.51v.51h-.51zM14.298 15.83h.51v.51h-.51zM14.809 15.83h.51v.51h-.51zM15.32 15.83h.51v.51h-.51zM15.83 15.83h.51v.51h-.51z"/></g><path fill="#ff2901" d="M16.34 15.83h.511v.511h-.511z"/><g fill="#ff2900"><path d="M16.851 15.83h.51v.51h-.51zM17.362 15.83h.51v.51h-.51zM17.872 15.83h.511v.51h-.51zM18.383 15.83h.51v.51h-.51zM18.894 15.83h.51v.51h-.51zM19.404 15.83h.511v.51h-.51z"/></g><g><path fill="#d71c00" d="M19.915 15.83h.51v.51h-.51z"/><path fill="#810001" d="M20.426 15.83h.51v.51h-.51z"/><path fill="#880009" d="M20.936 15.83h.51v.51h-.51z"/><path fill="#960017" d="M3.574 16.34h.511v.511h-.51z"/><path fill="#850005" d="M4.085 16.34h.51v.511h-.51z"/><path fill="#b30f00" d="M4.596 16.34h.51v.511h-.51z"/><path fill="#fe2600" d="M5.106 16.34h.511v.511h-.51z"/></g><g fill="#ff2600"><path d="M5.617 16.34h.51v.511h-.51zM6.128 16.34h.51v.511h-.51zM6.638 16.34h.511v.511h-.51zM7.149 16.34h.51v.511h-.51zM7.66 16.34h.51v.511h-.51zM8.17 16.34h.51v.511h-.51zM8.68 16.34h.512v.511H8.68zM9.192 16.34h.51v.511h-.51zM9.702 16.34h.51v.511h-.51zM10.213 16.34h.51v.511h-.51zM10.723 16.34h.511v.511h-.51zM11.234 16.34h.51v.511h-.51zM11.745 16.34h.51v.511h-.51zM12.255 16.34h.511v.511h-.51zM12.766 16.34h.51v.511h-.51zM13.277 16.34h.51v.511h-.51zM13.787 16.34h.51v.511h-.51zM14.298 16.34h.51v.511h-.51zM14.809 16.34h.51v.511h-.51zM15.32 16.34h.51v.511h-.51zM15.83 16.34h.51v.511h-.51zM16.34 16.34h.511v.511h-.51zM16.851 16.34h.51v.511h-.51zM17.362 16.34h.51v.511h-.51zM17.872 16.34h.511v.511h-.51zM18.383 16.34h.51v.511h-.51z"/></g><g><path fill="#f92500" d="M18.894 16.34h.51v.511h-.51z"/><path fill="#b61100" d="M19.404 16.34h.511v.511h-.51z"/><path fill="#830003" d="M19.915 16.34h.51v.511h-.51z"/><path fill="#89000a" d="M20.426 16.34h.51v.511h-.51z"/><path fill="#960017" d="M3.064 16.851h.51v.51h-.51z"/><path fill="#850005" d="M3.574 16.851h.511v.51h-.51z"/><path fill="#b30e00" d="M4.085 16.851h.51v.51h-.51z"/></g><g fill="#ff2300"><path d="M4.596 16.851h.51v.51h-.51zM5.106 16.851h.511v.51h-.51zM5.617 16.851h.51v.51h-.51zM6.128 16.851h.51v.51h-.51zM6.638 16.851h.511v.51h-.51zM7.149 16.851h.51v.51h-.51zM7.66 16.851h.51v.51h-.51zM8.17 16.851h.51v.51h-.51z"/></g><g><path fill="#fe2300" d="M8.68 16.851h.512v.51H8.68z"/><path fill="#c01200" d="M9.192 16.851h.51v.51h-.51z"/><path fill="#8f0400" d="M9.702 16.851h.51v.51h-.51z"/><path fill="#a70b00" d="M10.213 16.851h.51v.51h-.51z"/><path fill="#e51c00" d="M10.723 16.851h.511v.51h-.51z"/></g><g fill="#ff2300"><path d="M11.234 16.851h.51v.51h-.51zM11.745 16.851h.51v.51h-.51zM12.255 16.851h.511v.51h-.51zM12.766 16.851h.51v.51h-.51zM13.277 16.851h.51v.51h-.51zM13.787 16.851h.51v.51h-.51zM14.298 16.851h.51v.51h-.51zM14.809 16.851h.51v.51h-.51zM15.32 16.851h.51v.51h-.51zM15.83 16.851h.51v.51h-.51zM16.34 16.851h.511v.51h-.51zM16.851 16.851h.51v.51h-.51zM17.362 16.851h.51v.51h-.51z"/></g><g><path fill="#fb2300" d="M17.872 16.851h.511v.51h-.51z"/><path fill="#cd1600" d="M18.383 16.851h.51v.51h-.51z"/><path fill="maroon" d="M18.894 16.851h.51v.51h-.51z"/><path fill="#860007" d="M19.404 16.851h.511v.51h-.51z"/><path fill="#8b000b" d="M19.915 16.851h.51v.51h-.51z"/><path fill="#960017" d="M2.553 17.362h.51v.51h-.51z"/><path fill="#850005" d="M3.064 17.362h.51v.51h-.51z"/><path fill="#b30d00" d="M3.574 17.362h.511v.51h-.51z"/><path fill="#fe2100" d="M4.085 17.362h.51v.51h-.51z"/></g><g fill="#ff2100"><path d="M4.596 17.362h.51v.51h-.51zM5.106 17.362h.511v.51h-.51zM5.617 17.362h.51v.51h-.51zM6.128 17.362h.51v.51h-.51zM6.638 17.362h.511v.51h-.51zM7.149 17.362h.51v.51h-.51zM7.66 17.362h.51v.51h-.51z"/></g><g><path fill="#fe2100" d="M8.17 17.362h.51v.51h-.51z"/><path fill="#b70e00" d="M8.68 17.362h.512v.51H8.68z"/><path fill="#850005" d="M9.192 17.362h.51v.51h-.51z"/><path fill="#930013" d="M9.702 17.362h.51v.51h-.51z"/><path fill="#8c000c" d="M10.213 17.362h.51v.51h-.51z"/><path fill="#830203" d="M10.723 17.362h.511v.51h-.51z"/><path fill="#9c0700" d="M11.234 17.362h.51v.51h-.51z"/><path fill="#ca1300" d="M11.745 17.362h.51v.51h-.51z"/><path fill="#ef1d00" d="M12.255 17.362h.511v.51h-.51z"/></g><g fill="#ff2100"><path d="M12.766 17.362h.51v.51h-.51zM13.277 17.362h.51v.51h-.51zM13.787 17.362h.51v.51h-.51zM14.298 17.362h.51v.51h-.51zM14.809 17.362h.51v.51h-.51zM15.32 17.362h.51v.51h-.51zM15.83 17.362h.51v.51h-.51z"/></g><g><path fill="#fc2000" d="M16.34 17.362h.511v.51h-.51z"/><path fill="#e11900" d="M16.851 17.362h.51v.51h-.51z"/><path fill="#b90f00" d="M17.362 17.362h.51v.51h-.51z"/><path fill="maroon" d="M17.872 17.362h.511v.51h-.51z"/><path fill="#860006" d="M18.383 17.362h.51v.51h-.51z"/><path fill="#8d000d" d="M18.894 17.362h.51v.51h-.51z"/><path fill="#960017" d="M2.043 17.872h.51v.511h-.51z"/><path fill="#850005" d="M2.553 17.872h.51v.511h-.51z"/><path fill="#b20c00" d="M3.064 17.872h.51v.511h-.51z"/><path fill="#fe1e00" d="M3.574 17.872h.511v.511h-.51z"/></g><g fill="#ff1e00"><path d="M4.085 17.872h.51v.511h-.51zM4.596 17.872h.51v.511h-.51zM5.106 17.872h.511v.511h-.51zM5.617 17.872h.51v.511h-.51zM6.128 17.872h.51v.511h-.51zM6.638 17.872h.511v.511h-.51zM7.149 17.872h.51v.511h-.51z"/></g><g><path fill="#fe1e00" d="M7.66 17.872h.51v.511h-.51z"/><path fill="#b70d00" d="M8.17 17.872h.51v.511h-.51z"/><path fill="#850005" d="M8.68 17.872h.512v.511H8.68z"/><path fill="#940011" d="M9.192 17.872h.51v.511h-.51z"/><path fill="#990016" d="M10.723 17.872h.511v.511h-.51z"/><path fill="#8d000f" d="M11.234 17.872h.51v.511h-.51z"/><path fill="#880009" d="M11.745 17.872h.51v.511h-.51z"/><path fill="#830003" d="M12.255 17.872h.511v.511h-.51z"/><path fill="#8e0603" d="M12.766 17.872h.51v.511h-.51z"/><path fill="#a20800" d="M13.277 17.872h.51v.511h-.51z"/><path fill="#af0b00" d="M13.787 17.872h.51v.511h-.51z"/><path fill="#b50d00" d="M14.298 17.872h.51v.511h-.51z"/><path fill="#b30c00" d="M14.809 17.872h.51v.511h-.51z"/><path fill="#ab0a00" d="M15.32 17.872h.51v.511h-.51z"/><path fill="#9a0600" d="M15.83 17.872h.51v.511h-.51z"/><path fill="#830606" d="M16.34 17.872h.511v.511h-.51z"/><path fill="#850005" d="M16.851 17.872h.51v.511h-.51z"/><path fill="#890009" d="M17.362 17.872h.51v.511h-.51z"/><path fill="#8f0010" d="M17.872 17.872h.511v.511h-.51z"/><path fill="#960017" d="M1.532 18.383h.51v.51h-.51z"/><path fill="#850005" d="M2.043 18.383h.51v.51h-.51z"/><path fill="#b20a00" d="M2.553 18.383h.51v.51h-.51z"/><path fill="#fe1b01" d="M3.064 18.383h.51v.51h-.51z"/></g><g fill="#ff1b00"><path d="M3.574 18.383h.511v.51h-.51zM4.085 18.383h.51v.51h-.51zM4.596 18.383h.51v.51h-.51zM5.106 18.383h.511v.51h-.51zM5.617 18.383h.51v.51h-.51zM6.128 18.383h.51v.51h-.51zM6.638 18.383h.511v.51h-.51z"/></g><g><path fill="#fe1b00" d="M7.149 18.383h.51v.51h-.51z"/><path fill="#b70c00" d="M7.66 18.383h.51v.51h-.51z"/><path fill="#850005" d="M8.17 18.383h.51v.51h-.51z"/><path fill="#900011" d="M8.68 18.383h.512v.51H8.68z"/><path fill="#9a0017" d="M12.255 18.383h.511v.51h-.51z"/><path fill="#920014" d="M12.766 18.383h.51v.51h-.51z"/><path fill="#8e000e" d="M13.277 18.383h.51v.51h-.51z"/><path fill="#8c000c" d="M13.787 18.383h.51v.51h-.51zM14.298 18.383h.51v.51h-.51z"/><path fill="#8b000b" d="M14.809 18.383h.51v.51h-.51z"/><path fill="#8b000c" d="M15.32 18.383h.51v.51h-.51z"/><path fill="#8e000e" d="M15.83 18.383h.51v.51h-.51z"/><path fill="#950016" d="M16.34 18.383h.511v.51h-.51z"/><path fill="#a42100" d="M16.851 18.383h.51v.51h-.51z"/><path fill="#960017" d="M1.021 18.894h.51v.51h-.51z"/><path fill="#850005" d="M1.532 18.894h.51v.51h-.51z"/><path fill="#b20900" d="M2.043 18.894h.51v.51h-.51z"/><path fill="#fe1900" d="M2.553 18.894h.51v.51h-.51z"/></g><g fill="#ff1900"><path d="M3.064 18.894h.51v.51h-.51zM3.574 18.894h.511v.51h-.51zM4.085 18.894h.51v.51h-.51zM4.596 18.894h.51v.51h-.51zM5.106 18.894h.511v.51h-.51zM5.617 18.894h.51v.51h-.51zM6.128 18.894h.51v.51h-.51z"/></g><g><path fill="#fe1900" d="M6.638 18.894h.511v.51h-.51z"/><path fill="#b70b00" d="M7.149 18.894h.51v.51h-.51z"/><path fill="#850004" d="M7.66 18.894h.51v.51h-.51z"/><path fill="#900011" d="M8.17 18.894h.51v.51h-.51z"/><path fill="#910000" d="M.51 19.404h.511v.511h-.51z"/><path fill="#840005" d="M1.021 19.404h.51v.511h-.51z"/><path fill="#b20800" d="M1.532 19.404h.51v.511h-.51z"/><path fill="#fe1600" d="M2.043 19.404h.51v.511h-.51z"/></g><g fill="#ff1600"><path d="M2.553 19.404h.51v.511h-.51zM3.064 19.404h.51v.511h-.51zM3.574 19.404h.511v.511h-.51zM4.085 19.404h.51v.511h-.51zM4.596 19.404h.51v.511h-.51zM5.106 19.404h.511v.511h-.51zM5.617 19.404h.51v.511h-.51z"/></g><g><path fill="#fe1600" d="M6.128 19.404h.51v.511h-.51z"/><path fill="#b70a00" d="M6.638 19.404h.511v.511h-.51z"/><path fill="#850005" d="M7.149 19.404h.51v.511h-.51z"/><path fill="#900011" d="M7.66 19.404h.51v.511h-.51z"/><path fill="#840004" d="M.51 19.915h.511v.51h-.51z"/><path fill="#ac0600" d="M1.021 19.915h.51v.51h-.51z"/><path fill="#fe1300" d="M1.532 19.915h.51v.51h-.51z"/></g><g fill="#ff1300"><path d="M2.043 19.915h.51v.51h-.51zM2.553 19.915h.51v.51h-.51zM3.064 19.915h.51v.51h-.51zM3.574 19.915h.511v.51h-.51zM4.085 19.915h.51v.51h-.51zM4.596 19.915h.51v.51h-.51zM5.106 19.915h.511v.51h-.51z"/></g><g><path fill="#fe1300" d="M5.617 19.915h.51v.51h-.51z"/><path fill="#b70800" d="M6.128 19.915h.51v.51h-.51z"/><path fill="#850005" d="M6.638 19.915h.511v.51h-.51z"/><path fill="#930011" d="M7.149 19.915h.51v.51h-.51z"/><path fill="#810001" d="M.51 20.426h.511v.51h-.51z"/><path fill="#f00f00" d="M1.021 20.426h.51v.51h-.51z"/></g><g fill="#f10"><path d="M1.532 20.426h.51v.51h-.51zM2.043 20.426h.51v.51h-.51zM2.553 20.426h.51v.51h-.51zM3.064 20.426h.51v.51h-.51zM3.574 20.426h.511v.51h-.51zM4.085 20.426h.51v.51h-.51zM4.596 20.426h.51v.51h-.51zM5.106 20.426h.511v.51h-.51z"/></g><g><path fill="#b70700" d="M5.617 20.426h.51v.51h-.51z"/><path fill="#850005" d="M6.128 20.426h.51v.51h-.51z"/><path fill="#930011" d="M6.638 20.426h.511v.51h-.51z"/><path fill="#8b0000" d="M0 20.936h.51v.51H0zM0 20.426h.51v.51H0z"/><path fill="#800" d="M.51 20.936h.511v.51h-.51z"/></g><g fill="#ff0e00"><path d="M1.021 20.936h.51v.51h-.51zM1.532 20.936h.51v.51h-.51zM2.043 20.936h.51v.51h-.51zM2.553 20.936h.51v.51h-.51zM3.064 20.936h.51v.51h-.51zM3.574 20.936h.511v.51h-.51zM4.085 20.936h.51v.51h-.51z"/></g><g><path fill="#fe0e00" d="M4.596 20.936h.51v.51h-.51z"/><path fill="#b70600" d="M5.106 20.936h.511v.51h-.51z"/><path fill="#850005" d="M5.617 20.936h.51v.51h-.51z"/><path fill="#900011" d="M6.128 20.936h.51v.51h-.51z"/><path fill="maroon" d="M.51 21.447h.511v.51h-.51z"/><path fill="#f70b00" d="M1.021 21.447h.51v.51h-.51z"/></g><g fill="#ff0b00"><path d="M1.532 21.447h.51v.51h-.51zM2.043 21.447h.51v.51h-.51zM2.553 21.447h.51v.51h-.51zM3.064 21.447h.51v.51h-.51zM3.574 21.447h.511v.51h-.51z"/></g><g><path fill="#fe0b00" d="M4.085 21.447h.51v.51h-.51z"/><path fill="#b70500" d="M4.596 21.447h.51v.51h-.51z"/><path fill="#850005" d="M5.106 21.447h.511v.51h-.51z"/><path fill="#930011" d="M5.617 21.447h.51v.51h-.51z"/><path fill="maroon" d="M.51 21.958h.511v.51h-.51z"/><path fill="#bf0400" d="M1.021 21.958h.51v.51h-.51z"/></g><g fill="#ff0900"><path d="M1.532 21.958h.51v.51h-.51zM2.043 21.958h.51v.51h-.51zM2.553 21.958h.51v.51h-.51zM3.064 21.958h.51v.51h-.51z"/></g><g><path fill="#fe0900" d="M3.574 21.958h.511v.51h-.51z"/><path fill="#b70400" d="M4.085 21.958h.51v.51h-.51z"/><path fill="#850005" d="M4.596 21.958h.51v.51h-.51z"/><path fill="#930011" d="M5.106 21.958h.511v.51h-.51z"/><path fill="#850000" d="M.51 22.468h.511v.51h-.51z"/><path fill="maroon" d="M1.021 22.468h.51v.51h-.51z"/><path fill="#bf0300" d="M1.532 22.468h.51v.51h-.51z"/><path fill="#f70600" d="M2.043 22.468h.51v.51h-.51z"/><path fill="#ff0600" d="M2.553 22.468h.51v.51h-.51z"/><path fill="#f10600" d="M3.064 22.468h.51v.51h-.51z"/><path fill="#ae0200" d="M3.574 22.468h.511v.51h-.51z"/><path fill="#850005" d="M4.085 22.468h.51v.51h-.51z"/><path fill="#900011" d="M4.596 22.468h.51v.51h-.51z"/><path fill="#850000" d="M1.021 22.979h.51v.51h-.51z"/><path fill="maroon" d="M1.532 22.979h.51v.51h-.51zM2.043 22.979h.51v.51h-.51z"/><path fill="#890000" d="M2.553 22.979h.51v.51h-.51z"/><path fill="#810001" d="M3.064 22.979h.51v.51h-.51z"/><path fill="#860007" d="M3.574 22.979h.511v.51h-.51z"/><path fill="#9c0013" d="M4.085 22.979h.51v.51h-.51z"/><path fill="#881800" d="M2.043 23.49h.51V24h-.51z"/><path fill="#8d0000" d="M2.553 23.49h.51V24h-.51z"/><path fill="#8b0000" d="M0 19.915h.51v.51H0z"/></g></g></svg>