<svg viewBox="0 0 24 24" xmlns="http://www.w3.org/2000/svg"><defs><radialGradient id="a" cx="-122.39" cy="442.72" gradientTransform="matrix(.3912 0 0 -.41094 52.596 186.455)" gradientUnits="userSpaceOnUse" r="29.58"><stop offset="0" stop-color="#fff"/><stop offset="1" stop-color="#007808"/></radialGradient></defs><path d="M.2 5.08V2.088l1.913.692v2.786zM1.743 17.39V6.257l1.829.406V17.01z" fill="#0b4819" style="stroke-width:.400944"/><path d="m10.688 2.082-4.7 5.663v2.41l6.97-8.258L24 1 7.759 18.782l2.162.12L21.717 6.227v11.98l-1.31 1.294 3.323.188v3.316l-10.425-.848 5.315-5.416v-2.67l-7.598 7.9-9.098-.74L16.517 4.747l-2.402.137L3.572 17.01V6.663l.998-1.238-2.457.14V2.779z" fill="#105c80" style="stroke-width:.400944"/><path d="M1.743 6.257 2.8 4.919l1.77.506-1 1.238z" fill="#0b4819" style="stroke-width:.400944"/><path d="m4.305 7.413 1.683.332v2.41l-1.683-.145z" fill="#084010" style="stroke-width:.400944"/><path d="m6.189 19.317 1.57-.535 2.162.12-1.427.554z" fill="#0c541e" style="stroke-width:.400944"/><path d="m9.313 1.276 1.375.806-4.7 5.663-1.683-.332z" fill="#1a5c34" style="stroke-width:.400944"/><path d="m4.305 10.01 7.44-8.95 1.214.837-6.971 8.257z" fill="#0b4819" style="stroke-width:.400944"/><path d="m12.986 4.287 1.13.596L3.571 17.01l-1.83.38z" fill="#1a5c34" style="stroke-width:.400944"/><path d="M0 21.921 15.569 4.127l.948.62L1.924 21.231z" fill="#0b4819" style="stroke-width:.400944"/><path d="m17.837 14.25.783-.178-7.598 7.899-1.351.81z" fill="#1a5c34" style="stroke-width:.400944"/><path d="M17.837 17.151v-2.9l.783-.18v2.67z" fill="#0b4819" style="stroke-width:.400944"/><path d="m12.116 22.998 5.721-5.847.783-.41-5.315 5.416z" fill="#0b4819" style="stroke-width:.400944"/><path d="m21.19 18.758-1.42 1.402.637-.66 1.31-1.293z" fill="#13802d" style="stroke-width:.400944"/><path d="M8.494 19.456 21.19 5.712l.527.515L9.921 18.902z" fill="#0b4819" style="stroke-width:.400944"/><path d="m21.19 5.712.527.515v11.98l-.527.551zM23.377 20.384l.353-.695v3.316l-.353.995z" fill="#084010" style="stroke-width:.400944"/><path d="M23.67 0 24 1 7.759 18.781l-1.57.535z" fill="#1a5c34" style="stroke-width:.400944"/><path d="M9.313 1.276 4.305 7.413v2.597l7.44-8.95L23.67 0 6.189 19.317l2.305.14L21.19 5.711v13.046l-1.42 1.402 3.607.224V24l-11.26-1.002 5.72-5.847v-2.9l-8.166 8.53L0 21.921 15.569 4.127l-2.583.16L1.743 17.39V6.257L2.8 4.919.2 5.081V2.087z" fill="url(#a)" style="fill:url(#a);stroke-width:.400944"/></svg>