<svg version="1.1" viewBox="0 0 24 24" xmlns="http://www.w3.org/2000/svg"><path d="m21.709 7.5135-10.309-0.51351h12.6v-1h-14.236v3.7838c0 0.02703-0.40909-2.4595-0.51818-3.1622h-1.1182v3.5135c0 0.02703-0.49091-2.9459-0.51818-3.3243h-7.6091c0.51818 0.43243 3.3818 2.8649 5.4273 3.8649 1.0091 0.48649 2.2636 0.51351 3.3818 0.54054 0.57273 0.02703 1.1455 0.05405 1.5818 0.48649 0.62727 0.59459 0.76364 1.5405 0.21818 2.2432-0.51818 0.7027-1.9909 0.86486-1.9909 0.86486l-1.2545 1.4595v1.7297h2.8091l0.08182-1.7027 2.4273-1.7027c-0.24545 0.21622-0.84546 0.75676-1.6909 2.0811-0.19091 0.2973-0.35454 0.62162-0.46364 0.94595 0.6-0.51351 1.8545-0.86486 3.3273-0.86486 1.4455 0 2.7 0.35135 3.3 0.86486-0.10909-0.32432-0.27273-0.64865-0.46364-0.94595-0.87273-1.3243-1.4455-1.8649-1.6909-2.0811l2.4273 1.7027 0.08182 1.7027h2.6182v-1.7297l-1.2273-1.4865s-1.8273-0.10811-2.2909-0.86486c-1.4182-2.1081 0.51818-5.4054 5.1-6.4054z" stroke-width=".2715"/></svg>
