<?xml version="1.0" encoding="UTF-8" standalone="no"?>
<svg xmlns:dc="http://purl.org/dc/elements/1.1/" xmlns:cc="http://creativecommons.org/ns#" xmlns:rdf="http://www.w3.org/1999/02/22-rdf-syntax-ns#" xmlns:svg="http://www.w3.org/2000/svg" xmlns="http://www.w3.org/2000/svg" xmlns:sodipodi="http://sodipodi.sourceforge.net/DTD/sodipodi-0.dtd" xmlns:inkscape="http://www.inkscape.org/namespaces/inkscape" sodipodi:docname="Intel.svg" inkscape:version="1.0 (4035a4fb49, 2020-05-01)" viewBox="0 0 1004.988 662.72901" height="662.729" width="1004.988" id="svg4419" version="1.1">
  <sodipodi:namedview inkscape:document-rotation="0" inkscape:current-layer="g4421" inkscape:window-maximized="1" inkscape:window-y="-8" inkscape:window-x="-8" inkscape:cy="442.81071" inkscape:cx="374.06471" inkscape:zoom="0.5" showgrid="false" id="namedview8" inkscape:window-height="1009" inkscape:window-width="1920" inkscape:pageshadow="2" inkscape:pageopacity="0" guidetolerance="10" gridtolerance="10" objecttolerance="10" borderopacity="1" bordercolor="#666666" pagecolor="#ffffff"/>
  <metadata id="metadata4431">
    <rdf:RDF>
      <cc:Work rdf:about="">
        <dc:format>image/svg+xml</dc:format>
        <dc:type rdf:resource="http://purl.org/dc/dcmitype/StillImage"/>
        <dc:title/>
      </cc:Work>
    </rdf:RDF>
  </metadata>
  <defs id="defs4429"/>
  <g transform="matrix(3.3724426,0,0,3.3724426,-3.3724432,-3.3728222)" id="g4421">
    <path inkscape:connector-curvature="0" d="m 88.79854,84.35368 v 48.12215 H 73.47991 v -60.4873 l 31.62545,0.0314 c 13.43261,0 18.00847,9.47252 18.00847,18.07669 v 42.37928 h -15.29098 v -42.3 c 0,-3.60428 -1.86574,-5.82215 -6.36602,-5.82215 H 88.79854 Z m 104.16449,-0.7227 c -5.23588,0 -9.28815,2.69169 -10.9806,6.34574 -1.00293,2.19391 -1.34768,3.87529 -1.46567,6.56144 h 23.56698 c -0.30235,-6.56144 -3.27795,-12.90718 -11.12071,-12.90718 m -12.44627,23.33285 c 0,7.83538 4.87084,13.60222 13.56719,13.60222 6.76608,0 10.12884,-1.87496 14.041,-5.76684 l 9.46146,9.03373 c -6.05813,5.98071 -12.41493,9.61264 -23.61492,9.61264 -14.66415,0 -28.69778,-7.99578 -28.69778,-31.29913 0,-19.91109 12.2527,-31.18297 28.35302,-31.18297 16.31972,0 25.74799,13.19662 25.74799,30.4824 v 5.51795 h -38.85796 m -28.17419,25.43641 c -12.47946,0 -17.77434,-8.68713 -17.77434,-17.26733 V 55.50842 h 15.29467 v 16.48011 h 11.52999 V 84.35368 H 149.8629 v 29.82054 c 0,3.51394 1.65926,5.46449 5.30778,5.46449 h 6.22221 v 12.76153 h -9.05032 M 59.85003,63.62956 H 44.42632 V 48.97832 h 15.42371 z m 0.0388,69.48232 C 48.33856,132.00202 44.40981,124.99627 44.40981,116.912 l 0.0167,-44.92347 h 15.46244 v 61.12335 z m 183.82912,-1.29238 c -11.52631,-1.1117 -15.43662,-8.10639 -15.43662,-16.1796 V 46.89318 h 15.43662 z M 297.68253,56.82845 C 283.69314,-11.37625 151.29731,-15.694 65.95986,36.25734 v 5.7355 c 85.2508,-43.81176 206.15719,-43.55366 217.17282,19.26582 3.68539,20.77206 -8.01975,42.42906 -28.92455,54.87717 v 16.28654 c 25.16172,-9.20519 50.96686,-39.05523 43.47439,-75.59392 M 142.55855,176.16037 C 83.66229,181.60458 22.28821,173.05572 13.70063,127.03347 9.49718,104.34589 19.83251,80.29588 33.54351,65.35703 v -7.9884 c -24.68238,21.64409 -38.07812,49.0458 -30.36626,81.42344 9.84309,41.51829 62.51713,65.04656 142.91552,57.2333 31.80981,-3.10465 73.44426,-13.33305 102.38908,-29.21952 v -22.56957 c -26.2642,15.63941 -69.72568,28.57239 -105.9233,31.92409" id="path4423"/>
  </g>
<script xmlns=""/></svg>