<svg xmlns="http://www.w3.org/2000/svg" width="1004.988" height="662.729"><path d="M296.096 281.105v162.29h-51.662v-203.99l106.655.105c45.301 0 60.733 31.946 60.733 60.963v142.922h-51.568V300.74c0-12.155-6.292-19.635-21.47-19.635zm351.288-2.437c-17.657 0-31.323 9.077-37.031 21.4-3.382 7.4-4.545 13.07-4.943 22.129h79.478c-1.02-22.128-11.054-43.53-37.504-43.53m-41.974 78.69c0 26.424 16.427 45.872 45.755 45.872 22.818 0 34.158-6.323 47.352-19.448l31.908 30.466c-20.43 20.17-41.868 32.418-79.64 32.418-49.454 0-96.781-26.966-96.781-105.555 0-67.149 41.321-105.163 95.619-105.163 55.037 0 86.833 44.505 86.833 102.8v18.61zm-95.016 85.782c-42.086 0-59.943-29.296-59.943-58.233v-201.08h51.58v55.578h38.885v41.701h-38.884v100.568c0 11.85 5.595 18.429 17.9 18.429h20.984v43.037zM198.468 211.214h-52.015v-49.41h52.015zm.131 234.325c-38.952-3.743-52.202-27.37-52.202-54.633l.056-151.502H198.6zm619.953-4.358c-38.871-3.75-52.059-27.338-52.059-54.565V154.772h52.06zm181.993-252.903C953.366-41.74 506.869-56.3 219.073 118.903v19.343C506.577-9.507 914.327-8.637 951.476 203.218c12.429 70.053-27.046 143.09-97.546 185.07v54.926c84.856-31.044 171.883-131.712 146.615-254.936m-523.147 402.44c-198.624 18.36-405.605-10.47-434.566-165.678-14.176-76.512 20.68-157.62 66.92-208V190.1C26.511 263.093-18.666 355.504 7.341 464.695c33.196 140.019 210.836 219.366 481.975 193.016 107.277-10.47 247.687-44.964 345.301-98.54v-76.115c-88.574 52.743-235.146 96.358-357.22 107.662"/><script/></svg>