<svg xmlns="http://www.w3.org/2000/svg" xml:space="preserve" viewBox="0 0 512 512"><circle cx="256" cy="256" r="256" style="fill:#14b0bf"/><path d="M437.018 437.018c59.699-59.699 83.722-141.548 72.12-219.09L401.833 109.86 96.691 163.666l8.771 49.731 2.463-.435.077.435h-2.54v168.397c0 6.38 3.036 12.032 7.67 15.77.916 1.137 112.067 112.067 112.579 112.579 75.202 8.907 153.599-15.418 211.307-73.125" style="fill:#3387b5"/><path d="M415.309 381.788c0 11.192-9.16 20.352-20.352 20.352H125.809c-11.192 0-20.352-9.16-20.352-20.352V233.743c0-11.192 9.16-20.352 20.352-20.352h269.148c11.192 0 20.352 9.16 20.352 20.352z" style="fill:#0f303f"/><path d="M105.462 213.396h309.862v50.499H105.462z" style="fill:#fff"/><path d="m156.001 220.314-36.874 37.366h37.366l36.874-37.366zm155.321 0-36.874 37.366h37.366l36.874-37.366zm-103.547 0L170.9 257.679h37.366l36.874-37.366h-37.365zm51.773 0-36.874 37.366h37.366l36.874-37.366zm103.547 0-36.874 37.366h37.366l36.874-37.366zm51.773 0-36.874 37.366h37.315v-37.366zm-309.406 0v37.366h.246l36.874-37.366z" style="fill:#0f303f"/><path d="M98.721 136.353h309.857v50.498H98.721z" style="fill:#fff" transform="rotate(-10.003 253.637 161.626)"/><path d="m316.467 131.937 42.803 30.397 36.797-6.487-42.803-30.397zm-152.965 26.967 42.803 30.397 36.797-6.487-42.802-30.397zm101.975-17.976 42.803 30.397 36.797-6.487-42.803-30.397zm-50.985 8.991 42.803 30.397 36.797-6.487-42.803-30.397zm-101.975 17.976 42.803 30.397 36.797-6.487-42.803-30.397zm-14.623 2.581 6.487 36.797 36.746-6.482-42.803-30.397zm268.585-47.36 42.803 30.397.241-.041-6.487-36.797z" style="fill:#0f303f"/><path d="M394.634 317.379h-.072v-36.552h-269.44v103.235h269.44V321.89h.072zm-4.137-32.482v32.481h-101.13v-32.481zm-105.641 0v32.481H177.05v-32.481zm-155.663 95.094v-95.094h43.341v95.094zm47.857 0v-58.102h107.807v58.102zm213.447 0h-101.13v-58.102h101.125v58.102z" style="fill:#fdc00f"/></svg>