<svg version="1.1" viewBox="0 0 24 24" xmlns="http://www.w3.org/2000/svg"><g id="full_color_reversed" transform="matrix(.32641 0 0 .32641 -.39169 5.3098)"><path id="flame" class="cls-1" d="m21.908 9.2571a51.46 51.46 0 0 1 9.3283 0.9546c2.9084 0.5369 5.8493 1.5476 8.8277 1.5384 2.276-7e-3 4.1162-1.5889 4.11-3.5334s-1.8559-3.5149-4.1319-3.5079a13.356 13.356 0 0 0-3.8961 0.647c0.3277-0.2425 0.6626-0.4753 1.0061-0.6949a26.136 26.136 0 0 1 15.037-3.634c5.616 0.2308 11.47 1.9781 15.764 5.6908a19.892 19.892 0 0 1 6.6209 17.822 19.746 19.746 0 0 1-12.127 15.075 23.995 23.995 0 0 1-14.45 0.5274c-6.2135-1.57-11.64-5.0474-17.485-7.5341a46.858 46.858 0 0 0-10.572-2.6793l0.0571 0.0015a8.9447 8.9447 0 0 0 4.1139-0.6975c1.7275-0.8285 1.7225-2.8315 0.8214-4.2928-1.0708-1.7366-3.2282-2.4456-5.0923-2.9507a24.362 24.362 0 0 0-9.9558-0.4889 15.064 15.064 0 0 0-6.8543 2.4348 5.667 5.667 0 0 0-1.8323 2.2266c3.0839-8.5391 9.2048-7.58 12.965-9.9211a2.1636 2.1636 0 0 0-1.571-3.9286 7.2439 7.2439 0 0 0-2.92 1.4607c-0.3188 0.2434-0.6028 0.4586-0.8571 0.6506-2e-4 0 3.0844-5.1668 13.092-5.1668z" fill="#07f"/><path id="flame_center" class="cls-2" d="m65.162 20.351a8.0007 8.0007 0 0 1-6.2352 9.4431c-7.9435 1.6228-17-4.9725-23.978-8.1948 11.839 0.718 15.278-6.3665 20.77-7.4835a8.0049 8.0049 0 0 1 9.4427 6.2352z" fill="#fff" data-name="flame center"/></g></svg>
