<svg xmlns="http://www.w3.org/2000/svg" xml:space="preserve" viewBox="0 0 24 24"><g shape-rendering="crispEdges"><path d="M14 0h1v1h-1zM15 0h1v1h-1zM16 0h1v1h-1zM17 0h1v1h-1zM18 0h1v1h-1zM19 0h1v1h-1zM20 0h1v1h-1zM21 0h1v1h-1zM22 0h1v1h-1zM23 0h1v1h-1zM24 0h1v1h-1zM25 0h1v1h-1zM26 0h1v1h-1zM27 0h1v1h-1zM28 0h1v1h-1zM29 0h1v1h-1z" style="opacity:1;fill:#747674" transform="scale(.75)"/><path d="M13 1h1v1h-1z" style="opacity:1;fill:#848684" transform="scale(.75)"/><path d="M14 1h1v1h-1zM15 1h1v1h-1zM16 1h1v1h-1zM17 1h1v1h-1zM18 1h1v1h-1zM19 1h1v1h-1zM20 1h1v1h-1zM21 1h1v1h-1zM22 1h1v1h-1zM23 1h1v1h-1zM24 1h1v1h-1zM25 1h1v1h-1zM26 1h1v1h-1zM27 1h1v1h-1z" style="opacity:1;fill:#fcfafc" transform="scale(.75)"/><path d="M29 1h1v1h-1z" style="opacity:1;fill:#848684" transform="scale(.75)"/><path d="M30 1h1v1h-1z" style="opacity:1;fill:#040204" transform="scale(.75)"/><path d="M13 2h1v1h-1z" style="opacity:1;fill:#848684" transform="scale(.75)"/><path d="M14 2h1v1h-1z" style="opacity:1;fill:#fcfafc" transform="scale(.75)"/><path d="M15 2h1v1h-1zM16 2h1v1h-1zM17 2h1v1h-1zM18 2h1v1h-1zM19 2h1v1h-1zM20 2h1v1h-1zM21 2h1v1h-1zM22 2h1v1h-1zM23 2h1v1h-1zM24 2h1v1h-1zM25 2h1v1h-1zM26 2h1v1h-1z" style="opacity:1;fill:#040284" transform="scale(.75)"/><path d="M27 2h1v1h-1z" style="opacity:1;fill:#fcfafc" transform="scale(.75)"/><path d="M29 2h1v1h-1z" style="opacity:1;fill:#848684" transform="scale(.75)"/><path d="M30 2h1v1h-1z" style="opacity:1;fill:#040204" transform="scale(.75)"/><path d="M13 3h1v1h-1z" style="opacity:1;fill:#848684" transform="scale(.75)"/><path d="M14 3h1v1h-1z" style="opacity:1;fill:#fcfafc" transform="scale(.75)"/><path d="M15 3h1v1h-1z" style="opacity:1;fill:#040284" transform="scale(.75)"/><path d="M16 3h1v1h-1zM17 3h1v1h-1zM18 3h1v1h-1z" style="opacity:1;fill:#64cefc" transform="scale(.75)"/><path d="M19 3h1v1h-1z" style="opacity:1;fill:#34fefc" transform="scale(.75)"/><path d="M20 3h1v1h-1z" style="opacity:1;fill:#ccfefc" transform="scale(.75)"/><path d="M21 3h1v1h-1z" style="opacity:1;fill:#34fefc" transform="scale(.75)"/><path d="M22 3h1v1h-1z" style="opacity:1;fill:#ccfefc" transform="scale(.75)"/><path d="M23 3h1v1h-1z" style="opacity:1;fill:#04fefc" transform="scale(.75)"/><path d="M24 3h1v1h-1zM25 3h1v1h-1z" style="opacity:1;fill:#64cefc" transform="scale(.75)"/><path d="M26 3h1v1h-1z" style="opacity:1;fill:#040284" transform="scale(.75)"/><path d="M27 3h1v1h-1z" style="opacity:1;fill:#fcfafc" transform="scale(.75)"/><path d="M29 3h1v1h-1z" style="opacity:1;fill:#848684" transform="scale(.75)"/><path d="M30 3h1v1h-1z" style="opacity:1;fill:#040204" transform="scale(.75)"/><path d="M13 4h1v1h-1z" style="opacity:1;fill:#848684" transform="scale(.75)"/><path d="M14 4h1v1h-1z" style="opacity:1;fill:#fcfafc" transform="scale(.75)"/><path d="M15 4h1v1h-1z" style="opacity:1;fill:#040284" transform="scale(.75)"/><path d="M16 4h1v1h-1zM17 4h1v1h-1z" style="opacity:1;fill:#64cefc" transform="scale(.75)"/><path d="M18 4h1v1h-1z" style="opacity:1;fill:#34fefc" transform="scale(.75)"/><path d="M19 4h1v1h-1z" style="opacity:1;fill:#ccfefc" transform="scale(.75)"/><path d="M20 4h1v1h-1z" style="opacity:1;fill:#34fefc" transform="scale(.75)"/><path d="M21 4h1v1h-1z" style="opacity:1;fill:#ccfefc" transform="scale(.75)"/><path d="M22 4h1v1h-1z" style="opacity:1;fill:#34fefc" transform="scale(.75)"/><path d="M23 4h1v1h-1zM24 4h1v1h-1z" style="opacity:1;fill:#64cefc" transform="scale(.75)"/><path d="M25 4h1v1h-1z" style="opacity:1;fill:#049acc" transform="scale(.75)"/><path d="M26 4h1v1h-1z" style="opacity:1;fill:#040284" transform="scale(.75)"/><path d="M27 4h1v1h-1z" style="opacity:1;fill:#fcfafc" transform="scale(.75)"/><path d="M29 4h1v1h-1z" style="opacity:1;fill:#848684" transform="scale(.75)"/><path d="M30 4h1v1h-1z" style="opacity:1;fill:#040204" transform="scale(.75)"/><path d="M13 5h1v1h-1z" style="opacity:1;fill:#848684" transform="scale(.75)"/><path d="M14 5h1v1h-1z" style="opacity:1;fill:#fcfafc" transform="scale(.75)"/><path d="M15 5h1v1h-1z" style="opacity:1;fill:#040284" transform="scale(.75)"/><path d="M16 5h1v1h-1z" style="opacity:1;fill:#64cefc" transform="scale(.75)"/><path d="M17 5h1v1h-1z" style="opacity:1;fill:#34fefc" transform="scale(.75)"/><path d="M18 5h1v1h-1z" style="opacity:1;fill:#ccfefc" transform="scale(.75)"/><path d="M19 5h1v1h-1z" style="opacity:1;fill:#34fefc" transform="scale(.75)"/><path d="M20 5h1v1h-1z" style="opacity:1;fill:#ccfefc" transform="scale(.75)"/><path d="M21 5h1v1h-1z" style="opacity:1;fill:#34fefc" transform="scale(.75)"/><path d="M22 5h1v1h-1zM23 5h1v1h-1z" style="opacity:1;fill:#64cefc" transform="scale(.75)"/><path d="M24 5h1v1h-1zM25 5h1v1h-1z" style="opacity:1;fill:#049acc" transform="scale(.75)"/><path d="M26 5h1v1h-1z" style="opacity:1;fill:#040284" transform="scale(.75)"/><path d="M27 5h1v1h-1z" style="opacity:1;fill:#fcfafc" transform="scale(.75)"/><path d="M29 5h1v1h-1z" style="opacity:1;fill:#848684" transform="scale(.75)"/><path d="M30 5h1v1h-1z" style="opacity:1;fill:#040204" transform="scale(.75)"/><path d="M13 6h1v1h-1z" style="opacity:1;fill:#848684" transform="scale(.75)"/><path d="M14 6h1v1h-1z" style="opacity:1;fill:#fcfafc" transform="scale(.75)"/><path d="M15 6h1v1h-1z" style="opacity:1;fill:#040284" transform="scale(.75)"/><path d="M16 6h1v1h-1z" style="opacity:1;fill:#34fefc" transform="scale(.75)"/><path d="M17 6h1v1h-1z" style="opacity:1;fill:#ccfefc" transform="scale(.75)"/><path d="M18 6h1v1h-1z" style="opacity:1;fill:#34fefc" transform="scale(.75)"/><path d="M19 6h1v1h-1z" style="opacity:1;fill:#ccfefc" transform="scale(.75)"/><path d="M20 6h1v1h-1z" style="opacity:1;fill:#34fefc" transform="scale(.75)"/><path d="M21 6h1v1h-1zM22 6h1v1h-1z" style="opacity:1;fill:#64cefc" transform="scale(.75)"/><path d="M23 6h1v1h-1zM24 6h1v1h-1zM25 6h1v1h-1z" style="opacity:1;fill:#049acc" transform="scale(.75)"/><path d="M26 6h1v1h-1z" style="opacity:1;fill:#040284" transform="scale(.75)"/><path d="M27 6h1v1h-1z" style="opacity:1;fill:#fcfafc" transform="scale(.75)"/><path d="M29 6h1v1h-1z" style="opacity:1;fill:#848684" transform="scale(.75)"/><path d="M30 6h1v1h-1z" style="opacity:1;fill:#040204" transform="scale(.75)"/><path d="M13 7h1v1h-1z" style="opacity:1;fill:#848684" transform="scale(.75)"/><path d="M14 7h1v1h-1z" style="opacity:1;fill:#fcfafc" transform="scale(.75)"/><path d="M15 7h1v1h-1z" style="opacity:1;fill:#040284" transform="scale(.75)"/><path d="M16 7h1v1h-1z" style="opacity:1;fill:#ccfefc" transform="scale(.75)"/><path d="M17 7h1v1h-1z" style="opacity:1;fill:#34fefc" transform="scale(.75)"/><path d="M18 7h1v1h-1z" style="opacity:1;fill:#ccfefc" transform="scale(.75)"/><path d="M19 7h1v1h-1z" style="opacity:1;fill:#34fefc" transform="scale(.75)"/><path d="M20 7h1v1h-1zM21 7h1v1h-1z" style="opacity:1;fill:#64cefc" transform="scale(.75)"/><path d="M22 7h1v1h-1zM23 7h1v1h-1zM24 7h1v1h-1zM25 7h1v1h-1z" style="opacity:1;fill:#049acc" transform="scale(.75)"/><path d="M26 7h1v1h-1z" style="opacity:1;fill:#040284" transform="scale(.75)"/><path d="M27 7h1v1h-1z" style="opacity:1;fill:#fcfafc" transform="scale(.75)"/><path d="M29 7h1v1h-1z" style="opacity:1;fill:#848684" transform="scale(.75)"/><path d="M30 7h1v1h-1z" style="opacity:1;fill:#040204" transform="scale(.75)"/><path d="M8 8h1v1H8zM9 8h1v1H9zM10 8h1v1h-1zM11 8h1v1h-1zM12 8h1v1h-1z" style="opacity:1;fill:#848684" transform="scale(.75)"/><path d="M13 8h1v1h-1z" style="opacity:1;fill:#040204" transform="scale(.75)"/><path d="M14 8h1v1h-1z" style="opacity:1;fill:#fcfafc" transform="scale(.75)"/><path d="M15 8h1v1h-1z" style="opacity:1;fill:#040284" transform="scale(.75)"/><path d="M16 8h1v1h-1z" style="opacity:1;fill:#34fefc" transform="scale(.75)"/><path d="M17 8h1v1h-1z" style="opacity:1;fill:#ccfefc" transform="scale(.75)"/><path d="M18 8h1v1h-1z" style="opacity:1;fill:#34fefc" transform="scale(.75)"/><path d="M19 8h1v1h-1zM20 8h1v1h-1z" style="opacity:1;fill:#64cefc" transform="scale(.75)"/><path d="M21 8h1v1h-1zM22 8h1v1h-1zM23 8h1v1h-1zM24 8h1v1h-1z" style="opacity:1;fill:#049acc" transform="scale(.75)"/><path d="M25 8h1v1h-1z" style="opacity:1;fill:#3466fc" transform="scale(.75)"/><path d="M26 8h1v1h-1z" style="opacity:1;fill:#040284" transform="scale(.75)"/><path d="M27 8h1v1h-1z" style="opacity:1;fill:#fcfafc" transform="scale(.75)"/><path d="M29 8h1v1h-1z" style="opacity:1;fill:#848684" transform="scale(.75)"/><path d="M30 8h1v1h-1z" style="opacity:1;fill:#040204" transform="scale(.75)"/><path d="M7 9h1v1H7z" style="opacity:1;fill:#848684" transform="scale(.75)"/><path d="M8 9h1v1H8zM9 9h1v1H9zM10 9h1v1h-1zM11 9h1v1h-1z" style="opacity:1;fill:#fcfafc" transform="scale(.75)"/><path d="M12 9h1v1h-1z" style="opacity:1;fill:#040204" transform="scale(.75)"/><path d="M13 9h1v1h-1z" style="opacity:1;fill:#848684" transform="scale(.75)"/><path d="M14 9h1v1h-1z" style="opacity:1;fill:#fcfafc" transform="scale(.75)"/><path d="M15 9h1v1h-1z" style="opacity:1;fill:#040284" transform="scale(.75)"/><path d="M16 9h1v1h-1z" style="opacity:1;fill:#ccfefc" transform="scale(.75)"/><path d="M17 9h1v1h-1z" style="opacity:1;fill:#34fefc" transform="scale(.75)"/><path d="M18 9h1v1h-1zM19 9h1v1h-1z" style="opacity:1;fill:#64cefc" transform="scale(.75)"/><path d="M20 9h1v1h-1zM21 9h1v1h-1zM22 9h1v1h-1zM23 9h1v1h-1z" style="opacity:1;fill:#049acc" transform="scale(.75)"/><path d="M24 9h1v1h-1zM25 9h1v1h-1z" style="opacity:1;fill:#3466fc" transform="scale(.75)"/><path d="M26 9h1v1h-1z" style="opacity:1;fill:#040284" transform="scale(.75)"/><path d="M27 9h1v1h-1z" style="opacity:1;fill:#fcfafc" transform="scale(.75)"/><path d="M29 9h1v1h-1z" style="opacity:1;fill:#848684" transform="scale(.75)"/><path d="M30 9h1v1h-1z" style="opacity:1;fill:#040204" transform="scale(.75)"/><path d="M6 10h1v1H6z" style="opacity:1;fill:#848684" transform="scale(.75)"/><path d="M7 10h1v1H7zM8 10h1v1H8zM9 10h1v1H9zM10 10h1v1h-1z" style="opacity:1;fill:#5c5e5c" transform="scale(.75)"/><path d="M11 10h1v1h-1zM12 10h1v1h-1z" style="opacity:1;fill:#040204" transform="scale(.75)"/><path d="M13 10h1v1h-1z" style="opacity:1;fill:#848684" transform="scale(.75)"/><path d="M14 10h1v1h-1z" style="opacity:1;fill:#fcfafc" transform="scale(.75)"/><path d="M15 10h1v1h-1z" style="opacity:1;fill:#040284" transform="scale(.75)"/><path d="M16 10h1v1h-1z" style="opacity:1;fill:#04fefc" transform="scale(.75)"/><path d="M17 10h1v1h-1zM18 10h1v1h-1z" style="opacity:1;fill:#64cefc" transform="scale(.75)"/><path d="M19 10h1v1h-1zM20 10h1v1h-1zM21 10h1v1h-1zM22 10h1v1h-1z" style="opacity:1;fill:#049acc" transform="scale(.75)"/><path d="M23 10h1v1h-1zM24 10h1v1h-1zM25 10h1v1h-1z" style="opacity:1;fill:#3466fc" transform="scale(.75)"/><path d="M26 10h1v1h-1z" style="opacity:1;fill:#040284" transform="scale(.75)"/><path d="M27 10h1v1h-1z" style="opacity:1;fill:#fcfafc" transform="scale(.75)"/><path d="M29 10h1v1h-1z" style="opacity:1;fill:#848684" transform="scale(.75)"/><path d="M30 10h1v1h-1z" style="opacity:1;fill:#040204" transform="scale(.75)"/><path d="M5 11h1v1H5z" style="opacity:1;fill:#848684" transform="scale(.75)"/><path d="M6 11h1v1H6zM7 11h1v1H7zM8 11h1v1H8zM9 11h1v1H9z" style="opacity:1;fill:#5c5e5c" transform="scale(.75)"/><path d="M10 11h1v1h-1z" style="opacity:1;fill:#040204" transform="scale(.75)"/><path d="M11 11h1v1h-1z" style="opacity:1;fill:#a4a2a4" transform="scale(.75)"/><path d="M12 11h1v1h-1z" style="opacity:1;fill:#040204" transform="scale(.75)"/><path d="M13 11h1v1h-1z" style="opacity:1;fill:#848684" transform="scale(.75)"/><path d="M14 11h1v1h-1z" style="opacity:1;fill:#fcfafc" transform="scale(.75)"/><path d="M15 11h1v1h-1zM16 11h1v1h-1zM17 11h1v1h-1zM18 11h1v1h-1zM19 11h1v1h-1zM20 11h1v1h-1zM21 11h1v1h-1zM22 11h1v1h-1zM23 11h1v1h-1zM24 11h1v1h-1zM25 11h1v1h-1zM26 11h1v1h-1z" style="opacity:1;fill:#040284" transform="scale(.75)"/><path d="M27 11h1v1h-1z" style="opacity:1;fill:#fcfafc" transform="scale(.75)"/><path d="M29 11h1v1h-1z" style="opacity:1;fill:#848684" transform="scale(.75)"/><path d="M30 11h1v1h-1z" style="opacity:1;fill:#040204" transform="scale(.75)"/><path d="M0 12h1v1H0zM1 12h1v1H1zM2 12h1v1H2zM3 12h1v1H3zM4 12h1v1H4zM5 12h1v1H5zM6 12h1v1H6z" style="opacity:1;fill:#848684" transform="scale(.75)"/><path d="M7 12h1v1H7zM8 12h1v1H8z" style="opacity:1;fill:#5c5e5c" transform="scale(.75)"/><path d="M9 12h1v1H9z" style="opacity:1;fill:#040204" transform="scale(.75)"/><path d="M10 12h1v1h-1zM11 12h1v1h-1z" style="opacity:1;fill:#a4a2a4" transform="scale(.75)"/><path d="M12 12h1v1h-1z" style="opacity:1;fill:#040204" transform="scale(.75)"/><path d="M13 12h1v1h-1z" style="opacity:1;fill:#848684" transform="scale(.75)"/><path d="M14 12h1v1h-1zM15 12h1v1h-1zM16 12h1v1h-1zM17 12h1v1h-1zM18 12h1v1h-1zM19 12h1v1h-1zM20 12h1v1h-1zM21 12h1v1h-1zM22 12h1v1h-1zM23 12h1v1h-1zM24 12h1v1h-1zM25 12h1v1h-1zM26 12h1v1h-1zM27 12h1v1h-1z" style="opacity:1;fill:#fcfafc" transform="scale(.75)"/><path d="M29 12h1v1h-1z" style="opacity:1;fill:#848684" transform="scale(.75)"/><path d="M30 12h1v1h-1z" style="opacity:1;fill:#040204" transform="scale(.75)"/><path d="M1 13h1v1H1z" style="opacity:1;fill:#848684" transform="scale(.75)"/><path d="M2 13h1v1H2zM3 13h1v1H3zM4 13h1v1H4zM5 13h1v1H5zM6 13h1v1H6z" style="opacity:1;fill:#fcfafc" transform="scale(.75)"/><path d="M7 13h1v1H7z" style="opacity:1;fill:#5c5e5c" transform="scale(.75)"/><path d="M8 13h1v1H8z" style="opacity:1;fill:#040204" transform="scale(.75)"/><path d="M9 13h1v1H9zM10 13h1v1h-1zM11 13h1v1h-1z" style="opacity:1;fill:#a4a2a4" transform="scale(.75)"/><path d="M12 13h1v1h-1z" style="opacity:1;fill:#040204" transform="scale(.75)"/><path d="M13 13h1v1h-1zM29 13h1v1h-1z" style="opacity:1;fill:#848684" transform="scale(.75)"/><path d="M30 13h1v1h-1z" style="opacity:1;fill:#040204" transform="scale(.75)"/><path d="M2 14h1v1H2zM3 14h1v1H3zM4 14h1v1H4zM5 14h1v1H5zM6 14h1v1H6z" style="opacity:1;fill:#5c5e5c" transform="scale(.75)"/><path d="M7 14h1v1H7z" style="opacity:1;fill:#040204" transform="scale(.75)"/><path d="M8 14h1v1H8zM9 14h1v1H9zM10 14h1v1h-1zM11 14h1v1h-1z" style="opacity:1;fill:#a4a2a4" transform="scale(.75)"/><path d="M12 14h1v1h-1zM13 14h1v1h-1zM14 14h1v1h-1zM15 14h1v1h-1zM16 14h1v1h-1zM17 14h1v1h-1zM18 14h1v1h-1zM19 14h1v1h-1zM20 14h1v1h-1zM21 14h1v1h-1zM22 14h1v1h-1zM23 14h1v1h-1zM24 14h1v1h-1zM25 14h1v1h-1zM26 14h1v1h-1zM27 14h1v1h-1zM28 14h1v1h-1zM29 14h1v1h-1z" style="opacity:1;fill:#040204" transform="scale(.75)"/><path d="M30 14h1v1h-1z" style="opacity:1;fill:#b4b2b4" transform="scale(.75)"/><path d="M31 14h1v1h-1z" style="opacity:1;fill:#0c0a0c" transform="scale(.75)"/><path d="M2 15h1v1H2zM3 15h1v1H3zM4 15h1v1H4zM5 15h1v1H5zM6 15h1v1H6z" style="opacity:1;fill:#848684" transform="scale(.75)"/><path d="M7 15h1v1H7z" style="opacity:1;fill:#040204" transform="scale(.75)"/><path d="M8 15h1v1H8zM9 15h1v1H9zM10 15h1v1h-1zM11 15h1v1h-1z" style="opacity:1;fill:#a4a2a4" transform="scale(.75)"/><path d="M12 15h1v1h-1z" style="opacity:1;fill:#040204" transform="scale(.75)"/><path d="M13 15h1v1h-1zM14 15h1v1h-1zM15 15h1v1h-1zM16 15h1v1h-1zM17 15h1v1h-1zM18 15h1v1h-1zM19 15h1v1h-1zM20 15h1v1h-1zM21 15h1v1h-1zM22 15h1v1h-1zM23 15h1v1h-1zM24 15h1v1h-1zM25 15h1v1h-1zM26 15h1v1h-1zM27 15h1v1h-1zM28 15h1v1h-1z" style="opacity:1;fill:#848684" transform="scale(.75)"/><path d="M29 15h1v1h-1z" style="opacity:1;fill:#b4b2b4" transform="scale(.75)"/><path d="M30 15h1v1h-1z" style="opacity:1;fill:#848684" transform="scale(.75)"/><path d="M31 15h1v1h-1z" style="opacity:1;fill:#040204" transform="scale(.75)"/><path d="M2 16h1v1H2z" style="opacity:1;fill:#848684" transform="scale(.75)"/><path d="M3 16h1v1H3zM4 16h1v1H4zM5 16h1v1H5zM6 16h1v1H6z" style="opacity:1;fill:#fcfafc" transform="scale(.75)"/><path d="M7 16h1v1H7z" style="opacity:1;fill:#040204" transform="scale(.75)"/><path d="M8 16h1v1H8zM9 16h1v1H9zM10 16h1v1h-1zM11 16h1v1h-1z" style="opacity:1;fill:#a4a2a4" transform="scale(.75)"/><path d="M12 16h1v1h-1z" style="opacity:1;fill:#040204" transform="scale(.75)"/><path d="M13 16h1v1h-1zM14 16h1v1h-1z" style="opacity:1;fill:#fcfafc" transform="scale(.75)"/><path d="M15 16h1v1h-1zM16 16h1v1h-1zM17 16h1v1h-1zM18 16h1v1h-1z" style="opacity:1;fill:#949694" transform="scale(.75)"/><path d="M19 16h1v1h-1zM20 16h1v1h-1z" style="opacity:1;fill:#747674" transform="scale(.75)"/><path d="M21 16h1v1h-1zM22 16h1v1h-1zM23 16h1v1h-1zM24 16h1v1h-1zM25 16h1v1h-1zM26 16h1v1h-1zM27 16h1v1h-1zM28 16h1v1h-1zM29 16h1v1h-1z" style="opacity:1;fill:#fcfafc" transform="scale(.75)"/><path d="M30 16h1v1h-1z" style="opacity:1;fill:#848684" transform="scale(.75)"/><path d="M31 16h1v1h-1z" style="opacity:1;fill:#040204" transform="scale(.75)"/><path d="M2 17h1v1H2z" style="opacity:1;fill:#848684" transform="scale(.75)"/><path d="M3 17h1v1H3zM4 17h1v1H4zM5 17h1v1H5zM6 17h1v1H6z" style="opacity:1;fill:#fcfafc" transform="scale(.75)"/><path d="M7 17h1v1H7z" style="opacity:1;fill:#040204" transform="scale(.75)"/><path d="M8 17h1v1H8zM9 17h1v1H9zM10 17h1v1h-1zM11 17h1v1h-1z" style="opacity:1;fill:#a4a2a4" transform="scale(.75)"/><path d="M12 17h1v1h-1z" style="opacity:1;fill:#040204" transform="scale(.75)"/><path d="M13 17h1v1h-1zM14 17h1v1h-1z" style="opacity:1;fill:#747674" transform="scale(.75)"/><path d="M15 17h1v1h-1z" style="opacity:1;fill:#64ce9c" transform="scale(.75)"/><path d="M16 17h1v1h-1z" style="opacity:1;fill:#fcfe9c" transform="scale(.75)"/><path d="M17 17h1v1h-1zM18 17h1v1h-1zM19 17h1v1h-1z" style="opacity:1;fill:#ccce64" transform="scale(.75)"/><path d="M20 17h1v1h-1z" style="opacity:1;fill:#b4b2b4" transform="scale(.75)"/><path d="M21 17h1v1h-1zM22 17h1v1h-1z" style="opacity:1;fill:#343234" transform="scale(.75)"/><path d="M23 17h1v1h-1zM24 17h1v1h-1zM25 17h1v1h-1zM26 17h1v1h-1zM27 17h1v1h-1zM30 17h1v1h-1z" style="opacity:1;fill:#848684" transform="scale(.75)"/><path d="M31 17h1v1h-1z" style="opacity:1;fill:#040204" transform="scale(.75)"/><path d="M2 18h1v1H2z" style="opacity:1;fill:#848684" transform="scale(.75)"/><path d="M3 18h1v1H3zM4 18h1v1H4zM5 18h1v1H5zM6 18h1v1H6z" style="opacity:1;fill:#fcfafc" transform="scale(.75)"/><path d="M7 18h1v1H7z" style="opacity:1;fill:#040204" transform="scale(.75)"/><path d="M8 18h1v1H8zM9 18h1v1H9zM10 18h1v1h-1zM11 18h1v1h-1z" style="opacity:1;fill:#a4a2a4" transform="scale(.75)"/><path d="M12 18h1v1h-1z" style="opacity:1;fill:#5c5e5c" transform="scale(.75)"/><path d="M13 18h1v1h-1z" style="opacity:1;fill:#349acc" transform="scale(.75)"/><path d="M14 18h1v1h-1z" style="opacity:1;fill:#649a9c" transform="scale(.75)"/><path d="M15 18h1v1h-1z" style="opacity:1;fill:#64ce9c" transform="scale(.75)"/><path d="M16 18h1v1h-1z" style="opacity:1;fill:#fcfe9c" transform="scale(.75)"/><path d="M17 18h1v1h-1zM18 18h1v1h-1zM19 18h1v1h-1z" style="opacity:1;fill:#ccce64" transform="scale(.75)"/><path d="M20 18h1v1h-1zM21 18h1v1h-1z" style="opacity:1;fill:#b4b2b4" transform="scale(.75)"/><path d="M22 18h1v1h-1z" style="opacity:1;fill:#a4a2a4" transform="scale(.75)"/><path d="M23 18h1v1h-1z" style="opacity:1;fill:#343234" transform="scale(.75)"/><path d="M24 18h1v1h-1zM25 18h1v1h-1zM26 18h1v1h-1zM27 18h1v1h-1z" style="opacity:1;fill:#040204" transform="scale(.75)"/><path d="M29 18h1v1h-1z" style="opacity:1;fill:#b4b2b4" transform="scale(.75)"/><path d="M30 18h1v1h-1z" style="opacity:1;fill:#848684" transform="scale(.75)"/><path d="M31 18h1v1h-1z" style="opacity:1;fill:#040204" transform="scale(.75)"/><path d="M2 19h1v1H2z" style="opacity:1;fill:#848684" transform="scale(.75)"/><path d="M3 19h1v1H3zM4 19h1v1H4zM5 19h1v1H5zM6 19h1v1H6z" style="opacity:1;fill:#fcfafc" transform="scale(.75)"/><path d="M7 19h1v1H7z" style="opacity:1;fill:#040204" transform="scale(.75)"/><path d="M8 19h1v1H8z" style="opacity:1;fill:#a4a2a4" transform="scale(.75)"/><path d="M9 19h1v1H9z" style="opacity:1;fill:#848684" transform="scale(.75)"/><path d="M10 19h1v1h-1z" style="opacity:1;fill:#a4a2a4" transform="scale(.75)"/><path d="M11 19h1v1h-1z" style="opacity:1;fill:#5c5e5c" transform="scale(.75)"/><path d="M12 19h1v1h-1z" style="opacity:1;fill:#34cecc" transform="scale(.75)"/><path d="M13 19h1v1h-1zM14 19h1v1h-1z" style="opacity:1;fill:#349acc" transform="scale(.75)"/><path d="M15 19h1v1h-1z" style="opacity:1;fill:#649a9c" transform="scale(.75)"/><path d="M16 19h1v1h-1zM17 19h1v1h-1z" style="opacity:1;fill:#fcfe9c" transform="scale(.75)"/><path d="M18 19h1v1h-1zM19 19h1v1h-1z" style="opacity:1;fill:#ccce64" transform="scale(.75)"/><path d="M20 19h1v1h-1z" style="opacity:1;fill:#b4b2b4" transform="scale(.75)"/><path d="M21 19h1v1h-1zM22 19h1v1h-1z" style="opacity:1;fill:#a4a2a4" transform="scale(.75)"/><path d="M24 19h1v1h-1z" style="opacity:1;fill:#343234" transform="scale(.75)"/><path d="M30 19h1v1h-1z" style="opacity:1;fill:#040204" transform="scale(.75)"/><path d="M2 20h1v1H2z" style="opacity:1;fill:#848684" transform="scale(.75)"/><path d="M3 20h1v1H3zM4 20h1v1H4zM5 20h1v1H5zM6 20h1v1H6z" style="opacity:1;fill:#fcfafc" transform="scale(.75)"/><path d="M7 20h1v1H7z" style="opacity:1;fill:#040204" transform="scale(.75)"/><path d="M8 20h1v1H8z" style="opacity:1;fill:#848684" transform="scale(.75)"/><path d="M9 20h1v1H9z" style="opacity:1;fill:#a4a2a4" transform="scale(.75)"/><path d="M10 20h1v1h-1z" style="opacity:1;fill:#848684" transform="scale(.75)"/><path d="M11 20h1v1h-1z" style="opacity:1;fill:#5c5e5c" transform="scale(.75)"/><path d="M12 20h1v1h-1zM13 20h1v1h-1z" style="opacity:1;fill:#34cecc" transform="scale(.75)"/><path d="M14 20h1v1h-1z" style="opacity:1;fill:#349acc" transform="scale(.75)"/><path d="M15 20h1v1h-1z" style="opacity:1;fill:#649a9c" transform="scale(.75)"/><path d="M16 20h1v1h-1z" style="opacity:1;fill:#64ce9c" transform="scale(.75)"/><path d="M17 20h1v1h-1z" style="opacity:1;fill:#fcfe9c" transform="scale(.75)"/><path d="M18 20h1v1h-1z" style="opacity:1;fill:#ccce64" transform="scale(.75)"/><path d="M19 20h1v1h-1zM20 20h1v1h-1z" style="opacity:1;fill:#b4b2b4" transform="scale(.75)"/><path d="M21 20h1v1h-1z" style="opacity:1;fill:#a4a2a4" transform="scale(.75)"/><path d="M23 20h1v1h-1z" style="opacity:1;fill:#fcfafc" transform="scale(.75)"/><path d="M24 20h1v1h-1z" style="opacity:1;fill:#343234" transform="scale(.75)"/><path d="M25 20h1v1h-1zM26 20h1v1h-1zM27 20h1v1h-1zM28 20h1v1h-1zM29 20h1v1h-1z" style="opacity:1;fill:#040204" transform="scale(.75)"/><path d="M2 21h1v1H2z" style="opacity:1;fill:#848684" transform="scale(.75)"/><path d="M3 21h1v1H3zM4 21h1v1H4zM5 21h1v1H5zM6 21h1v1H6z" style="opacity:1;fill:#fcfafc" transform="scale(.75)"/><path d="M7 21h1v1H7z" style="opacity:1;fill:#040204" transform="scale(.75)"/><path d="M8 21h1v1H8z" style="opacity:1;fill:#a4a2a4" transform="scale(.75)"/><path d="M9 21h1v1H9z" style="opacity:1;fill:#848684" transform="scale(.75)"/><path d="M10 21h1v1h-1z" style="opacity:1;fill:#5c5e5c" transform="scale(.75)"/><path d="M11 21h1v1h-1z" style="opacity:1;fill:#e4e2e4" transform="scale(.75)"/><path d="M12 21h1v1h-1z" style="opacity:1;fill:#9cfecc" transform="scale(.75)"/><path d="M13 21h1v1h-1zM14 21h1v1h-1z" style="opacity:1;fill:#34cecc" transform="scale(.75)"/><path d="M15 21h1v1h-1z" style="opacity:1;fill:#349acc" transform="scale(.75)"/><path d="M16 21h1v1h-1zM17 21h1v1h-1z" style="opacity:1;fill:#649a9c" transform="scale(.75)"/><path d="M18 21h1v1h-1z" style="opacity:1;fill:#ccce64" transform="scale(.75)"/><path d="M19 21h1v1h-1z" style="opacity:1;fill:#b4b2b4" transform="scale(.75)"/><path d="M20 21h1v1h-1z" style="opacity:1;fill:#a4a2a4" transform="scale(.75)"/><path d="M22 21h1v1h-1z" style="opacity:1;fill:#fcfafc" transform="scale(.75)"/><path d="M23 21h1v1h-1zM24 21h1v1h-1z" style="opacity:1;fill:#d4d6d4" transform="scale(.75)"/><path d="M25 21h1v1h-1z" style="opacity:1;fill:#343234" transform="scale(.75)"/><path d="M2 22h1v1H2z" style="opacity:1;fill:#848684" transform="scale(.75)"/><path d="M3 22h1v1H3z" style="opacity:1;fill:#fcfafc" transform="scale(.75)"/><path d="M4 22h1v1H4z" style="opacity:1;fill:#cccecc" transform="scale(.75)"/><path d="M5 22h1v1H5z" style="opacity:1;fill:#fcfafc" transform="scale(.75)"/><path d="M6 22h1v1H6z" style="opacity:1;fill:#cccecc" transform="scale(.75)"/><path d="M7 22h1v1H7z" style="opacity:1;fill:#040204" transform="scale(.75)"/><path d="M8 22h1v1H8z" style="opacity:1;fill:#848684" transform="scale(.75)"/><path d="M9 22h1v1H9z" style="opacity:1;fill:#a4a2a4" transform="scale(.75)"/><path d="M10 22h1v1h-1z" style="opacity:1;fill:#5c5e5c" transform="scale(.75)"/><path d="M11 22h1v1h-1zM12 22h1v1h-1z" style="opacity:1;fill:#e4e2e4" transform="scale(.75)"/><path d="M13 22h1v1h-1zM14 22h1v1h-1z" style="opacity:1;fill:#9cfecc" transform="scale(.75)"/><path d="M15 22h1v1h-1zM16 22h1v1h-1z" style="opacity:1;fill:#34cecc" transform="scale(.75)"/><path d="M17 22h1v1h-1zM18 22h1v1h-1z" style="opacity:1;fill:#040204" transform="scale(.75)"/><path d="M19 22h1v1h-1z" style="opacity:1;fill:#b4b2b4" transform="scale(.75)"/><path d="M20 22h1v1h-1z" style="opacity:1;fill:#a4a2a4" transform="scale(.75)"/><path d="M21 22h1v1h-1z" style="opacity:1;fill:#fcfafc" transform="scale(.75)"/><path d="M22 22h1v1h-1z" style="opacity:1;fill:#d4d6d4" transform="scale(.75)"/><path d="M23 22h1v1h-1zM24 22h1v1h-1z" style="opacity:1;fill:#b4b2b4" transform="scale(.75)"/><path d="M25 22h1v1h-1z" style="opacity:1;fill:#343234" transform="scale(.75)"/><path d="M2 23h1v1H2z" style="opacity:1;fill:#848684" transform="scale(.75)"/><path d="M3 23h1v1H3z" style="opacity:1;fill:#cccecc" transform="scale(.75)"/><path d="M4 23h1v1H4z" style="opacity:1;fill:#fcfafc" transform="scale(.75)"/><path d="M5 23h1v1H5z" style="opacity:1;fill:#cccecc" transform="scale(.75)"/><path d="M6 23h1v1H6z" style="opacity:1;fill:#fcfafc" transform="scale(.75)"/><path d="M7 23h1v1H7z" style="opacity:1;fill:#040204" transform="scale(.75)"/><path d="M8 23h1v1H8z" style="opacity:1;fill:#a4a2a4" transform="scale(.75)"/><path d="M9 23h1v1H9z" style="opacity:1;fill:#848684" transform="scale(.75)"/><path d="M10 23h1v1h-1z" style="opacity:1;fill:#5c5e5c" transform="scale(.75)"/><path d="M11 23h1v1h-1zM12 23h1v1h-1zM13 23h1v1h-1zM14 23h1v1h-1zM15 23h1v1h-1z" style="opacity:1;fill:#9c9a9c" transform="scale(.75)"/><path d="M16 23h1v1h-1zM19 23h1v1h-1z" style="opacity:1;fill:#040204" transform="scale(.75)"/><path d="M20 23h1v1h-1zM21 23h1v1h-1z" style="opacity:1;fill:#d4d6d4" transform="scale(.75)"/><path d="M22 23h1v1h-1zM23 23h1v1h-1zM24 23h1v1h-1z" style="opacity:1;fill:#848684" transform="scale(.75)"/><path d="M25 23h1v1h-1z" style="opacity:1;fill:#343234" transform="scale(.75)"/><path d="M2 24h1v1H2z" style="opacity:1;fill:#848684" transform="scale(.75)"/><path d="M3 24h1v1H3z" style="opacity:1;fill:#fcfafc" transform="scale(.75)"/><path d="M4 24h1v1H4z" style="opacity:1;fill:#cccecc" transform="scale(.75)"/><path d="M5 24h1v1H5z" style="opacity:1;fill:#fcfafc" transform="scale(.75)"/><path d="M6 24h1v1H6z" style="opacity:1;fill:#cccecc" transform="scale(.75)"/><path d="M7 24h1v1H7z" style="opacity:1;fill:#040204" transform="scale(.75)"/><path d="M8 24h1v1H8z" style="opacity:1;fill:#848684" transform="scale(.75)"/><path d="M9 24h1v1H9z" style="opacity:1;fill:#a4a2a4" transform="scale(.75)"/><path d="M10 24h1v1h-1z" style="opacity:1;fill:#5c5e5c" transform="scale(.75)"/><path d="M11 24h1v1h-1zM12 24h1v1h-1zM13 24h1v1h-1z" style="opacity:1;fill:#cccecc" transform="scale(.75)"/><path d="M14 24h1v1h-1zM15 24h1v1h-1z" style="opacity:1;fill:#b4b2b4" transform="scale(.75)"/><path d="M16 24h1v1h-1zM19 24h1v1h-1z" style="opacity:1;fill:#040204" transform="scale(.75)"/><path d="M20 24h1v1h-1zM21 24h1v1h-1zM22 24h1v1h-1z" style="opacity:1;fill:#848684" transform="scale(.75)"/><path d="M23 24h1v1h-1zM24 24h1v1h-1z" style="opacity:1;fill:#b4b2b4" transform="scale(.75)"/><path d="M25 24h1v1h-1z" style="opacity:1;fill:#343234" transform="scale(.75)"/><path d="M2 25h1v1H2z" style="opacity:1;fill:#848684" transform="scale(.75)"/><path d="M3 25h1v1H3z" style="opacity:1;fill:#cccecc" transform="scale(.75)"/><path d="M4 25h1v1H4z" style="opacity:1;fill:#fcfafc" transform="scale(.75)"/><path d="M5 25h1v1H5z" style="opacity:1;fill:#cccecc" transform="scale(.75)"/><path d="M6 25h1v1H6z" style="opacity:1;fill:#fcfafc" transform="scale(.75)"/><path d="M7 25h1v1H7z" style="opacity:1;fill:#040204" transform="scale(.75)"/><path d="M8 25h1v1H8z" style="opacity:1;fill:#a4a2a4" transform="scale(.75)"/><path d="M9 25h1v1H9z" style="opacity:1;fill:#848684" transform="scale(.75)"/><path d="M10 25h1v1h-1z" style="opacity:1;fill:#5c5e5c" transform="scale(.75)"/><path d="M11 25h1v1h-1z" style="opacity:1;fill:#cccecc" transform="scale(.75)"/><path d="M12 25h1v1h-1zM13 25h1v1h-1zM14 25h1v1h-1zM15 25h1v1h-1z" style="opacity:1;fill:#b4b2b4" transform="scale(.75)"/><path d="M17 25h1v1h-1zM18 25h1v1h-1z" style="opacity:1;fill:#040204" transform="scale(.75)"/><path d="M19 25h1v1h-1zM20 25h1v1h-1zM21 25h1v1h-1z" style="opacity:1;fill:#e4e2e4" transform="scale(.75)"/><path d="M22 25h1v1h-1zM23 25h1v1h-1zM24 25h1v1h-1z" style="opacity:1;fill:#b4b2b4" transform="scale(.75)"/><path d="M25 25h1v1h-1z" style="opacity:1;fill:#343234" transform="scale(.75)"/><path d="M2 26h1v1H2z" style="opacity:1;fill:#848684" transform="scale(.75)"/><path d="M3 26h1v1H3z" style="opacity:1;fill:#fcfafc" transform="scale(.75)"/><path d="M4 26h1v1H4z" style="opacity:1;fill:#cccecc" transform="scale(.75)"/><path d="M5 26h1v1H5z" style="opacity:1;fill:#fcfafc" transform="scale(.75)"/><path d="M6 26h1v1H6z" style="opacity:1;fill:#cccecc" transform="scale(.75)"/><path d="M7 26h1v1H7z" style="opacity:1;fill:#040204" transform="scale(.75)"/><path d="M8 26h1v1H8z" style="opacity:1;fill:#848684" transform="scale(.75)"/><path d="M9 26h1v1H9z" style="opacity:1;fill:#a4a2a4" transform="scale(.75)"/><path d="M10 26h1v1h-1z" style="opacity:1;fill:#5c5e5c" transform="scale(.75)"/><path d="M11 26h1v1h-1zM12 26h1v1h-1zM13 26h1v1h-1zM14 26h1v1h-1z" style="opacity:1;fill:#b4b2b4" transform="scale(.75)"/><path d="M16 26h1v1h-1zM17 26h1v1h-1z" style="opacity:1;fill:#ccce9c" transform="scale(.75)"/><path d="M18 26h1v1h-1z" style="opacity:1;fill:#049a9c" transform="scale(.75)"/><path d="M19 26h1v1h-1z" style="opacity:1;fill:#9cfecc" transform="scale(.75)"/><path d="M20 26h1v1h-1zM21 26h1v1h-1zM22 26h1v1h-1zM23 26h1v1h-1zM24 26h1v1h-1z" style="opacity:1;fill:#e4e2e4" transform="scale(.75)"/><path d="M25 26h1v1h-1z" style="opacity:1;fill:#343234" transform="scale(.75)"/><path d="M2 27h1v1H2z" style="opacity:1;fill:#848684" transform="scale(.75)"/><path d="M3 27h1v1H3z" style="opacity:1;fill:#cccecc" transform="scale(.75)"/><path d="M4 27h1v1H4z" style="opacity:1;fill:#fcfafc" transform="scale(.75)"/><path d="M5 27h1v1H5z" style="opacity:1;fill:#cccecc" transform="scale(.75)"/><path d="M6 27h1v1H6z" style="opacity:1;fill:#fcfafc" transform="scale(.75)"/><path d="M7 27h1v1H7z" style="opacity:1;fill:#040204" transform="scale(.75)"/><path d="M8 27h1v1H8z" style="opacity:1;fill:#a4a2a4" transform="scale(.75)"/><path d="M9 27h1v1H9z" style="opacity:1;fill:#848684" transform="scale(.75)"/><path d="M10 27h1v1h-1z" style="opacity:1;fill:#040204" transform="scale(.75)"/><path d="M11 27h1v1h-1z" style="opacity:1;fill:#747674" transform="scale(.75)"/><path d="M12 27h1v1h-1zM13 27h1v1h-1z" style="opacity:1;fill:#b4b2b4" transform="scale(.75)"/><path d="M16 27h1v1h-1z" style="opacity:1;fill:#ccce9c" transform="scale(.75)"/><path d="M17 27h1v1h-1z" style="opacity:1;fill:#fcfe9c" transform="scale(.75)"/><path d="M18 27h1v1h-1z" style="opacity:1;fill:#049acc" transform="scale(.75)"/><path d="M19 27h1v1h-1z" style="opacity:1;fill:#049a9c" transform="scale(.75)"/><path d="M20 27h1v1h-1zM21 27h1v1h-1z" style="opacity:1;fill:#9cfecc" transform="scale(.75)"/><path d="M22 27h1v1h-1zM23 27h1v1h-1z" style="opacity:1;fill:#e4e2e4" transform="scale(.75)"/><path d="M24 27h1v1h-1z" style="opacity:1;fill:#343234" transform="scale(.75)"/><path d="M2 28h1v1H2z" style="opacity:1;fill:#848684" transform="scale(.75)"/><path d="M3 28h1v1H3z" style="opacity:1;fill:#fcfafc" transform="scale(.75)"/><path d="M4 28h1v1H4z" style="opacity:1;fill:#cccecc" transform="scale(.75)"/><path d="M5 28h1v1H5z" style="opacity:1;fill:#fcfafc" transform="scale(.75)"/><path d="M6 28h1v1H6z" style="opacity:1;fill:#cccecc" transform="scale(.75)"/><path d="M7 28h1v1H7z" style="opacity:1;fill:#040204" transform="scale(.75)"/><path d="M8 28h1v1H8z" style="opacity:1;fill:#848684" transform="scale(.75)"/><path d="M9 28h1v1H9z" style="opacity:1;fill:#040204" transform="scale(.75)"/><path d="M11 28h1v1h-1z" style="opacity:1;fill:#5c5e5c" transform="scale(.75)"/><path d="M12 28h1v1h-1z" style="opacity:1;fill:#b4b2b4" transform="scale(.75)"/><path d="M16 28h1v1h-1z" style="opacity:1;fill:#ccce9c" transform="scale(.75)"/><path d="M17 28h1v1h-1z" style="opacity:1;fill:#fcfe9c" transform="scale(.75)"/><path d="M18 28h1v1h-1z" style="opacity:1;fill:#34cecc" transform="scale(.75)"/><path d="M19 28h1v1h-1z" style="opacity:1;fill:#049acc" transform="scale(.75)"/><path d="M20 28h1v1h-1z" style="opacity:1;fill:#049a9c" transform="scale(.75)"/><path d="M21 28h1v1h-1zM22 28h1v1h-1zM23 28h1v1h-1z" style="opacity:1;fill:#9cfecc" transform="scale(.75)"/><path d="M24 28h1v1h-1z" style="opacity:1;fill:#343234" transform="scale(.75)"/><path d="M2 29h1v1H2z" style="opacity:1;fill:#848684" transform="scale(.75)"/><path d="M3 29h1v1H3z" style="opacity:1;fill:#cccecc" transform="scale(.75)"/><path d="M4 29h1v1H4z" style="opacity:1;fill:#fcfafc" transform="scale(.75)"/><path d="M5 29h1v1H5z" style="opacity:1;fill:#cccecc" transform="scale(.75)"/><path d="M6 29h1v1H6z" style="opacity:1;fill:#fcfafc" transform="scale(.75)"/><path d="M7 29h1v1H7zM8 29h1v1H8z" style="opacity:1;fill:#040204" transform="scale(.75)"/><path d="M12 29h1v1h-1z" style="opacity:1;fill:#5c5e5c" transform="scale(.75)"/><path d="M15 29h1v1h-1zM16 29h1v1h-1z" style="opacity:1;fill:#ccce9c" transform="scale(.75)"/><path d="M17 29h1v1h-1z" style="opacity:1;fill:#fcfe9c" transform="scale(.75)"/><path d="M18 29h1v1h-1z" style="opacity:1;fill:#ccfecc" transform="scale(.75)"/><path d="M19 29h1v1h-1z" style="opacity:1;fill:#34cecc" transform="scale(.75)"/><path d="M20 29h1v1h-1z" style="opacity:1;fill:#049acc" transform="scale(.75)"/><path d="M21 29h1v1h-1z" style="opacity:1;fill:#049a9c" transform="scale(.75)"/><path d="M22 29h1v1h-1z" style="opacity:1;fill:#9cfecc" transform="scale(.75)"/><path d="M23 29h1v1h-1z" style="opacity:1;fill:#343234" transform="scale(.75)"/><path d="M2 30h1v1H2zM3 30h1v1H3zM4 30h1v1H4zM5 30h1v1H5zM6 30h1v1H6zM7 30h1v1H7z" style="opacity:1;fill:#040204" transform="scale(.75)"/><path d="M13 30h1v1h-1zM14 30h1v1h-1z" style="opacity:1;fill:#5c5e5c" transform="scale(.75)"/><path d="M15 30h1v1h-1zM16 30h1v1h-1z" style="opacity:1;fill:#ccce9c" transform="scale(.75)"/><path d="M17 30h1v1h-1z" style="opacity:1;fill:#fcfe9c" transform="scale(.75)"/><path d="M18 30h1v1h-1z" style="opacity:1;fill:#ccfecc" transform="scale(.75)"/><path d="M19 30h1v1h-1z" style="opacity:1;fill:#34cecc" transform="scale(.75)"/><path d="M20 30h1v1h-1z" style="opacity:1;fill:#049acc" transform="scale(.75)"/><path d="M21 30h1v1h-1zM22 30h1v1h-1z" style="opacity:1;fill:#343234" transform="scale(.75)"/><path d="M15 31h1v1h-1zM16 31h1v1h-1zM17 31h1v1h-1z" style="opacity:1;fill:#5c5e5c" transform="scale(.75)"/><path d="M18 31h1v1h-1zM19 31h1v1h-1zM20 31h1v1h-1z" style="opacity:1;fill:#343234" transform="scale(.75)"/></g></svg>