<svg fill="none" version="1.1" viewBox="0 0 24 24" xmlns="http://www.w3.org/2000/svg">
    <g stroke-width=".53338">
        <path
            d="m23.961 9.5398c0.03815 0.069941 0.07811 0.14312 0.10907 0.21928 0.64853 1.38 0.62217 3.3717-0.1208 4.7212l-2.7035 4.7444c-0.79944-1.2387-1.9193-2.3014-3.2654-3.1043 0.03391-0.05342 0.06407-0.10701 0.09043-0.16059 2.3868-4.8971-0.09043-11.366-6.0708-11.27-6.0858-0.10322-8.4916 6.4837-5.9991 11.446-1.3387 0.80286-2.4509 1.8616-3.2467 3.0966-0.018594-0.040254-0.28335-0.50148-0.64643-1.1344-0.88264-1.5385-2.3469-4.0903-2.272-4.0687-0.50153-1.231-0.49398-2.9131 0.03019-4.1288 0.031479-0.085767 0.070513-0.16845 0.11158-0.24795 0.022817-0.04445 0.04639-0.087944 0.069404-0.13048l3.8535-6.7742c0.0057-0.00773 0.010501-0.01651 0.015278-0.025194 0.00479-0.0085 0.00939-0.016893 0.014909-0.024455 0.79556-1.3419 2.6772-2.4314 4.2118-2.4314h7.7072c1.7496 0 3.3672 0.94809 4.2384 2.4811 0.0088 0.011296 1.349 2.3633 2.4478 4.2916 0.76146 1.3365 1.4069 2.4693 1.4132 2.4788z"
            fill="#0048c5" />
        <path
            d="m8.4555 18.648c2.0247 1.1621 5.094 1.1582 7.0736-0.0078 1.6893 0.84864 2.9186 2.2938 3.2994 3.9912-0.83335 0.6231-1.859 1.0474-2.7866 1.0933-0.06026 0.0077-0.12809 0.0077-0.18852 0.0077-0.05266-0.0014-1.1013-6.91e-4 -2.4139 1.59e-4h-0.06868c-2.2492 0.0014-5.2259 0.0033-5.3226-4e-3 -0.95024-0.02284-2.0174-0.45109-2.8733-1.0971 0.37339-1.6936 1.5989-3.1349 3.2806-3.9835z"
            fill="#0a5be8" />
        <path
            d="m15.808 12.003c0.13189 5.3329-7.7488 5.3291-7.6168 0-0.071624-5.3636 7.6846-5.3636 7.6168 0z"
            fill="#0a5be8" />
    </g>
</svg>