<?xml version="1.0" encoding="UTF-8"?>
<!-- Generator: Adobe Illustrator 21.1.0, SVG Export Plug-In . SVG Version: 6.00 Build 0)  -->
<svg version="1.1" id="Layer_1" xmlns="http://www.w3.org/2000/svg" xmlns:xlink="http://www.w3.org/1999/xlink" x="0px" y="0px" viewBox="0 0 240 240" style="enable-background:new 0 0 240 240;" xml:space="preserve">
<style type="text/css">
	.st0{fill:#2A0034;}
	.st1{fill:#EA77FF;}
</style>
<rect x="10" y="10" class="st0" width="220" height="214"/>
<path class="st1" d="M0,0v234h240V0H0z M10,10h220v214H10V10z M62.3,54.8c0-0.7,0.2-1.2,1-1.2c6.4-0.3,15.8-0.5,25.7-0.5  c27.7,0,39.8,15.2,39.8,34.7c0,25.4-18.4,36.3-41,36.3c-3.8,0-5.1-0.2-7.8-0.2v38.4c0,0.8-0.3,1.2-1.2,1.2H63.4  c-0.8,0-1.2-0.3-1.2-1.2C62.2,162.3,62.2,54.8,62.3,54.8z M80,107.9c2.3,0.2,4.1,0.2,8.1,0.2c11.7,0,22.7-4.1,22.7-20  c0-12.7-7.8-19.1-21.2-19.1c-4,0-7.8,0.2-9.6,0.3C80,69.3,80,107.9,80,107.9z M144,98.8c0-1.2,0-4.1-0.5-9.7c0-0.8,0.1-1,0.8-1.3  c6.1-2.5,20.4-6.9,36.6-6.9c0.8,0,1.2,0.2,1.2,1v14.5c0,0.8-0.3,1-1.1,1c-6.3-0.3-15.4,0.5-18.9,2v63c0,0.8-0.3,1.2-1.2,1.2h-15.7  c-0.8,0-1.2-0.3-1.2-1.2L144,98.8L144,98.8z"/>
<script xmlns=""/></svg>