<?xml version="1.0" encoding="UTF-8"?>
<svg enable-background="new 0 0 240 240" version="1.1" viewBox="0 0 240 240" xml:space="preserve" xmlns="http://www.w3.org/2000/svg"><path d="m10 10h220v220h-220z" clip-rule="evenodd" fill="#180024" fill-rule="evenodd" stroke-width="1.0139"/><path d="m0 0v240h240v-240zm10 10.256h220v219.49h-220zm52.25 45.925c0-0.67692 0.165-1.1846 0.99-1.1846 6.435-0.33846 15.84-0.50769 25.74-0.50769 27.72 0 39.765 15.569 39.765 35.538 0 26.062-18.385 37.231-40.99 37.231-3.795 0-5.115-0.1682-7.755-0.1682v39.415c0 0.84718-0.33 1.1856-1.155 1.1856h-15.44c-0.825 0-1.155-0.33846-1.155-1.1867zm17.75 54.492c2.31 0.16923 4.125 0.16923 8.085 0.16923 11.715 0 22.675-4.2308 22.675-20.477 0-13.031-7.825-19.631-21.19-19.631-3.96 0-7.755 0.17026-9.57 0.33846zm64-9.3077c0-1.1836 0-4.2308-0.495-9.9836 0-0.8482 0.116-1.0154 0.776-1.3538 6.105-2.5385 20.394-7.1077 36.564-7.1077 0.826 0 1.156 0.1682 1.156 1.0154v14.892c0 0.84513-0.266 1.0154-1.09 1.0154-6.27-0.33846-15.445 0.50667-18.91 2.0308v64.631c0 0.84718-0.33 1.1867-1.156 1.1867h-15.69c-0.824 0-1.154-0.33846-1.154-1.1867v-65.138z" clip-rule="evenodd" fill="#e788ff" fill-rule="evenodd" stroke-width="1.0127"/></svg>
