<svg xmlns="http://www.w3.org/2000/svg" xml:space="preserve" width="128" height="128"><path fill="none" d="M0 128V0"/><linearGradient id="a" x1="95.267" x2="26.7" y1="91.926" y2="30.68" gradientUnits="userSpaceOnUse"><stop offset="0" style="stop-color:#a9c8ff"/><stop offset="1" style="stop-color:#c7e6ff"/></linearGradient><path fill="url(#a)" fill-rule="evenodd" d="M9.033 109c-1.633 0-3.046-.638-3.978-1.798-.952-1.185-1.279-2.814-.896-4.47l17.986-77.911C22.899 21.557 26.062 19 29.349 19h89.623c1.634 0 3.047.638 3.978 1.798.952 1.184 1.279 2.814.896 4.47l-17.986 77.911c-.753 3.264-3.917 5.822-7.203 5.822H9.033z" clip-rule="evenodd" opacity=".8"/><linearGradient id="b" x1="26.585" x2="93.585" y1="30.778" y2="90.278" gradientUnits="userSpaceOnUse"><stop offset="0" style="stop-color:#2d4664"/><stop offset=".169" style="stop-color:#29405b"/><stop offset=".445" style="stop-color:#1e2f43"/><stop offset=".79" style="stop-color:#0c131b"/><stop offset="1" style="stop-color:#000"/></linearGradient><path fill="url(#b)" fill-rule="evenodd" d="M118.5 20H29.634c-2.769 0-5.53 2.259-6.168 5.045l-17.834 77.91C4.995 105.742 6.722 108 9.491 108h88.865c2.769 0 5.53-2.258 6.168-5.045l17.834-77.911c.638-2.785-1.09-5.044-3.858-5.044" clip-rule="evenodd"/><path fill="#2C5591" fill-rule="evenodd" d="M64.165 87.558h21.613c2.513 0 4.55 2.125 4.55 4.746s-2.037 4.747-4.55 4.747H64.165c-2.513 0-4.55-2.125-4.55-4.747s2.037-4.746 4.55-4.746M78.184 66.455c-.372.749-1.144 1.575-2.509 2.534L35.562 97.798c-2.19 1.591-5.334 1.001-7.021-1.319s-1.28-5.49.91-7.082l36.173-26.194v-.538L42.896 38.487c-1.854-1.972-1.661-5.161.431-7.124 2.092-1.962 5.29-1.954 7.144.018l27.271 29.012c1.548 1.647 1.663 4.141.442 6.062" clip-rule="evenodd"/><path fill="#FFF" fill-rule="evenodd" d="M77.184 65.455c-.372.749-1.144 1.575-2.509 2.534L34.562 96.798c-2.19 1.591-5.334 1.001-7.021-1.319s-1.28-5.49.91-7.082l36.173-26.194v-.538L41.896 37.487c-1.854-1.972-1.661-5.161.431-7.124 2.092-1.962 5.29-1.954 7.144.018l27.271 29.012c1.548 1.647 1.663 4.141.442 6.062M63.55 87h21.613c2.513 0 4.55 2.015 4.55 4.5s-2.037 4.5-4.55 4.5H63.55C61.037 96 59 93.985 59 91.5s2.037-4.5 4.55-4.5" clip-rule="evenodd"/></svg>