<svg viewBox="0 0 24 24" xml:space="preserve" xmlns="http://www.w3.org/2000/svg" xmlns:xlink="http://www.w3.org/1999/xlink"><defs><radialGradient id="b" cx="32.135" cy="28.274" r="7" gradientTransform="matrix(1.0585 .0893 -.16507 1.9566 2.788 -28.124)" gradientUnits="userSpaceOnUse"><stop stop-color="#fff" offset="0"/><stop stop-color="#009bd8" offset="1"/></radialGradient><radialGradient id="c" cx="34.078" cy="33.655" r="8" gradientTransform="matrix(1.9034 .76037 -.40632 1.0171 -17.11 -25.82)" gradientUnits="userSpaceOnUse"><stop stop-color="#fff" offset="0"/><stop stop-color="#ff3044" offset="1"/></radialGradient><radialGradient id="d" cx="29.661" cy="35.661" r="8" gradientTransform="matrix(-1.7236 1.1486 -.5221 -.78349 99.58 27.6)" gradientUnits="userSpaceOnUse"><stop stop-color="#fff" offset="0"/><stop stop-color="#fcff7c" offset="1"/></radialGradient></defs><g transform="scale(-.40065 -.40064) rotate(-50 -112.452 94.802)"><rect id="a" x="23.695" y="76.346" width="17.461" height="3.017" ry="0" fill-rule="evenodd"/><use transform="translate(-17.461)" width="100%" height="100%" fill="#0019ff" stroke="#0019ff" xlink:href="#a"/><use transform="rotate(1 44.876 -922.62)" width="100%" height="100%" fill="#0015ff" stroke="#0015ff" xlink:href="#a"/><use transform="rotate(2 44.876 -422.37)" width="100%" height="100%" fill="#01f" stroke="#01f" xlink:href="#a"/><use transform="rotate(3 44.876 -255.6)" width="100%" height="100%" fill="#000cff" stroke="#000cff" xlink:href="#a"/><use transform="rotate(4 44.876 -172.2)" width="100%" height="100%" fill="#0008ff" stroke="#0008ff" xlink:href="#a"/><use transform="rotate(5 44.876 -122.15)" width="100%" height="100%" fill="#0004ff" stroke="#0004ff" xlink:href="#a"/><use transform="rotate(6 44.876 -88.78)" width="100%" height="100%" fill="#00f" stroke="#00f" xlink:href="#a"/><use transform="rotate(7 44.876 -64.934)" width="100%" height="100%" fill="#0500ff" stroke="#0500ff" xlink:href="#a"/><use transform="rotate(8 44.876 -47.043)" width="100%" height="100%" fill="#0900ff" stroke="#0900ff" xlink:href="#a"/><use transform="rotate(9 44.876 -33.123)" width="100%" height="100%" fill="#0d00ff" stroke="#0d00ff" xlink:href="#a"/><use transform="rotate(10 44.876 -21.98)" width="100%" height="100%" fill="#10f" stroke="#10f" xlink:href="#a"/><use transform="rotate(11 44.876 -12.86)" width="100%" height="100%" fill="#1600ff" stroke="#1600ff" xlink:href="#a"/><use transform="rotate(12 44.876 -5.256)" width="100%" height="100%" fill="#1a00ff" stroke="#1a00ff" xlink:href="#a"/><use transform="rotate(13 44.876 1.183)" width="100%" height="100%" fill="#1e00ff" stroke="#1e00ff" xlink:href="#a"/><use transform="rotate(14 44.876 6.705)" width="100%" height="100%" fill="#20f" stroke="#20f" xlink:href="#a"/><use transform="rotate(15 44.876 11.495)" width="100%" height="100%" fill="#2700ff" stroke="#2700ff" xlink:href="#a"/><use transform="rotate(16 44.876 15.689)" width="100%" height="100%" fill="#2b00ff" stroke="#2b00ff" xlink:href="#a"/><use transform="rotate(17 44.876 19.393)" width="100%" height="100%" fill="#2f00ff" stroke="#2f00ff" xlink:href="#a"/><use transform="rotate(18 44.876 22.688)" width="100%" height="100%" fill="#30f" stroke="#30f" xlink:href="#a"/><use transform="rotate(19 44.876 25.638)" width="100%" height="100%" fill="#3800ff" stroke="#3800ff" xlink:href="#a"/><use transform="rotate(20 44.876 28.297)" width="100%" height="100%" fill="#3c00ff" stroke="#3c00ff" xlink:href="#a"/><use transform="rotate(21 44.876 30.704)" width="100%" height="100%" fill="#4000ff" stroke="#4000ff" xlink:href="#a"/><use transform="rotate(22 44.876 32.895)" width="100%" height="100%" fill="#40f" stroke="#40f" xlink:href="#a"/><use transform="rotate(23 44.876 34.898)" width="100%" height="100%" fill="#4800ff" stroke="#4800ff" xlink:href="#a"/><use transform="rotate(24 44.876 36.736)" width="100%" height="100%" fill="#4d00ff" stroke="#4d00ff" xlink:href="#a"/><use transform="rotate(25 44.876 38.43)" width="100%" height="100%" fill="#5100ff" stroke="#5100ff" xlink:href="#a"/><use transform="rotate(26 44.876 39.994)" width="100%" height="100%" fill="#50f" stroke="#50f" xlink:href="#a"/><use transform="rotate(27 44.876 41.445)" width="100%" height="100%" fill="#5900ff" stroke="#5900ff" xlink:href="#a"/><use transform="rotate(28 44.876 42.794)" width="100%" height="100%" fill="#5e00ff" stroke="#5e00ff" xlink:href="#a"/><use transform="rotate(29 44.876 44.052)" width="100%" height="100%" fill="#6200ff" stroke="#6200ff" xlink:href="#a"/><use transform="rotate(30 44.876 45.227)" width="100%" height="100%" fill="#60f" stroke="#60f" xlink:href="#a"/><use transform="rotate(31 44.876 46.329)" width="100%" height="100%" fill="#6a00ff" stroke="#6a00ff" xlink:href="#a"/><use transform="rotate(32 44.876 47.363)" width="100%" height="100%" fill="#6f00ff" stroke="#6f00ff" xlink:href="#a"/><use transform="rotate(33 44.876 48.336)" width="100%" height="100%" fill="#7300ff" stroke="#7300ff" xlink:href="#a"/><use transform="rotate(34 44.876 49.254)" width="100%" height="100%" fill="#70f" stroke="#70f" xlink:href="#a"/><use transform="rotate(35 44.876 50.12)" width="100%" height="100%" fill="#7b00ff" stroke="#7b00ff" xlink:href="#a"/><use transform="rotate(36 44.876 50.94)" width="100%" height="100%" fill="#8000ff" stroke="#8000ff" xlink:href="#a"/><use transform="rotate(37 44.876 51.717)" width="100%" height="100%" fill="#8400ff" stroke="#8400ff" xlink:href="#a"/><use transform="rotate(38 44.876 52.455)" width="100%" height="100%" fill="#80f" stroke="#80f" xlink:href="#a"/><use transform="rotate(39 44.876 53.156)" width="100%" height="100%" fill="#8c00ff" stroke="#8c00ff" xlink:href="#a"/><use transform="rotate(40 44.876 53.823)" width="100%" height="100%" fill="#9100ff" stroke="#9100ff" xlink:href="#a"/><use transform="rotate(41 44.876 54.46)" width="100%" height="100%" fill="#9500ff" stroke="#9500ff" xlink:href="#a"/><use transform="rotate(42 44.876 55.066)" width="100%" height="100%" fill="#90f" stroke="#90f" xlink:href="#a"/><use transform="rotate(43 44.876 55.646)" width="100%" height="100%" fill="#9d00ff" stroke="#9d00ff" xlink:href="#a"/><use transform="rotate(44 44.876 56.201)" width="100%" height="100%" fill="#a100ff" stroke="#a100ff" xlink:href="#a"/><use transform="rotate(45 44.876 56.733)" width="100%" height="100%" fill="#a600ff" stroke="#a600ff" xlink:href="#a"/><use transform="rotate(46 44.876 57.242)" width="100%" height="100%" fill="#a0f" stroke="#a0f" xlink:href="#a"/><use transform="rotate(47 44.876 57.731)" width="100%" height="100%" fill="#ae00ff" stroke="#ae00ff" xlink:href="#a"/><use transform="rotate(48 44.876 58.201)" width="100%" height="100%" fill="#b200ff" stroke="#b200ff" xlink:href="#a"/><use transform="rotate(49 44.876 58.653)" width="100%" height="100%" fill="#b700ff" stroke="#b700ff" xlink:href="#a"/><use transform="rotate(50 44.876 59.088)" width="100%" height="100%" fill="#b0f" stroke="#b0f" xlink:href="#a"/><use transform="rotate(51 44.876 59.506)" width="100%" height="100%" fill="#bf00ff" stroke="#bf00ff" xlink:href="#a"/><use transform="rotate(52 44.876 59.91)" width="100%" height="100%" fill="#c300ff" stroke="#c300ff" xlink:href="#a"/><use transform="rotate(53 44.876 60.3)" width="100%" height="100%" fill="#c800ff" stroke="#c800ff" xlink:href="#a"/><use transform="rotate(54 44.876 60.676)" width="100%" height="100%" fill="#c0f" stroke="#c0f" xlink:href="#a"/><use transform="rotate(55 44.876 61.04)" width="100%" height="100%" fill="#d000ff" stroke="#d000ff" xlink:href="#a"/><use transform="rotate(56 44.876 61.39)" width="100%" height="100%" fill="#d400ff" stroke="#d400ff" xlink:href="#a"/><use transform="rotate(57 44.876 61.73)" width="100%" height="100%" fill="#d900ff" stroke="#d900ff" xlink:href="#a"/><use transform="rotate(58 44.876 62.06)" width="100%" height="100%" fill="#d0f" stroke="#d0f" xlink:href="#a"/><use transform="rotate(59 44.876 62.38)" width="100%" height="100%" fill="#e100ff" stroke="#e100ff" xlink:href="#a"/><use transform="rotate(60 44.876 62.689)" width="100%" height="100%" fill="#e500ff" stroke="#e500ff" xlink:href="#a"/><use transform="rotate(61 44.876 62.989)" width="100%" height="100%" fill="#ea00ff" stroke="#ea00ff" xlink:href="#a"/><use transform="rotate(62 44.876 63.28)" width="100%" height="100%" fill="#e0f" stroke="#e0f" xlink:href="#a"/><use transform="rotate(63 44.876 63.563)" width="100%" height="100%" fill="#f200ff" stroke="#f200ff" xlink:href="#a"/><use transform="rotate(64 44.876 63.839)" width="100%" height="100%" fill="#f600ff" stroke="#f600ff" xlink:href="#a"/><use transform="rotate(65 44.876 64.106)" width="100%" height="100%" fill="#fa00ff" stroke="#fa00ff" xlink:href="#a"/><use transform="rotate(66 44.876 64.366)" width="100%" height="100%" fill="#f0f" stroke="#f0f" xlink:href="#a"/><use transform="rotate(67 44.876 64.62)" width="100%" height="100%" fill="#ff00fb" stroke="#ff00fb" xlink:href="#a"/><use transform="rotate(68 44.876 64.867)" width="100%" height="100%" fill="#ff00f7" stroke="#ff00f7" xlink:href="#a"/><use transform="rotate(69 44.876 65.107)" width="100%" height="100%" fill="#ff00f3" stroke="#ff00f3" xlink:href="#a"/><use transform="rotate(70 44.876 65.342)" width="100%" height="100%" fill="#f0e" stroke="#f0e" xlink:href="#a"/><use transform="rotate(71 44.876 65.57)" width="100%" height="100%" fill="#ff00ea" stroke="#ff00ea" xlink:href="#a"/><use transform="rotate(72 44.876 65.794)" width="100%" height="100%" fill="#ff00e6" stroke="#ff00e6" xlink:href="#a"/><use transform="rotate(73 44.876 66.012)" width="100%" height="100%" fill="#ff00e2" stroke="#ff00e2" xlink:href="#a"/><use transform="rotate(74 44.876 66.225)" width="100%" height="100%" fill="#f0d" stroke="#f0d" xlink:href="#a"/><use transform="rotate(75 44.876 66.432)" width="100%" height="100%" fill="#ff00d9" stroke="#ff00d9" xlink:href="#a"/><use transform="rotate(76 44.876 66.636)" width="100%" height="100%" fill="#ff00d5" stroke="#ff00d5" xlink:href="#a"/><use transform="rotate(77 44.876 66.835)" width="100%" height="100%" fill="#ff00d1" stroke="#ff00d1" xlink:href="#a"/><use transform="rotate(78 44.876 67.029)" width="100%" height="100%" fill="#f0c" stroke="#f0c" xlink:href="#a"/><use transform="rotate(79 44.876 67.22)" width="100%" height="100%" fill="#ff00c8" stroke="#ff00c8" xlink:href="#a"/><use transform="rotate(80 44.876 67.406)" width="100%" height="100%" fill="#ff00c4" stroke="#ff00c4" xlink:href="#a"/><use transform="rotate(81 44.876 67.588)" width="100%" height="100%" fill="#ff00c0" stroke="#ff00c0" xlink:href="#a"/><use transform="rotate(82 44.876 67.767)" width="100%" height="100%" fill="#f0b" stroke="#f0b" xlink:href="#a"/><use transform="rotate(83 44.876 67.942)" width="100%" height="100%" fill="#ff00b7" stroke="#ff00b7" xlink:href="#a"/><use transform="rotate(84 44.876 68.114)" width="100%" height="100%" fill="#ff00b3" stroke="#ff00b3" xlink:href="#a"/><use transform="rotate(85 44.876 68.283)" width="100%" height="100%" fill="#ff00af" stroke="#ff00af" xlink:href="#a"/><use transform="rotate(86 44.876 68.448)" width="100%" height="100%" fill="#ff00ab" stroke="#ff00ab" xlink:href="#a"/><use transform="rotate(87 44.876 68.61)" width="100%" height="100%" fill="#ff00a6" stroke="#ff00a6" xlink:href="#a"/><use transform="rotate(88 44.876 68.77)" width="100%" height="100%" fill="#ff00a2" stroke="#ff00a2" xlink:href="#a"/><use transform="rotate(89 44.876 68.926)" width="100%" height="100%" fill="#ff009e" stroke="#ff009e" xlink:href="#a"/><use transform="rotate(90 44.876 69.08)" width="100%" height="100%" fill="#ff009a" stroke="#ff009a" xlink:href="#a"/><use transform="rotate(91 44.876 69.23)" width="100%" height="100%" fill="#ff0095" stroke="#ff0095" xlink:href="#a"/><use transform="rotate(92 44.876 69.38)" width="100%" height="100%" fill="#ff0091" stroke="#ff0091" xlink:href="#a"/><use transform="rotate(93 44.876 69.525)" width="100%" height="100%" fill="#ff008d" stroke="#ff008d" xlink:href="#a"/><use transform="rotate(94 44.876 69.669)" width="100%" height="100%" fill="#ff0089" stroke="#ff0089" xlink:href="#a"/><use transform="rotate(95 44.876 69.81)" width="100%" height="100%" fill="#ff0084" stroke="#ff0084" xlink:href="#a"/><use transform="rotate(96 44.876 69.95)" width="100%" height="100%" fill="#ff0080" stroke="#ff0080" xlink:href="#a"/><use transform="rotate(97 44.876 70.086)" width="100%" height="100%" fill="#ff007c" stroke="#ff007c" xlink:href="#a"/><use transform="rotate(98 44.876 70.221)" width="100%" height="100%" fill="#ff0078" stroke="#ff0078" xlink:href="#a"/><use transform="rotate(99 44.876 70.354)" width="100%" height="100%" fill="#ff0073" stroke="#ff0073" xlink:href="#a"/><use transform="rotate(100 44.876 70.485)" width="100%" height="100%" fill="#ff006f" stroke="#ff006f" xlink:href="#a"/><use transform="rotate(101 44.876 70.613)" width="100%" height="100%" fill="#ff006b" stroke="#ff006b" xlink:href="#a"/><use transform="rotate(102 44.876 70.74)" width="100%" height="100%" fill="#ff0067" stroke="#ff0067" xlink:href="#a"/><use transform="rotate(103 44.876 70.866)" width="100%" height="100%" fill="#ff0062" stroke="#ff0062" xlink:href="#a"/><use transform="rotate(104 44.876 70.99)" width="100%" height="100%" fill="#ff005e" stroke="#ff005e" xlink:href="#a"/><use transform="rotate(105 44.876 71.111)" width="100%" height="100%" fill="#ff005a" stroke="#ff005a" xlink:href="#a"/><use transform="rotate(106 44.876 71.231)" width="100%" height="100%" fill="#ff0056" stroke="#ff0056" xlink:href="#a"/><use transform="rotate(107 44.876 71.35)" width="100%" height="100%" fill="#ff0052" stroke="#ff0052" xlink:href="#a"/><use transform="rotate(108 44.876 71.467)" width="100%" height="100%" fill="#ff004d" stroke="#ff004d" xlink:href="#a"/><use transform="rotate(109 44.876 71.583)" width="100%" height="100%" fill="#ff0049" stroke="#ff0049" xlink:href="#a"/><use transform="rotate(110 44.876 71.697)" width="100%" height="100%" fill="#ff0045" stroke="#ff0045" xlink:href="#a"/><use transform="rotate(111 44.876 71.81)" width="100%" height="100%" fill="#ff0041" stroke="#ff0041" xlink:href="#a"/><use transform="rotate(112 44.876 71.922)" width="100%" height="100%" fill="#ff003c" stroke="#ff003c" xlink:href="#a"/><use transform="rotate(113 44.876 72.032)" width="100%" height="100%" fill="#ff0038" stroke="#ff0038" xlink:href="#a"/><use transform="rotate(114 44.876 72.14)" width="100%" height="100%" fill="#ff0034" stroke="#ff0034" xlink:href="#a"/><use transform="rotate(115 44.876 72.248)" width="100%" height="100%" fill="#ff0030" stroke="#ff0030" xlink:href="#a"/><use transform="rotate(116 44.876 72.355)" width="100%" height="100%" fill="#ff002b" stroke="#ff002b" xlink:href="#a"/><use transform="rotate(117 44.876 72.46)" width="100%" height="100%" fill="#ff0027" stroke="#ff0027" xlink:href="#a"/><use transform="rotate(118 44.876 72.565)" width="100%" height="100%" fill="#ff0023" stroke="#ff0023" xlink:href="#a"/><use transform="rotate(119 44.876 72.668)" width="100%" height="100%" fill="#ff001f" stroke="#ff001f" xlink:href="#a"/><use transform="rotate(120 44.876 72.77)" width="100%" height="100%" fill="#ff001a" stroke="#ff001a" xlink:href="#a"/><use transform="rotate(121 44.876 72.87)" width="100%" height="100%" fill="#ff0016" stroke="#ff0016" xlink:href="#a"/><use transform="rotate(122 44.876 72.971)" width="100%" height="100%" fill="#ff0012" stroke="#ff0012" xlink:href="#a"/><use transform="rotate(123 44.876 73.07)" width="100%" height="100%" fill="#ff000e" stroke="#ff000e" xlink:href="#a"/><use transform="rotate(124 44.876 73.168)" width="100%" height="100%" fill="#ff0009" stroke="#ff0009" xlink:href="#a"/><use transform="rotate(125 44.876 73.266)" width="100%" height="100%" fill="#ff0005" stroke="#ff0005" xlink:href="#a"/><use transform="rotate(126 44.876 73.362)" width="100%" height="100%" fill="#ff0001" stroke="#ff0001" xlink:href="#a"/><use transform="rotate(127 44.876 73.458)" width="100%" height="100%" fill="#ff0300" stroke="#ff0300" xlink:href="#a"/><use transform="rotate(128 44.876 73.552)" width="100%" height="100%" fill="#ff0700" stroke="#ff0700" xlink:href="#a"/><use transform="rotate(129 44.876 73.646)" width="100%" height="100%" fill="#ff0c00" stroke="#ff0c00" xlink:href="#a"/><use transform="rotate(130 44.876 73.74)" width="100%" height="100%" fill="#ff1000" stroke="#ff1000" xlink:href="#a"/><use transform="rotate(131 44.876 73.832)" width="100%" height="100%" fill="#ff1400" stroke="#ff1400" xlink:href="#a"/><use transform="rotate(132 44.876 73.923)" width="100%" height="100%" fill="#ff1800" stroke="#ff1800" xlink:href="#a"/><use transform="rotate(133 44.876 74.014)" width="100%" height="100%" fill="#ff1d00" stroke="#ff1d00" xlink:href="#a"/><use transform="rotate(134 44.876 74.105)" width="100%" height="100%" fill="#ff2100" stroke="#ff2100" xlink:href="#a"/><use transform="rotate(135 44.876 74.194)" width="100%" height="100%" fill="#ff2500" stroke="#ff2500" xlink:href="#a"/><use transform="rotate(136 44.876 74.283)" width="100%" height="100%" fill="#ff2900" stroke="#ff2900" xlink:href="#a"/><use transform="rotate(137 44.876 74.371)" width="100%" height="100%" fill="#ff2e00" stroke="#ff2e00" xlink:href="#a"/><use transform="rotate(138 44.876 74.46)" width="100%" height="100%" fill="#ff3200" stroke="#ff3200" xlink:href="#a"/><use transform="rotate(139 44.876 74.546)" width="100%" height="100%" fill="#ff3600" stroke="#ff3600" xlink:href="#a"/><use transform="rotate(140 44.876 74.633)" width="100%" height="100%" fill="#ff3a00" stroke="#ff3a00" xlink:href="#a"/><use transform="rotate(141 44.876 74.719)" width="100%" height="100%" fill="#ff3f00" stroke="#ff3f00" xlink:href="#a"/><use transform="rotate(142 44.876 74.804)" width="100%" height="100%" fill="#ff4300" stroke="#ff4300" xlink:href="#a"/><use transform="rotate(143 44.876 74.89)" width="100%" height="100%" fill="#ff4700" stroke="#ff4700" xlink:href="#a"/><use transform="rotate(144 44.876 74.974)" width="100%" height="100%" fill="#ff4b00" stroke="#ff4b00" xlink:href="#a"/><use transform="rotate(145 44.876 75.058)" width="100%" height="100%" fill="#ff5000" stroke="#ff5000" xlink:href="#a"/><use transform="rotate(146 44.876 75.141)" width="100%" height="100%" fill="#ff5400" stroke="#ff5400" xlink:href="#a"/><use transform="rotate(147 44.876 75.224)" width="100%" height="100%" fill="#ff5800" stroke="#ff5800" xlink:href="#a"/><use transform="rotate(148 44.876 75.307)" width="100%" height="100%" fill="#ff5c00" stroke="#ff5c00" xlink:href="#a"/><use transform="rotate(149 44.876 75.39)" width="100%" height="100%" fill="#ff6000" stroke="#ff6000" xlink:href="#a"/><use transform="rotate(150 44.876 75.471)" width="100%" height="100%" fill="#ff6500" stroke="#ff6500" xlink:href="#a"/><use transform="rotate(151 44.876 75.553)" width="100%" height="100%" fill="#ff6900" stroke="#ff6900" xlink:href="#a"/><use transform="rotate(152 44.876 75.634)" width="100%" height="100%" fill="#ff6d00" stroke="#ff6d00" xlink:href="#a"/><use transform="rotate(153 44.876 75.714)" width="100%" height="100%" fill="#ff7100" stroke="#ff7100" xlink:href="#a"/><use transform="rotate(154 44.876 75.795)" width="100%" height="100%" fill="#ff7600" stroke="#ff7600" xlink:href="#a"/><use transform="rotate(155 44.876 75.875)" width="100%" height="100%" fill="#ff7a00" stroke="#ff7a00" xlink:href="#a"/><use transform="rotate(156 44.876 75.955)" width="100%" height="100%" fill="#ff7e00" stroke="#ff7e00" xlink:href="#a"/><use transform="rotate(157 44.876 76.034)" width="100%" height="100%" fill="#ff8200" stroke="#ff8200" xlink:href="#a"/><use transform="rotate(158 44.876 76.113)" width="100%" height="100%" fill="#ff8700" stroke="#ff8700" xlink:href="#a"/><use transform="rotate(159 44.876 76.192)" width="100%" height="100%" fill="#ff8b00" stroke="#ff8b00" xlink:href="#a"/><use transform="rotate(160 44.876 76.271)" width="100%" height="100%" fill="#ff8f00" stroke="#ff8f00" xlink:href="#a"/><use transform="rotate(161 44.876 76.35)" width="100%" height="100%" fill="#ff9300" stroke="#ff9300" xlink:href="#a"/><use transform="rotate(162 44.876 76.428)" width="100%" height="100%" fill="#ff9800" stroke="#ff9800" xlink:href="#a"/><use transform="rotate(163 44.876 76.506)" width="100%" height="100%" fill="#ff9c00" stroke="#ff9c00" xlink:href="#a"/><use transform="rotate(164 44.876 76.583)" width="100%" height="100%" fill="#ffa000" stroke="#ffa000" xlink:href="#a"/><use transform="rotate(165 44.876 76.661)" width="100%" height="100%" fill="#ffa400" stroke="#ffa400" xlink:href="#a"/><use transform="rotate(166 44.876 76.738)" width="100%" height="100%" fill="#ffa900" stroke="#ffa900" xlink:href="#a"/><use transform="rotate(167 44.876 76.816)" width="100%" height="100%" fill="#ffad00" stroke="#ffad00" xlink:href="#a"/><use transform="rotate(168 44.876 76.893)" width="100%" height="100%" fill="#ffb100" stroke="#ffb100" xlink:href="#a"/><use transform="rotate(169 44.876 76.97)" width="100%" height="100%" fill="#ffb500" stroke="#ffb500" xlink:href="#a"/><use transform="rotate(170 44.876 77.047)" width="100%" height="100%" fill="#ffb900" stroke="#ffb900" xlink:href="#a"/><use transform="rotate(171 44.876 77.123)" width="100%" height="100%" fill="#ffbe00" stroke="#ffbe00" xlink:href="#a"/><use transform="rotate(172 44.876 77.2)" width="100%" height="100%" fill="#ffc200" stroke="#ffc200" xlink:href="#a"/><use transform="rotate(173 44.876 77.276)" width="100%" height="100%" fill="#ffc600" stroke="#ffc600" xlink:href="#a"/><use transform="rotate(174 44.876 77.353)" width="100%" height="100%" fill="#ffca00" stroke="#ffca00" xlink:href="#a"/><use transform="rotate(175 44.876 77.43)" width="100%" height="100%" fill="#ffcf00" stroke="#ffcf00" xlink:href="#a"/><use transform="rotate(176 44.876 77.506)" width="100%" height="100%" fill="#ffd300" stroke="#ffd300" xlink:href="#a"/><use transform="rotate(177 44.876 77.582)" width="100%" height="100%" fill="gold" stroke="gold" xlink:href="#a"/><use transform="rotate(178 44.876 77.658)" width="100%" height="100%" fill="#ffdb00" stroke="#ffdb00" xlink:href="#a"/><use transform="rotate(179 44.876 77.734)" width="100%" height="100%" fill="#ffe000" stroke="#ffe000" xlink:href="#a"/><use transform="rotate(180 44.876 77.81)" width="100%" height="100%" fill="#ffe400" stroke="#ffe400" xlink:href="#a"/><use transform="rotate(181 44.876 77.887)" width="100%" height="100%" fill="#ffe800" stroke="#ffe800" xlink:href="#a"/><use transform="rotate(182 44.876 77.963)" width="100%" height="100%" fill="#ffec00" stroke="#ffec00" xlink:href="#a"/><use transform="rotate(183 44.876 78.04)" width="100%" height="100%" fill="#fff100" stroke="#fff100" xlink:href="#a"/><use transform="rotate(184 44.876 78.115)" width="100%" height="100%" fill="#fff500" stroke="#fff500" xlink:href="#a"/><use transform="rotate(185 44.876 78.192)" width="100%" height="100%" fill="#fff900" stroke="#fff900" xlink:href="#a"/><use transform="rotate(186 44.876 78.268)" width="100%" height="100%" fill="#fffd00" stroke="#fffd00" xlink:href="#a"/><use transform="rotate(187 44.876 78.344)" width="100%" height="100%" fill="#fcff00" stroke="#fcff00" xlink:href="#a"/><use transform="rotate(188 44.876 78.421)" width="100%" height="100%" fill="#f8ff00" stroke="#f8ff00" xlink:href="#a"/><use transform="rotate(189 44.876 78.498)" width="100%" height="100%" fill="#f4ff00" stroke="#f4ff00" xlink:href="#a"/><use transform="rotate(190 44.876 78.574)" width="100%" height="100%" fill="#f0ff00" stroke="#f0ff00" xlink:href="#a"/><use transform="rotate(191 44.876 78.651)" width="100%" height="100%" fill="#ecff00" stroke="#ecff00" xlink:href="#a"/><use transform="rotate(192 44.876 78.728)" width="100%" height="100%" fill="#e7ff00" stroke="#e7ff00" xlink:href="#a"/><use transform="rotate(193 44.876 78.805)" width="100%" height="100%" fill="#e3ff00" stroke="#e3ff00" xlink:href="#a"/><use transform="rotate(194 44.876 78.882)" width="100%" height="100%" fill="#dfff00" stroke="#dfff00" xlink:href="#a"/><use transform="rotate(195 44.876 78.96)" width="100%" height="100%" fill="#dbff00" stroke="#dbff00" xlink:href="#a"/><use transform="rotate(196 44.876 79.037)" width="100%" height="100%" fill="#d6ff00" stroke="#d6ff00" xlink:href="#a"/><use transform="rotate(197 44.876 79.115)" width="100%" height="100%" fill="#d2ff00" stroke="#d2ff00" xlink:href="#a"/><use transform="rotate(198 44.876 79.193)" width="100%" height="100%" fill="#ceff00" stroke="#ceff00" xlink:href="#a"/><use transform="rotate(199 44.876 79.271)" width="100%" height="100%" fill="#caff00" stroke="#caff00" xlink:href="#a"/><use transform="rotate(200 44.876 79.35)" width="100%" height="100%" fill="#c5ff00" stroke="#c5ff00" xlink:href="#a"/><use transform="rotate(201 44.876 79.429)" width="100%" height="100%" fill="#c1ff00" stroke="#c1ff00" xlink:href="#a"/><use transform="rotate(202 44.876 79.508)" width="100%" height="100%" fill="#bdff00" stroke="#bdff00" xlink:href="#a"/><use transform="rotate(203 44.876 79.587)" width="100%" height="100%" fill="#b9ff00" stroke="#b9ff00" xlink:href="#a"/><use transform="rotate(204 44.876 79.666)" width="100%" height="100%" fill="#b4ff00" stroke="#b4ff00" xlink:href="#a"/><use transform="rotate(205 44.876 79.746)" width="100%" height="100%" fill="#b0ff00" stroke="#b0ff00" xlink:href="#a"/><use transform="rotate(206 44.876 79.826)" width="100%" height="100%" fill="#acff00" stroke="#acff00" xlink:href="#a"/><use transform="rotate(207 44.876 79.906)" width="100%" height="100%" fill="#a8ff00" stroke="#a8ff00" xlink:href="#a"/><use transform="rotate(208 44.876 79.987)" width="100%" height="100%" fill="#a3ff00" stroke="#a3ff00" xlink:href="#a"/><use transform="rotate(209 44.876 80.068)" width="100%" height="100%" fill="#9fff00" stroke="#9fff00" xlink:href="#a"/><use transform="rotate(210 44.876 80.15)" width="100%" height="100%" fill="#9bff00" stroke="#9bff00" xlink:href="#a"/><use transform="rotate(211 44.876 80.232)" width="100%" height="100%" fill="#97ff00" stroke="#97ff00" xlink:href="#a"/><use transform="rotate(212 44.876 80.314)" width="100%" height="100%" fill="#93ff00" stroke="#93ff00" xlink:href="#a"/><use transform="rotate(213 44.876 80.397)" width="100%" height="100%" fill="#8eff00" stroke="#8eff00" xlink:href="#a"/><use transform="rotate(214 44.876 80.48)" width="100%" height="100%" fill="#8aff00" stroke="#8aff00" xlink:href="#a"/><use transform="rotate(215 44.876 80.563)" width="100%" height="100%" fill="#86ff00" stroke="#86ff00" xlink:href="#a"/><use transform="rotate(216 44.876 80.647)" width="100%" height="100%" fill="#82ff00" stroke="#82ff00" xlink:href="#a"/><use transform="rotate(217 44.876 80.732)" width="100%" height="100%" fill="#7dff00" stroke="#7dff00" xlink:href="#a"/><use transform="rotate(218 44.876 80.817)" width="100%" height="100%" fill="#79ff00" stroke="#79ff00" xlink:href="#a"/><use transform="rotate(219 44.876 80.902)" width="100%" height="100%" fill="#75ff00" stroke="#75ff00" xlink:href="#a"/><use transform="rotate(220 44.876 80.988)" width="100%" height="100%" fill="#71ff00" stroke="#71ff00" xlink:href="#a"/><use transform="rotate(221 44.876 81.075)" width="100%" height="100%" fill="#6cff00" stroke="#6cff00" xlink:href="#a"/><use transform="rotate(222 44.876 81.162)" width="100%" height="100%" fill="#68ff00" stroke="#68ff00" xlink:href="#a"/><use transform="rotate(223 44.876 81.25)" width="100%" height="100%" fill="#64ff00" stroke="#64ff00" xlink:href="#a"/><use transform="rotate(224 44.876 81.338)" width="100%" height="100%" fill="#60ff00" stroke="#60ff00" xlink:href="#a"/><use transform="rotate(225 44.876 81.427)" width="100%" height="100%" fill="#5bff00" stroke="#5bff00" xlink:href="#a"/><use transform="rotate(226 44.876 81.516)" width="100%" height="100%" fill="#57ff00" stroke="#57ff00" xlink:href="#a"/><use transform="rotate(227 44.876 81.607)" width="100%" height="100%" fill="#53ff00" stroke="#53ff00" xlink:href="#a"/><use transform="rotate(228 44.876 81.698)" width="100%" height="100%" fill="#4fff00" stroke="#4fff00" xlink:href="#a"/><use transform="rotate(229 44.876 81.79)" width="100%" height="100%" fill="#4aff00" stroke="#4aff00" xlink:href="#a"/><use transform="rotate(230 44.876 81.882)" width="100%" height="100%" fill="#46ff00" stroke="#46ff00" xlink:href="#a"/><use transform="rotate(231 44.876 81.975)" width="100%" height="100%" fill="#42ff00" stroke="#42ff00" xlink:href="#a"/><use transform="rotate(232 44.876 82.069)" width="100%" height="100%" fill="#3eff00" stroke="#3eff00" xlink:href="#a"/><use transform="rotate(233 44.876 82.163)" width="100%" height="100%" fill="#3aff00" stroke="#3aff00" xlink:href="#a"/><use transform="rotate(234 44.876 82.259)" width="100%" height="100%" fill="#35ff00" stroke="#35ff00" xlink:href="#a"/><use transform="rotate(235 44.876 82.355)" width="100%" height="100%" fill="#31ff00" stroke="#31ff00" xlink:href="#a"/><use transform="rotate(236 44.876 82.453)" width="100%" height="100%" fill="#2dff00" stroke="#2dff00" xlink:href="#a"/><use transform="rotate(237 44.876 82.55)" width="100%" height="100%" fill="#29ff00" stroke="#29ff00" xlink:href="#a"/><use transform="rotate(238 44.876 82.65)" width="100%" height="100%" fill="#24ff00" stroke="#24ff00" xlink:href="#a"/><use transform="rotate(239 44.876 82.75)" width="100%" height="100%" fill="#20ff00" stroke="#20ff00" xlink:href="#a"/><use transform="rotate(240 44.876 82.851)" width="100%" height="100%" fill="#1cff00" stroke="#1cff00" xlink:href="#a"/><use transform="rotate(241 44.876 82.953)" width="100%" height="100%" fill="#18ff00" stroke="#18ff00" xlink:href="#a"/><use transform="rotate(242 44.876 83.056)" width="100%" height="100%" fill="#13ff00" stroke="#13ff00" xlink:href="#a"/><use transform="rotate(243 44.876 83.16)" width="100%" height="100%" fill="#0fff00" stroke="#0fff00" xlink:href="#a"/><use transform="rotate(244 44.876 83.266)" width="100%" height="100%" fill="#0bff00" stroke="#0bff00" xlink:href="#a"/><use transform="rotate(245 44.876 83.372)" width="100%" height="100%" fill="#07ff00" stroke="#07ff00" xlink:href="#a"/><use transform="rotate(246 44.876 83.48)" width="100%" height="100%" fill="#02ff00" stroke="#02ff00" xlink:href="#a"/><use transform="rotate(247 44.876 83.59)" width="100%" height="100%" fill="#00ff02" stroke="#00ff02" xlink:href="#a"/><use transform="rotate(248 44.876 83.7)" width="100%" height="100%" fill="#00ff06" stroke="#00ff06" xlink:href="#a"/><use transform="rotate(249 44.876 83.81)" width="100%" height="100%" fill="#00ff0a" stroke="#00ff0a" xlink:href="#a"/><use transform="rotate(250 44.876 83.924)" width="100%" height="100%" fill="#00ff0f" stroke="#00ff0f" xlink:href="#a"/><use transform="rotate(251 44.876 84.038)" width="100%" height="100%" fill="#00ff13" stroke="#00ff13" xlink:href="#a"/><use transform="rotate(252 44.876 84.154)" width="100%" height="100%" fill="#00ff17" stroke="#00ff17" xlink:href="#a"/><use transform="rotate(253 44.876 84.27)" width="100%" height="100%" fill="#00ff1b" stroke="#00ff1b" xlink:href="#a"/><use transform="rotate(254 44.876 84.39)" width="100%" height="100%" fill="#00ff1f" stroke="#00ff1f" xlink:href="#a"/><use transform="rotate(255 44.876 84.51)" width="100%" height="100%" fill="#00ff24" stroke="#00ff24" xlink:href="#a"/><use transform="rotate(256 44.876 84.632)" width="100%" height="100%" fill="#00ff28" stroke="#00ff28" xlink:href="#a"/><use transform="rotate(257 44.876 84.755)" width="100%" height="100%" fill="#00ff2c" stroke="#00ff2c" xlink:href="#a"/><use transform="rotate(258 44.876 84.88)" width="100%" height="100%" fill="#00ff30" stroke="#00ff30" xlink:href="#a"/><use transform="rotate(259 44.876 85.007)" width="100%" height="100%" fill="#00ff35" stroke="#00ff35" xlink:href="#a"/><use transform="rotate(260 44.876 85.136)" width="100%" height="100%" fill="#00ff39" stroke="#00ff39" xlink:href="#a"/><use transform="rotate(-99 44.876 85.267)" width="100%" height="100%" fill="#00ff3d" stroke="#00ff3d" xlink:href="#a"/><use transform="rotate(-98 44.876 85.4)" width="100%" height="100%" fill="#00ff41" stroke="#00ff41" xlink:href="#a"/><use transform="rotate(-97 44.876 85.535)" width="100%" height="100%" fill="#00ff46" stroke="#00ff46" xlink:href="#a"/><use transform="rotate(-96 44.876 85.672)" width="100%" height="100%" fill="#00ff4a" stroke="#00ff4a" xlink:href="#a"/><use transform="rotate(-95 44.876 85.81)" width="100%" height="100%" fill="#00ff4e" stroke="#00ff4e" xlink:href="#a"/><use transform="rotate(-94 44.876 85.952)" width="100%" height="100%" fill="#00ff52" stroke="#00ff52" xlink:href="#a"/><use transform="rotate(-93 44.876 86.095)" width="100%" height="100%" fill="#00ff57" stroke="#00ff57" xlink:href="#a"/><use transform="rotate(-92 44.876 86.242)" width="100%" height="100%" fill="#00ff5b" stroke="#00ff5b" xlink:href="#a"/><use transform="rotate(-91 44.876 86.39)" width="100%" height="100%" fill="#00ff5f" stroke="#00ff5f" xlink:href="#a"/><use transform="rotate(-90 44.876 86.541)" width="100%" height="100%" fill="#00ff63" stroke="#00ff63" xlink:href="#a"/><use transform="rotate(-89 44.876 86.695)" width="100%" height="100%" fill="#00ff68" stroke="#00ff68" xlink:href="#a"/><use transform="rotate(-88 44.876 86.851)" width="100%" height="100%" fill="#00ff6c" stroke="#00ff6c" xlink:href="#a"/><use transform="rotate(-87 44.876 87.01)" width="100%" height="100%" fill="#00ff70" stroke="#00ff70" xlink:href="#a"/><use transform="rotate(-86 44.876 87.173)" width="100%" height="100%" fill="#00ff74" stroke="#00ff74" xlink:href="#a"/><use transform="rotate(-85 44.876 87.338)" width="100%" height="100%" fill="#00ff78" stroke="#00ff78" xlink:href="#a"/><use transform="rotate(-84 44.876 87.507)" width="100%" height="100%" fill="#00ff7d" stroke="#00ff7d" xlink:href="#a"/><use transform="rotate(-83 44.876 87.679)" width="100%" height="100%" fill="#00ff81" stroke="#00ff81" xlink:href="#a"/><use transform="rotate(-82 44.876 87.854)" width="100%" height="100%" fill="#00ff85" stroke="#00ff85" xlink:href="#a"/><use transform="rotate(-81 44.876 88.033)" width="100%" height="100%" fill="#00ff89" stroke="#00ff89" xlink:href="#a"/><use transform="rotate(-80 44.876 88.215)" width="100%" height="100%" fill="#00ff8e" stroke="#00ff8e" xlink:href="#a"/><use transform="rotate(-79 44.876 88.402)" width="100%" height="100%" fill="#00ff92" stroke="#00ff92" xlink:href="#a"/><use transform="rotate(-78 44.876 88.592)" width="100%" height="100%" fill="#00ff96" stroke="#00ff96" xlink:href="#a"/><use transform="rotate(-77 44.876 88.786)" width="100%" height="100%" fill="#00ff9a" stroke="#00ff9a" xlink:href="#a"/><use transform="rotate(-76 44.876 88.985)" width="100%" height="100%" fill="#00ff9f" stroke="#00ff9f" xlink:href="#a"/><use transform="rotate(-75 44.876 89.188)" width="100%" height="100%" fill="#00ffa3" stroke="#00ffa3" xlink:href="#a"/><use transform="rotate(-74 44.876 89.396)" width="100%" height="100%" fill="#00ffa7" stroke="#00ffa7" xlink:href="#a"/><use transform="rotate(-73 44.876 89.61)" width="100%" height="100%" fill="#00ffab" stroke="#00ffab" xlink:href="#a"/><use transform="rotate(-72 44.876 89.827)" width="100%" height="100%" fill="#00ffb0" stroke="#00ffb0" xlink:href="#a"/><use transform="rotate(-71 44.876 90.05)" width="100%" height="100%" fill="#00ffb4" stroke="#00ffb4" xlink:href="#a"/><use transform="rotate(-70 44.876 90.28)" width="100%" height="100%" fill="#00ffb8" stroke="#00ffb8" xlink:href="#a"/><use transform="rotate(-69 44.876 90.514)" width="100%" height="100%" fill="#00ffbc" stroke="#00ffbc" xlink:href="#a"/><use transform="rotate(-68 44.876 90.754)" width="100%" height="100%" fill="#00ffc1" stroke="#00ffc1" xlink:href="#a"/><use transform="rotate(-67 44.876 91.001)" width="100%" height="100%" fill="#00ffc5" stroke="#00ffc5" xlink:href="#a"/><use transform="rotate(-66 44.876 91.254)" width="100%" height="100%" fill="#00ffc9" stroke="#00ffc9" xlink:href="#a"/><use transform="rotate(-65 44.876 91.515)" width="100%" height="100%" fill="#00ffcd" stroke="#00ffcd" xlink:href="#a"/><use transform="rotate(-64 44.876 91.782)" width="100%" height="100%" fill="#00ffd1" stroke="#00ffd1" xlink:href="#a"/><use transform="rotate(-63 44.876 92.058)" width="100%" height="100%" fill="#00ffd6" stroke="#00ffd6" xlink:href="#a"/><use transform="rotate(-62 44.876 92.34)" width="100%" height="100%" fill="#00ffda" stroke="#00ffda" xlink:href="#a"/><use transform="rotate(-61 44.876 92.632)" width="100%" height="100%" fill="#00ffde" stroke="#00ffde" xlink:href="#a"/><use transform="rotate(-60 44.876 92.932)" width="100%" height="100%" fill="#00ffe2" stroke="#00ffe2" xlink:href="#a"/><use transform="rotate(-59 44.876 93.242)" width="100%" height="100%" fill="#00ffe7" stroke="#00ffe7" xlink:href="#a"/><use transform="rotate(-58 44.876 93.56)" width="100%" height="100%" fill="#00ffeb" stroke="#00ffeb" xlink:href="#a"/><use transform="rotate(-57 44.876 93.89)" width="100%" height="100%" fill="#00ffef" stroke="#00ffef" xlink:href="#a"/><use transform="rotate(-56 44.876 94.23)" width="100%" height="100%" fill="#00fff3" stroke="#00fff3" xlink:href="#a"/><use transform="rotate(-55 44.876 94.582)" width="100%" height="100%" fill="#00fff8" stroke="#00fff8" xlink:href="#a"/><use transform="rotate(-54 44.876 94.945)" width="100%" height="100%" fill="#00fffc" stroke="#00fffc" xlink:href="#a"/><use transform="rotate(-53 44.876 95.321)" width="100%" height="100%" fill="#00feff" stroke="#00feff" xlink:href="#a"/><use transform="rotate(-52 44.876 95.71)" width="100%" height="100%" fill="#00faff" stroke="#00faff" xlink:href="#a"/><use transform="rotate(-51 44.876 96.115)" width="100%" height="100%" fill="#00f5ff" stroke="#00f5ff" xlink:href="#a"/><use transform="rotate(-50 44.876 96.533)" width="100%" height="100%" fill="#00f1ff" stroke="#00f1ff" xlink:href="#a"/><use transform="rotate(-49 44.876 96.968)" width="100%" height="100%" fill="#00edff" stroke="#00edff" xlink:href="#a"/><use transform="rotate(-48 44.876 97.42)" width="100%" height="100%" fill="#00e9ff" stroke="#00e9ff" xlink:href="#a"/><use transform="rotate(-47 44.876 97.89)" width="100%" height="100%" fill="#00e4ff" stroke="#00e4ff" xlink:href="#a"/><use transform="rotate(-46 44.876 98.378)" width="100%" height="100%" fill="#00e0ff" stroke="#00e0ff" xlink:href="#a"/><use transform="rotate(-45 44.876 98.888)" width="100%" height="100%" fill="#00dcff" stroke="#00dcff" xlink:href="#a"/><use transform="rotate(-44 44.876 99.42)" width="100%" height="100%" fill="#00d8ff" stroke="#00d8ff" xlink:href="#a"/><use transform="rotate(-43 44.876 99.974)" width="100%" height="100%" fill="#00d4ff" stroke="#00d4ff" xlink:href="#a"/><use transform="rotate(-42 44.876 100.55)" width="100%" height="100%" fill="#00cfff" stroke="#00cfff" xlink:href="#a"/><use transform="rotate(-41 44.876 101.16)" width="100%" height="100%" fill="#00cbff" stroke="#00cbff" xlink:href="#a"/><use transform="rotate(-40 44.876 101.8)" width="100%" height="100%" fill="#00c7ff" stroke="#00c7ff" xlink:href="#a"/><use transform="rotate(-39 44.876 102.46)" width="100%" height="100%" fill="#00c3ff" stroke="#00c3ff" xlink:href="#a"/><use transform="rotate(-38 44.876 103.17)" width="100%" height="100%" fill="#00beff" stroke="#00beff" xlink:href="#a"/><use transform="rotate(-37 44.876 103.9)" width="100%" height="100%" fill="#00baff" stroke="#00baff" xlink:href="#a"/><use transform="rotate(-36 44.876 104.68)" width="100%" height="100%" fill="#00b6ff" stroke="#00b6ff" xlink:href="#a"/><use transform="rotate(-35 44.876 105.5)" width="100%" height="100%" fill="#00b2ff" stroke="#00b2ff" xlink:href="#a"/><use transform="rotate(-34 44.876 106.37)" width="100%" height="100%" fill="#00adff" stroke="#00adff" xlink:href="#a"/><use transform="rotate(-33 44.876 107.28)" width="100%" height="100%" fill="#00a9ff" stroke="#00a9ff" xlink:href="#a"/><use transform="rotate(-32 44.876 108.26)" width="100%" height="100%" fill="#00a5ff" stroke="#00a5ff" xlink:href="#a"/><use transform="rotate(-31 44.876 109.29)" width="100%" height="100%" fill="#00a1ff" stroke="#00a1ff" xlink:href="#a"/><use transform="rotate(-30 44.876 110.39)" width="100%" height="100%" fill="#009cff" stroke="#009cff" xlink:href="#a"/><use transform="rotate(-29 44.876 111.57)" width="100%" height="100%" fill="#0098ff" stroke="#0098ff" xlink:href="#a"/><use transform="rotate(-28 44.876 112.83)" width="100%" height="100%" fill="#0094ff" stroke="#0094ff" xlink:href="#a"/><use transform="rotate(-27 44.876 114.18)" width="100%" height="100%" fill="#0090ff" stroke="#0090ff" xlink:href="#a"/><use transform="rotate(-26 44.876 115.63)" width="100%" height="100%" fill="#008bff" stroke="#008bff" xlink:href="#a"/><use transform="rotate(-25 44.876 117.19)" width="100%" height="100%" fill="#0087ff" stroke="#0087ff" xlink:href="#a"/><use transform="rotate(-24 44.876 118.88)" width="100%" height="100%" fill="#0083ff" stroke="#0083ff" xlink:href="#a"/><use transform="rotate(-23 44.876 120.72)" width="100%" height="100%" fill="#007fff" stroke="#007fff" xlink:href="#a"/><use transform="rotate(-22 44.876 122.73)" width="100%" height="100%" fill="#007bff" stroke="#007bff" xlink:href="#a"/><use transform="rotate(-21 44.876 124.92)" width="100%" height="100%" fill="#0076ff" stroke="#0076ff" xlink:href="#a"/><use transform="rotate(-20 44.876 127.32)" width="100%" height="100%" fill="#0072ff" stroke="#0072ff" xlink:href="#a"/><use transform="rotate(-19 44.876 129.98)" width="100%" height="100%" fill="#006eff" stroke="#006eff" xlink:href="#a"/><use transform="rotate(-18 44.876 132.93)" width="100%" height="100%" fill="#006aff" stroke="#006aff" xlink:href="#a"/><use transform="rotate(-17 44.876 136.23)" width="100%" height="100%" fill="#0065ff" stroke="#0065ff" xlink:href="#a"/><use transform="rotate(-16 44.876 139.93)" width="100%" height="100%" fill="#0061ff" stroke="#0061ff" xlink:href="#a"/><use transform="rotate(-15 44.876 144.13)" width="100%" height="100%" fill="#005dff" stroke="#005dff" xlink:href="#a"/><use transform="rotate(-14 44.876 148.92)" width="100%" height="100%" fill="#0059ff" stroke="#0059ff" xlink:href="#a"/><use transform="rotate(-13 44.876 154.44)" width="100%" height="100%" fill="#0054ff" stroke="#0054ff" xlink:href="#a"/><use transform="rotate(-12 44.876 160.88)" width="100%" height="100%" fill="#0050ff" stroke="#0050ff" xlink:href="#a"/><use transform="rotate(-11 44.876 168.48)" width="100%" height="100%" fill="#004cff" stroke="#004cff" xlink:href="#a"/><use transform="rotate(-10 44.876 177.6)" width="100%" height="100%" fill="#0048ff" stroke="#0048ff" xlink:href="#a"/><use transform="rotate(-9 44.876 188.74)" width="100%" height="100%" fill="#0043ff" stroke="#0043ff" xlink:href="#a"/><use transform="rotate(-8 44.876 202.66)" width="100%" height="100%" fill="#003fff" stroke="#003fff" xlink:href="#a"/><use transform="rotate(-7 44.876 220.56)" width="100%" height="100%" fill="#003bff" stroke="#003bff" xlink:href="#a"/><use transform="rotate(-6 44.876 244.4)" width="100%" height="100%" fill="#0037ff" stroke="#0037ff" xlink:href="#a"/><use transform="rotate(-5 44.876 277.77)" width="100%" height="100%" fill="#0032ff" stroke="#0032ff" xlink:href="#a"/><use transform="rotate(-4 44.876 327.82)" width="100%" height="100%" fill="#002eff" stroke="#002eff" xlink:href="#a"/><use transform="rotate(-3 44.876 411.22)" width="100%" height="100%" fill="#002aff" stroke="#002aff" xlink:href="#a"/><use transform="rotate(-2 44.876 577.99)" width="100%" height="100%" fill="#0026ff" stroke="#0026ff" xlink:href="#a"/><use transform="rotate(-1 44.876 1078.2)" width="100%" height="100%" fill="#02f" stroke="#02f" xlink:href="#a"/></g><path d="M12.355 23.583h-.687a.29.29 0 0 0-.096-.015 12.41 12.41 0 0 1-1.092-.096 11.293 11.293 0 0 1-1.984-.442 11.624 11.624 0 0 1-3.1-1.527A11.5 11.5 0 0 1 3.04 19.32a11.399 11.399 0 0 1-1.88-3.261 11.376 11.376 0 0 1-.71-3.287q-.002-.092-.033-.183v-1.196a.518.518 0 0 0 .032-.163 11.426 11.426 0 0 1 1.228-4.486 11.583 11.583 0 0 1 1.484-2.232A11.583 11.583 0 0 1 5.1 2.693 11.5 11.5 0 0 1 8.952.816a11.583 11.583 0 0 1 2.08-.366c.125-.012.257 0 .381-.032h1.177c.09.026.183.012.273.02.466.04.928.1 1.388.19a11.459 11.458 0 0 1 4.027 1.625 11.583 11.583 0 0 1 2.555 2.237 11.376 11.376 0 0 1 1.516 2.278 11.335 11.334 0 0 1 1.037 3.052 9.65 9.65 0 0 1 .186 1.71c0 .038.008.079.01.116v.687c-.01.044-.01.09-.014.137 0 .11 0 .22-.008.331a11.996 11.996 0 0 1-.338 2.086 11.459 11.458 0 0 1-1.621 3.587 11.583 11.583 0 0 1-1.95 2.214 11.583 11.583 0 0 1-2.435 1.646 11.51 11.51 0 0 1-4.505 1.213c-.115.013-.237.01-.357.036z" fill="#383838"/><path transform="matrix(.41367 0 0 .41366 -1.355 -1.237)" d="M25.003 20.382c-.02.515.071 1.077.223 1.64.289 1.07.767 2.05 1.332 2.977 1.285 2.107 2.906 3.91 4.664 5.585.144.138.316.254.5.343a.62.62 0 0 0 .557.013q.276-.123.485-.35c.61-.63 1.214-1.263 1.791-1.915a31 31 0 0 0 2.29-2.901c.637-.927 1.207-1.901 1.627-2.958.42-1.05.623-2.133.485-3.272-.23-1.88-.997-3.472-2.368-4.72-1.622-1.474-3.51-2.064-5.636-1.736-3.457.536-5.964 3.72-5.95 7.294z" fill="url(#b)" style="mix-blend-mode:lighten"/><path transform="matrix(.41367 0 0 .41366 -1.355 -1.237)" d="M42.895 45.998a6 6 0 0 1-1.412-.144c-1.446-.317-2.673-.974-3.616-2.139a13.3 13.3 0 0 1-1.472-2.29 24 24 0 0 1-1.253-2.954 32 32 0 0 1-1.09-3.718c-.157-.704.02-1.145.8-1.388a36 36 0 0 1 3.001-.81c1.683-.368 3.378-.605 5.108-.546q.733.03 1.458.157a6.3 6.3 0 0 1 3.556 1.909c1.657 1.737 2.316 3.81 1.907 6.172-.587 3.376-3.583 5.778-6.987 5.751" fill="url(#c)"/><path transform="matrix(.41367 0 0 .41366 -1.355 -1.237)" d="M21.105 45.998a6 6 0 0 0 1.412-.144c1.446-.317 2.673-.974 3.616-2.139.574-.71 1.056-1.48 1.472-2.29a24.07 24.07 0 0 0 1.253-2.954 32 32 0 0 0 1.09-3.718c.157-.704-.02-1.145-.8-1.388a36 36 0 0 0-3.001-.81c-1.683-.368-3.378-.605-5.108-.546q-.733.03-1.458.157a6.3 6.3 0 0 0-3.556 1.909c-1.657 1.737-2.316 3.81-1.907 6.172.587 3.376 3.583 5.778 6.987 5.751" fill="url(#d)"/></svg>