<svg version="1.1" viewBox="0 0 24 24" xmlns="http://www.w3.org/2000/svg"><path d="m0.005856 0.006783 11.982 0.0058999-10.378 5.9902v11.998l0.01757 0.0059 10.348 5.9785-11.971 0.0059z" opacity="0" stroke="#000" stroke-width=".011712"/><path d="m12.006 0.006783h11.988v23.984l-11.959-0.0059 10.354-5.9785v-11.998l-0.01757-0.0059-2.612-1.5224-3.3148-1.8972-1.2299-0.72609-3.1508-1.8035-0.05856-0.035129z" opacity="0" stroke="#000" stroke-width=".011712"/><g transform="matrix(.011713 0 0 .011711 .005856 .006783)" fill="#575757" stroke="#575757"><path d="m358.5 704 110.5 64.5-0.5 63.5-110.5-64.5z"/><path d="m303.5 800 110.5 64.5-0.5 63.5-110-64-1 64-54.5-32.5 0.5-63.5 54 32z"/><path d="m192.5 928 55.5 32.5-0.5 63.5-55.5-32.5z"/><path d="m636.5 928 109.5 64.5-0.5 63.5-109.5-64.5z"/><path d="m358.5 960 55.5 32.5-0.5 63.5-55.5-32.5z"/><path d="m469.5 1024 55.5 32.5-0.5 63.5-55.5-32.5z"/><path d="m913.5 1024 54.5 32.5-0.5 63.5-54.5-32.5z"/><path d="m358.5 1088 55.5 32.5-0.5 63.5-55.5-32.5z"/><path d="m913.5 1216 54.5 32.5-0.5 63.5-54.5-32.5z"/><path d="m192.5 1312 55.5 32.5-0.5 63.5-55.5-32.5z"/><path d="m303.5 1312 110 64 1-64 110.5 64.5-0.5 63.5-110-64-1 64-110.5-64.5z"/><path d="m913.5 1344 54.5 32.5-0.5 63.5-54.5-32.5z"/><path d="m636.5 1376 54.5 32.5-0.5 63.5-54.5-32.5z"/><path d="m1354.5 1409 1.5 0.5v63.5l-55 31v-63.5l1.5-0.5z"/><path d="m192.5 1440 110.5 64.5-0.5 63.5-110.5-64.5z"/><path d="m746.5 1440 55.5 32.5-0.5 63.5-55.5-32.5z"/><path d="m358.5 1472 110.5 64.5v63l1.5 1.5 54.5 31.5v127l-1.5 0.5-54.5-31v-128.5l-2.5-2.5-108.5-62.5z"/><path d="m1243.5 1473 1.5 0.5v63.5l-55 31v-63.5l1.5-0.5z"/><path d="m691.5 1536 54.5 32.5v63l1.5 1.5 54.5 31.5-0.5 63.5-55.5-32.5v-63l-2.5-2.5-52.5-30.5z"/><path d="m913.5 1536 54.5 32.5-0.5 63.5-54.5-32.5z"/><path d="m746.5 1760 164 94 57.5 34.5-0.5 63.5-221.5-128.5z"/></g><path d="m15.871 14.259 0.01757 0.0059v0.74366l-0.64422 0.36304v-0.74366l0.01757-0.0059z" fill="#0e0514" stroke="#0e0514" stroke-width=".011712"/><path d="m14.571 15.009 0.01757 0.0059v0.74366l-0.64422 0.36304v-0.74366l0.01757-0.0059z" fill="#0e0514" stroke="#0e0514" stroke-width=".011712"/><g transform="matrix(.011713 0 0 .011711 .005856 .006783)" fill="#332073" stroke="#332073"><path d="m1301.5 160 331.5 192.5-53.5 31.5h-3l-331.5-191.5z"/><path d="m744.5 161 5 1 52.5 30.5-280.5 162.5-49 28-5 1-53.5-31.5z"/><path d="m467.5 641 5 1 49 28 280.5 162.5-52.5 30.5-5 1-330.5-191.5z"/><path d="m1576.5 641h3l53.5 31.5-323.5 187.5-7 4h-3l-54.5-31.5z"/></g><g transform="matrix(.011713 0 0 .011711 .005856 .006783)" fill="#352455" stroke="#352455"><path d="m1021.5 193 5 1 49 28 502.5 290.5-379.5 219.5-7 4h-3l-54.5-31.5 333-192-499-288z"/><path d="m744.5 353 5 1 52.5 30.5-56 32 56 32-52.5 30.5-5 1-52-31h-3l-52 31h-3l-54.5-31.5z"/><path d="m966.5 353 5 1 51 30h3l52-31h3l53.5 31.5-55 32 109.5 63.5h3l52-31h3l54.5 31.5-109.5 63.5h-3l-275.5-159.5z"/><path d="m911.5 449h3l53.5 31.5-55 32 166 96-53.5 31.5h-3l-220.5-127.5z"/><path d="m523.5 481h3l7 4 156 91h3l52-31h3l54.5 31.5-56 32 111 64-53.5 31.5h-3l-331.5-191.5z"/><path d="m966.5 737 5 1 51 30h3l52-31h3l53.5 31.5-108.5 63.5h-3l-109.5-63.5z"/></g><g transform="matrix(.011713 0 0 .011711 .005856 .006783)" fill="#696969" stroke="#696969"><path d="m248 577 55 31-0.5 64-54-32-0.5 63.5 110 65-0.5 63.5-165.5-96.5 0.5-127.5 55 32z"/><path d="m414.5 800 54.5 32.5-0.5 63.5-54.5-32.5z"/><path d="m192.5 864 110.5 64.5-0.5 63.5-110.5-64.5z"/><path d="m802.5 960 110 64 0.5-63 55 31-0.5 64-54-32-0.5 63.5 55 33-0.5 63.5-110.5-64.5v-63l-2.5-2.5-52.5-30.5z"/><path d="m192.5 1184 55.5 32.5-0.5 63.5-55.5-32.5z"/><path d="m636.5 1184 109.5 64.5-0.5 63.5-109.5-64.5z"/><path d="m414.5 1248 54.5 32.5-0.5 63.5-54.5-32.5z"/><path d="m913.5 1280 54.5 32.5-0.5 63.5-54.5-32.5z"/><path d="m248.5 1344 54.5 32.5v63l1.5 1.5 53.5 31.5v63l1.5 1.5 54.5 31.5-0.5 63.5-55.5-32.5v-63l-2.5-2.5-107.5-62.5z"/><path d="m414.5 1440 110.5 64.5-0.5 63.5-110.5-64.5z"/><path d="m913.5 1472 54.5 32.5-0.5 63.5-54.5-32.5z"/><path d="m913.5 1600 54.5 32.5-0.5 63.5-54.5-32.5z"/><path d="m636.5 1632 109.5 64.5-0.5 63.5-54-32-1 64-54.5-32.5z"/><path d="m802.5 1728 54.5 32.5-0.5 63.5-54.5-32.5z"/></g><g transform="matrix(.011713 0 0 .011711 .005856 .006783)" fill="#140b28" stroke="#140b28"><path d="m1520.5 737 1.5 0.5v127.5l-111 63v-127.5l1.5-0.5z"/><path d="m303.5 928 54.5 32.5-0.5 63.5-54.5-32.5z"/><path d="m1520.5 993 1.5 0.5v63.5l-111 63v-63.5l1.5-0.5z"/><path d="m746.5 1056 166.5 96.5-0.5 63.5-166.5-96.5z"/><path d="m1520.5 1249 1.5 0.5v63.5l-111 63v-63.5l1.5-0.5z"/><path d="m1520.5 1505 1.5 0.5v63.5l-111 63v-63.5l1.5-0.5z"/></g><g transform="matrix(.011713 0 0 .011711 .005856 .006783)" fill="#0e0912" stroke="#0e0912"><path d="m137 513 55 31v1023.5l-1.5 0.5-53.5-31z"/><path d="m1520.5 865 1.5 0.5v63.5l-111 63v-63.5l1.5-0.5z"/><path d="m525.5 928 110.5 64.5-0.5 63.5-110.5-64.5z"/><path d="m968 993 56 31v1023.5l-1.5 0.5-54.5-31z"/><path d="m525.5 1184 110.5 64.5-0.5 63.5-110.5-64.5z"/><path d="m525.5 1696 110.5 64.5v63l-1.5 0.5-109.5-63z"/></g><path d="m17.816 16.883 0.01757 0.0059v0.74366l-1.3001 0.7378v-0.74366l0.01757-0.0059z" fill="#070408" stroke="#070408" stroke-width=".011712"/><g transform="matrix(.011713 0 0 .011711 .005856 .006783)" fill="#8d8d8d" stroke="#8d8d8d"><path d="m1021.5 65 5 1 107.5 62.5-53.5 31.5h-3l-51-30-5-1-52 31h-3l-53.5-31.5z"/><path d="m356.5 449 5 1 52.5 30.5-56 32 56 32-52.5 30.5-5 1-108.5-63.5z"/><path d="m1687.5 449h3l108.5 63.5-108.5 63.5h-3l-54.5-31.5 56-32-56-32z"/><path d="m966.5 865 5 1 51 30h3l52-31h3l53.5 31.5-108.5 63.5h-3l-109.5-63.5z"/><path d="m248.5 1216 54.5 32.5-0.5 63.5-54.5-32.5z"/><path d="m746.5 1248 166.5 96.5-0.5 63.5-166.5-96.5z"/></g><g transform="matrix(.011713 0 0 .011711 .005856 .006783)" fill="#2d2d2d" stroke="#2d2d2d"><path d="m1853.5 737 1.5 0.5v63.5l-56 31v-63.5l1.5-0.5z"/><path d="m1687.5 833 1.5 0.5v63.5l-56 31v-63.5l1.5-0.5z"/><path d="m1576.5 897 1.5 0.5v63.5l-56 31v-63.5l1.5-0.5z"/><path d="m1853.5 993 1.5 0.5v63.5l-56 31v-63.5l1.5-0.5z"/><path d="m1354.5 1025 1.5 0.5v63.5l-55 31v-63.5l1.5-0.5z"/><path d="m1742.5 1057 1.5 0.5v63.5l-166 95v-63.5l1.5-0.5z"/><path d="m1188.5 1121 1.5 0.5v63.5l-111 63v-63.5l1.5-0.5z"/><path d="m1354.5 1281 1.5 0.5v63.5l-55 31v-63.5l1.5-0.5z"/><path d="m1742.5 1313 1.5 0.5v63.5l-111 63v-63.5l1.5-0.5z"/><path d="m1243.5 1345 1.5 0.5v63.5l-111 63v-63.5l1.5-0.5z"/><path d="m1576.5 1409 1.5 0.5v63.5l-56 31v-63.5l1.5-0.5z"/><path d="m1354.5 1537 1.5 0.5v63.5l-55 31v-63.5l1.5-0.5z"/><path d="m1687.5 1601 1.5 0.5v63l-55.5 32.5-0.5-65z"/><path d="m1188.5 1633 1.5 0.5v63.5l-56 31v-63.5l1.5-0.5z"/><path d="m1576.5 1665 1.5 0.5v63l-55.5 32.5-0.5-65z"/><path d="m1354.5 1793 1.5 0.5v63l-54.5 32.5-0.5-65z"/><path d="m1188.5 1889 1.5 0.5v63l-110.5 64.5-0.5-65z"/></g><g transform="matrix(.011713 0 0 .011711 .005856 .006783)" fill="#0f0b1c" stroke="#0f0b1c"><path d="m1631.5 673 1.5 0.5v63.5l-55 31v-63.5l1.5-0.5z"/><path d="m1576.5 769 1.5 0.5v63.5l-56 31v-63.5l1.5-0.5z"/><path d="m1354.5 833 1.5 0.5v62l1.5 0.5 53.5-31v63.5l-1.5 0.5-53.5 31v-62.5l-1.5-0.5-53.5 31v-63.5l1.5-0.5z"/><path d="m1520.5 1057 1.5 0.5v127.5l-111 63v-127.5l1.5-0.5z"/><path d="m1520.5 1313 1.5 0.5v127.5l-111 63v-127.5l1.5-0.5z"/><path d="m1520.5 1569 1.5 0.5v127.5l-111 63v-127.5l1.5-0.5z"/></g><g transform="matrix(.011713 0 0 .011711 .005856 .006783)" fill="#414141" stroke="#414141"><path d="m1687.5 705 1.5 0.5v62l1.5 0.5 53.5-31v63.5l-1.5 0.5q-53.6 33.2-109.5 63v-62.5l-1.5-0.5-53.5 31v-63.5l1.5-0.5z"/><path d="m1797.5 833 1.5 0.5v63.5l-110 63v-63.5l1.5-0.5z"/><path d="m1409.5 929 1.5 0.5v63.5l-55 31v-63.5l1.5-0.5z"/><path d="m1132.5 961 1.5 0.5v62l1.5 0.5 109.5-63v62.5l1.5 0.5 54.5-31v63.5l-1.5 0.5-54.5 31v-62.5l-1.5-0.5q-53.6 33.2-109.5 63v-62.5l-1.5-0.5-53.5 31v-63.5l1.5-0.5z"/><path d="m1631.5 993 1.5 0.5v62l1.5 0.5 109.5-63v63.5l-1.5 0.5q-53.6 33.2-109.5 63v-62.5l-1.5-0.5q-53.6 33.2-109.5 63v-63.5l1.5-0.5z"/><path d="m1409.5 1185 1.5 0.5v63.5l-55 31v-63.5l1.5-0.5z"/><path d="m1742.5 1185 1.5 0.5v63.5l-55 31v-63.5l1.5-0.5z"/><path d="m1299.5 1249 1.5 0.5v63.5l-56 31v-63.5l1.5-0.5z"/><path d="m1631.5 1249 1.5 0.5v62l1.5 0.5 54.5-31v63.5l-1.5 0.5-165.5 95v-63.5l1.5-0.5 54.5-31v-64.5l1.5-0.5z"/><path d="m1188.5 1313 1.5 0.5v63.5l-56 31v-63.5l1.5-0.5z"/><path d="m1299.5 1377 1.5 0.5v63.5l-56 31v-63.5l1.5-0.5z"/><path d="m1409.5 1377 1.5 0.5v63.5l-55 31v-63.5l1.5-0.5z"/><path d="m1853.5 1377 1.5 0.5v63.5l-111 63v-63.5l1.5-0.5z"/><path d="m1687.5 1473 1.5 0.5v63.5l-56 31v-63.5l1.5-0.5z"/><path d="m1132.5 1537 1.5 0.5v62l1.5 0.5 109.5-63v63.5l-1.5 0.5q-53.6 33.2-109.5 63v-62.5l-1.5-0.5-53.5 31v-63.5l1.5-0.5z"/><path d="m1631.5 1569 1.5 0.5v63.5l-55 31v-63.5l1.5-0.5z"/><path d="m1409.5 1633 1.5 0.5v63.5l-55 31v-63.5l1.5-0.5z"/><path d="m1354.5 1729 1.5 0.5v63.5l-55 31v-63.5l1.5-0.5z"/><path d="m1132.5 1793 1.5 0.5v63.5l-55 31v-63.5l1.5-0.5z"/><path d="m1243.5 1793 1.5 0.5v63.5l-55 31v-63.5l1.5-0.5z"/></g><g transform="matrix(.011713 0 0 .011711 .005856 .006783)" fill="#13071e" stroke="#13071e"><path d="m303.5 992 54.5 32.5-0.5 191.5-54.5-32.5z"/><path d="m746.5 1120 55.5 32.5v63l1.5 1.5 53 31 1-64 55.5 32.5-0.5 127.5-166.5-96.5z"/><path d="m1354.5 1153 1.5 0.5v63.5l-55 31v-63.5l1.5-0.5z"/><path d="m1243.5 1217 1.5 0.5v63.5l-55 31v-63.5l1.5-0.5z"/></g><g transform="matrix(.011713 0 0 .011711 .005856 .006783)" fill="#3b3b3b" stroke="#3b3b3b"><path d="m1853.5 609 1.5 0.5v63.5l-56 31v-63.5l1.5-0.5z"/><path d="m1631.5 801 1.5 0.5v63.5l-111 63v-63.5l1.5-0.5z"/><path d="m1853.5 801 1.5 0.5v63.5l-56 31v-63.5l1.5-0.5z"/><path d="m1354.5 897 1.5 0.5v63.5l-55 31v-63.5l1.5-0.5z"/><path d="m1853.5 929 1.5 0.5v63.5l-111 63v-63.5l1.5-0.5z"/><path d="m1409.5 1121 1.5 0.5v63.5l-55 31v-63.5l1.5-0.5z"/><path d="m1853.5 1121 1.5 0.5v63.5l-56 31v64.5l-1.5 0.5-108.5 63v-62.5l-1.5-0.5-54.5 31v-63.5l1.5-0.5 54.5-31v62.5l1.5 0.5 53.5-31v-64.5l1.5-0.5z"/><path d="m1188.5 1185 1.5 0.5v63.5l-56 31v-63.5l1.5-0.5z"/><path d="m1299.5 1185 1.5 0.5v63.5l-56 31v-63.5l1.5-0.5z"/><path d="m1576.5 1281 1.5 0.5v63.5l-56 31v-63.5l1.5-0.5z"/><path d="m1132.5 1345 1.5 0.5v63.5l-55 31v-63.5l1.5-0.5z"/><path d="m1687.5 1409 1.5 0.5v63.5l-56 31v-63.5l1.5-0.5z"/><path d="m1409.5 1441 1.5 0.5v63.5l-166 95v-63.5l1.5-0.5z"/><path d="m1853.5 1441 1.5 0.5v63.5l-222 127v-63.5l1.5-0.5z"/><path d="m1354.5 1665 1.5 0.5v62l1.5 0.5 53.5-31v63.5l-1.5 0.5-53.5 31v-62.5l-1.5-0.5q-53.6 33.2-109.5 63v-63.5l1.5-0.5z"/><path d="m1132.5 1729 1.5 0.5v63.5l-55 31v-63.5l1.5-0.5z"/><path d="m1188.5 1825 1.5 0.5v63.5l-111 63v-63.5l1.5-0.5z"/></g><g transform="matrix(.011713 0 0 .011711 .005856 .006783)" fill="#242424" stroke="#242424"><path d="m1797.5 769 1.5 0.5v63.5l-110 63v-63.5l1.5-0.5z"/><path d="m1631.5 865 1.5 0.5v63.5l-55 31v-63.5l1.5-0.5z"/><path d="m1409.5 993 1.5 0.5v63.5l-55 31v-63.5l1.5-0.5z"/><path d="m1576.5 1153 1.5 0.5v63.5l-56 31v-63.5l1.5-0.5z"/><path d="m1409.5 1249 1.5 0.5v63.5l-55 31v-63.5l1.5-0.5z"/><path d="m1853.5 1249 1.5 0.5v63.5l-111 63v-63.5l1.5-0.5z"/><path d="m1132.5 1409 1.5 0.5v63.5l-55 31v-63.5l1.5-0.5z"/><path d="m1409.5 1505 1.5 0.5v63.5l-55 31v-63.5l1.5-0.5z"/><path d="m1853.5 1505 1.5 0.5v63l-165.5 96.5-0.5-65z"/><path d="m1631.5 1633 1.5 0.5v63l-54.5 32.5-0.5-65z"/><path d="m1132.5 1665 1.5 0.5v63.5l-55 31v-63.5l1.5-0.5z"/><path d="m1299.5 1825 1.5 0.5v63l-110.5 64.5-0.5-65z"/></g><g transform="matrix(.011713 0 0 .011711 .005856 .006783)" fill="#27184b" stroke="#27184b"><path d="m966.5 225h3l53.5 31.5-110 64 55 32-53.5 31.5h-3l-51-30-5-1-52 31h-3l-54.5-31.5z"/><path d="m1132.5 321 5 1 52.5 30.5-52.5 30.5-5 1-53.5-31.5z"/><path d="m966.5 417 5 1 52.5 30.5-52.5 30.5-5 1-53.5-31.5z"/><path d="m1299.5 417h3l53.5 31.5-53.5 31.5h-3l-54.5-31.5z"/><path d="m578.5 449 5 1 52.5 30.5-52.5 30.5-5 1-53.5-31.5z"/><path d="m800.5 449h3l53.5 31.5-53.5 31.5h-3l-54.5-31.5z"/><path d="m800.5 513h3l53.5 31.5-53.5 31.5h-3l-54.5-31.5z"/><path d="m1132.5 513 5 1 51 30h3l52-31h3l109.5 63.5-53.5 31.5h-3l-108-63h-3l-108 63h-3l-53.5-31.5z"/><path d="m966.5 609 5 1 51 30h3l52-31h3l109.5 63.5-52.5 30.5-5 1-100-59-7-4h-3l-109.5 63.5 55 32-53.5 31.5h-3l-109.5-63.5z"/><path d="m469 705 56 31-0.5 64-55.5-32.5z"/><path d="m1132.5 705 5 1 52.5 30.5-52.5 30.5-5 1-53.5-31.5z"/><path d="m636 801 55 31-0.5 64-54.5-32.5z"/></g><g transform="matrix(.011713 0 0 .011711 .005856 .006783)" fill="#1e0f3d" stroke="#1e0f3d"><path d="m1245.5 128 55.5 32.5-52.5 30.5-5 1-52-31h-3l-51 30-5 1-52-31h-3l-51 30-5 1-52-31h-3l-52 31h-3l-51-30-5-1-52 31h-3l-54.5-31.5 54.5-31.5h3l52 31h3l53-31h3l52 31h3l52-31h3l53 31h3l52-31h3l53 31h3z"/><path d="m1633.5 352 55.5 32.5-52.5 30.5-5 1-53.5-31.5z"/><path d="m412.5 353h3l53.5 31.5-53.5 31.5h-3l-54.5-31.5z"/><path d="m412.5 417h3l53.5 31.5-53.5 31.5h-3l-54.5-31.5z"/><path d="m1631.5 417 5 1 52.5 30.5-52.5 30.5-5 1-53.5-31.5z"/><path d="m412.5 481h3l53.5 31.5-53.5 31.5h-3l-54.5-31.5z"/><path d="m1631.5 481 5 1 52.5 30.5-52.5 30.5-5 1-53.5-31.5z"/><path d="m412.5 545h3l53.5 31.5-53.5 31.5h-3l-54.5-31.5z"/><path d="m1631.5 545 5 1 52.5 30.5-52.5 30.5-5 1-53.5-31.5z"/><path d="m412.5 609h3l53.5 31.5-53.5 31.5h-3l-54.5-31.5z"/><path d="m1631.5 609 5 1 52.5 30.5-52.5 30.5-5 1-53.5-31.5z"/><path d="m1576.5 705 1.5 0.5v63.5l-56 31v-63.5l1.5-0.5z"/><path d="m525 737 111 63-0.5 128-110.5-64.5z"/><path d="m1409.5 801 1.5 0.5v63.5l-55 31v-63.5l1.5-0.5z"/><path d="m800.5 833h3l52 31h3l53-31h3l52 31h3l53-31h3l52 31h3l52-31h3l53 31h3l52-31h3l54.5 31.5-52.5 30.5-5 1-52-31h-3l-51 30-5 1-52-31h-3l-52 31h-3l-51-30-5-1-52 31h-3l-51-30-5-1-52 31h-3l-54.5-31.5z"/><path d="m525.5 992 110.5 64.5-0.5 63.5-110.5-64.5z"/><path d="m525.5 1248 110.5 64.5-0.5 63.5-110.5-64.5z"/><path d="m525.5 1504 110.5 64.5-0.5 63.5-110.5-64.5z"/></g><g transform="matrix(.011713 0 0 .011711 .005856 .006783)" fill="#52329e" stroke="#52329e"><path d="m855.5 161 5 1 52.5 30.5-52.5 30.5-5 1-53.5-31.5z"/><path d="m1188.5 161h3l53.5 31.5-53.5 31.5h-3l-54.5-31.5z"/><path d="m1022.5 321 4 1 52.5 30.5-53.5 31.5h-3l-54.5-31.5z"/><path d="m467.5 385 5 1 52.5 30.5-52.5 30.5-5 1-53.5-31.5z"/><path d="m1576.5 385h3l53.5 31.5-53.5 31.5h-3l-54.5-31.5z"/><path d="m855.5 417 5 1 52.5 30.5-52.5 30.5-5 1-53.5-31.5z"/><path d="m634.5 481h3l53.5 31.5-53.5 31.5h-3l-54.5-31.5z"/><path d="m1354.5 513h3l53.5 31.5-53.5 31.5h-3l-53.5-31.5z"/><path d="m1188.5 545h3l53.5 31.5-53.5 31.5h-3l-54.5-31.5z"/><path d="m467.5 577 5 1 52.5 30.5-52.5 30.5-5 1-53.5-31.5z"/><path d="m1576.5 577h3l53.5 31.5-53.5 31.5h-3l-54.5-31.5z"/><path d="m966.5 673 5 1 107.5 62.5-53.5 31.5h-3l-109.5-63.5z"/><path d="m855.5 801 5 1 52.5 30.5-52.5 30.5-5 1-53.5-31.5z"/><path d="m1188.5 801h3l53.5 31.5-53.5 31.5h-3l-54.5-31.5z"/></g><g transform="matrix(.011713 0 0 .011711 .005856 .006783)" fill="#6e6e6e" stroke="#6e6e6e"><path d="m303 609 111 63-0.5 64-110.5-64.5z"/><path d="m192.5 800 55.5 32.5-0.5 63.5-55.5-32.5z"/><path d="m303.5 864 221.5 128.5-0.5 63.5-221.5-128.5z"/><path d="m746 865 167 95-0.5 64-166.5-96.5z"/><path d="m192.5 1056 110.5 64.5-0.5 63.5-110.5-64.5z"/><path d="m636.5 1056 109.5 64.5-0.5 63.5-109.5-64.5z"/><path d="m469.5 1216 55.5 32.5-0.5 63.5-55.5-32.5z"/><path d="m636.5 1312 109.5 64.5-0.5 63.5-109.5-64.5z"/><path d="m1299.5 1313 1.5 0.5v62l1.5 0.5 53.5-31v63.5l-1.5 0.5-53.5 31v-62.5l-1.5-0.5-54.5 31v-63.5l1.5-0.5z"/><path d="m303.5 1376 110.5 64.5-0.5 63.5-110.5-64.5z"/><path d="m1243.5 1409 1.5 0.5v63.5l-55 31v-63.5l1.5-0.5z"/><path d="m636.5 1568 109.5 64.5-0.5 63.5-109.5-64.5z"/><path d="m802.5 1664 54.5 32.5-0.5 63.5-54.5-32.5z"/><path d="m913.5 1728 54.5 32.5-0.5 63.5-54.5-32.5z"/></g><g transform="matrix(.011713 0 0 .011711 .005856 .006783)" fill="#363636" stroke="#363636"><path d="m469.5 896 55.5 32.5-0.5 63.5-55.5-32.5z"/><path d="m1299.5 929 1.5 0.5v63.5l-56 31v-63.5l1.5-0.5z"/><path d="m192.5 992 55.5 32.5-0.5 63.5-55.5-32.5z"/><path d="m691.5 1024 54.5 32.5-0.5 63.5-54.5-32.5z"/><path d="m1797.5 1025 1.5 0.5v63.5l-55 31v-63.5l1.5-0.5z"/><path d="m1299.5 1057 1.5 0.5v63.5l-111 63v-63.5l1.5-0.5z"/><path d="m469.5 1152 55.5 32.5-0.5 63.5-55.5-32.5z"/><path d="m192.5 1248 55.5 32.5-0.5 63.5-55.5-32.5z"/><path d="m636.5 1248 54.5 32.5-0.5 63.5-54.5-32.5z"/><path d="m1631.5 1377 1.5 0.5v63.5l-55 31v-63.5l1.5-0.5z"/><path d="m469.5 1408 55.5 32.5-0.5 63.5-55.5-32.5z"/><path d="m303.5 1568 110.5 64.5v63l-1.5 0.5-109.5-63z"/><path d="m1299.5 1569 1.5 0.5v63.5l-111 63v-63.5l1.5-0.5z"/><path d="m913.5 1664 54.5 32.5-0.5 63.5-54.5-32.5z"/><path d="m1409.5 1761 1.5 0.5v63l-54.5 32.5-0.5-65z"/><path d="m691.5 1792 54.5 32.5v63l-1.5 0.5-53.5-31z"/><path d="m802.5 1856 165.5 96.5v63l-1.5 0.5-164.5-95z"/></g><g transform="matrix(.011713 0 0 .011711 .005856 .006783)" fill="#444" stroke="#444"><path d="m1853.5 545 1.5 0.5v63.5l-56 31v-63.5l1.5-0.5z"/><path d="m1797.5 641 1.5 0.5v62l1.5 0.5 54.5-31v63.5l-1.5 0.5-109.5 63v-62.5l-1.5-0.5-53.5 31v-63.5l1.5-0.5z"/><path d="m192.5 736 110.5 64.5-0.5 63.5-110.5-64.5z"/><path d="m414.5 864 54.5 32.5-0.5 63.5-54.5-32.5z"/><path d="m1853.5 865 1.5 0.5v63.5l-222 127v-127.5l1.5-0.5 54.5-31v62.5l1.5 0.5z"/><path d="m1188.5 929 1.5 0.5v63.5l-56 31v-63.5l1.5-0.5z"/><path d="m1354.5 961 1.5 0.5v63.5l-55 31v-63.5l1.5-0.5z"/><path d="m636.5 992 54.5 32.5-0.5 63.5-54.5-32.5z"/><path d="m248.5 1024 54.5 32.5-0.5 63.5-54.5-32.5z"/><path d="m1132.5 1025 1.5 0.5v62l1.5 0.5 109.5-63v63.5l-1.5 0.5-164.5 95v-127.5l1.5-0.5z"/><path d="m1631.5 1057 1.5 0.5v63.5l-111 63v-63.5l1.5-0.5z"/><path d="m1853.5 1057 1.5 0.5v63.5l-56 31v-63.5l1.5-0.5z"/><path d="m414.5 1120 54.5 32.5-0.5 63.5-54.5-32.5z"/><path d="m913.5 1152 54.5 32.5-0.5 63.5-54.5-32.5z"/><path d="m1853.5 1185 1.5 0.5v63.5l-56 31v-63.5l1.5-0.5z"/><path d="m1188.5 1249 1.5 0.5v63.5l-111 63v-63.5l1.5-0.5z"/><path d="m248.5 1280 54.5 32.5-0.5 63.5-54.5-32.5z"/><path d="m691.5 1280 54.5 32.5-0.5 63.5-54.5-32.5z"/><path d="m1797.5 1345 1.5 0.5v63.5l-55 31v-63.5l1.5-0.5z"/><path d="m414.5 1376 54.5 32.5-0.5 63.5-54.5-32.5z"/><path d="m913.5 1408 54.5 32.5-0.5 63.5-54.5-32.5z"/><path d="m1299.5 1441 1.5 0.5v63.5l-56 31v-63.5l1.5-0.5z"/><path d="m1742.5 1441 1.5 0.5v63.5l-55 31v-63.5l1.5-0.5z"/><path d="m192.5 1504 110.5 64.5v63l-1.5 0.5q-53.6-33.2-109.5-63z"/><path d="m636.5 1504 54.5 32.5-0.5 63.5-54.5-32.5z"/><path d="m1188.5 1505 1.5 0.5v63.5l-56 31v-63.5l1.5-0.5z"/><path d="m1631.5 1505 1.5 0.5v63.5l-55 31v64.5l-1.5 0.5-54.5 31v-127.5l1.5-0.5z"/><path d="m746.5 1568 110.5 64.5-0.5 63.5-110.5-64.5z"/><path d="m1409.5 1569 1.5 0.5v63.5l-110 63v-63.5l1.5-0.5z"/><path d="m1132.5 1601 1.5 0.5v63.5l-55 31v-63.5l1.5-0.5z"/><path d="m414.5 1632 54.5 32.5v63l-1.5 0.5-53.5-31z"/><path d="m1188.5 1697 1.5 0.5v62l1.5 0.5 53.5-31v62.5l1.5 0.5 54.5-31v63.5l-1.5 0.5-54.5 31v-62.5l-1.5-0.5q-53.6 33.2-109.5 63v-127.5l1.5-0.5z"/><path d="m636.5 1760 54.5 32.5v63l-1.5 0.5-53.5-31z"/><path d="m746.5 1824 55.5 32.5v63l-1.5 0.5-54.5-31z"/></g><g transform="matrix(.011713 0 0 .011711 .005856 .006783)" fill="#613cae" stroke="#613cae"><path d="m966.5 161h3l52 31h3l53-31h3l108 63h3l52-31h3l331.5 191.5-56 32 111 64-53.5 31.5h-3l-501-290-49-28-5-1-500 290-49 28-5 1-53.5-31.5 111-64-56-32 163.5-93.5 105-62 63-36h3l52 31h3z"/><path d="m1021.5 257 5 1 107.5 62.5-53.5 31.5h-3l-51-30-4-1-51 30-5 1-53.5-31.5z"/><path d="m855.5 353 5 1 107.5 62.5-53.5 31.5h-3l-51-30-5-1-52 31h-3l-54.5-31.5z"/><path d="m1188.5 353h3l109.5 63.5-109.5 63.5h-3l-109.5-63.5z"/><path d="m689.5 449h3l109.5 63.5-109.5 63.5h-3l-53.5-31.5 55-32-55-32z"/><path d="m1022.5 449h3l108.5 63.5-108.5 63.5h-3l-109.5-63.5z"/><path d="m1354.5 449h3l109.5 63.5-52.5 30.5-5 1-52-31h-3l-52 31h-3l-54.5-31.5z"/><path d="m467.5 513 5 1 49 28 438 254 63 36h3l488-283 63-36h3l53.5 31.5-111 64 56 32-175.5 100.5-105 62-49 28-5 1-52-31h-3l-108 63h-3l-52-31h-3l-51 30-5 1-106-62-5-1-52 31h-3l-331.5-191.5 56-32-111-64z"/><path d="m855.5 545 5 1 107.5 62.5-107.5 62.5-5 1-109.5-63.5z"/><path d="m1132.5 577 5 1 51 30h3l52-31h3l54.5 31.5-109.5 63.5h-3l-109.5-63.5z"/><path d="m1022.5 641h3l108.5 63.5-53.5 31.5h-3l-109.5-63.5z"/></g><g transform="matrix(.011713 0 0 .011711 .005856 .006783)" fill="#16102a" stroke="#16102a"><path d="m414 673 55 31v63.5l1.5 1.5 54.5 31.5v63l1.5 1.5 109 63 1-64 54 32 0.5-63 55 31-0.5 64-54-32-1 64-54-32-1 64-110.5-64.5v-63l-2.5-2.5-53.5-30.5v-63l-2.5-2.5-52.5-30.5z"/><path d="m525.5 1056 110.5 64.5-0.5 127.5-110.5-64.5z"/><path d="m525.5 1312 110.5 64.5-0.5 127.5-110.5-64.5z"/><path d="m525.5 1568 110.5 64.5-0.5 127.5-110.5-64.5z"/></g><g transform="matrix(.011713 0 0 .011711 .005856 .006783)" fill="#0a060c" stroke="#0a060c"><path d="m1079.5 32 110.5 64.5-52.5 30.5-5 1-109.5-63.5z"/><path d="m911.5 65h3l53.5 31.5-53.5 31.5h-3l-54.5-31.5z"/><path d="m1744.5 416 54.5 32.5-53.5 31.5h-3l-53.5-31.5z"/><path d="m301.5 417h3l53.5 31.5-108.5 63.5h-3l-54.5-31.5z"/><path d="m1910.5 512 0.5 1025-55.5 32-0.5-1024-109.5 63h-3l-53.5-31.5 108.5-63.5h3l53 31h3z"/><path d="m246.5 513h3l108.5 63.5-53.5 31.5h-3l-109.5-63.5z"/><path d="m911.5 897h3l53.5 31.5-53.5 31.5h-3l-54.5-31.5z"/><path d="m1132.5 897 5 1 52.5 30.5-52.5 30.5-5 1-53.5-31.5z"/><path d="m1520.5 929 1.5 0.5v63.5l-111 63v-63.5l1.5-0.5z"/><path d="m1077.5 993 1.5 0.5v1023l-45.5 27.5-9.5 4v-1023.5l1.5-0.5z"/><path d="m1520.5 1185 1.5 0.5v63.5l-111 63v-63.5l1.5-0.5z"/><path d="m525.5 1440 110.5 64.5-0.5 63.5-110.5-64.5z"/><path d="m1520.5 1697 1.5 0.5v63l-110.5 64.5-0.5-65q55.9-29.8 109.5-63z"/></g><g transform="matrix(.011713 0 0 .011711 .005856 .006783)" fill="#494949" stroke="#494949"><path d="m1797.5 577 1.5 0.5v63.5l-166 95v-63.5l1.5-0.5z"/><path d="m1299.5 865 1.5 0.5v63.5l-111 63v-63.5l1.5-0.5z"/><path d="m1631.5 929 1.5 0.5v63.5l-111 63v-63.5l1.5-0.5z"/><path d="m1409.5 1057 1.5 0.5v63.5l-221 127v-63.5l1.5-0.5z"/><path d="m1797.5 1089 1.5 0.5v63.5l-277 159v-63.5l1.5-0.5z"/><path d="m1132.5 1217 1.5 0.5v63.5l-55 31v-63.5l1.5-0.5z"/><path d="m1409.5 1313 1.5 0.5v63.5l-55 31v-63.5l1.5-0.5z"/><path d="m1853.5 1313 1.5 0.5v63.5l-56 31v-63.5l1.5-0.5z"/><path d="m1742.5 1377 1.5 0.5v63.5l-55 31v-63.5l1.5-0.5z"/><path d="m1188.5 1441 1.5 0.5v63.5l-111 63v-63.5l1.5-0.5z"/><path d="m1631.5 1441 1.5 0.5v63.5l-111 63v-63.5l1.5-0.5z"/><path d="m1299.5 1633 1.5 0.5v63.5l-111 63v-63.5l1.5-0.5z"/></g><g transform="matrix(.011713 0 0 .011711 .005856 .006783)" fill="#626262" stroke="#626262"><path d="m192 545 56 31v63.5l1.5 1.5 108.5 63.5v63l1.5 1.5 54.5 31.5-0.5 63.5-55.5-32.5v-63l-2.5-2.5-107.5-62.5v-63l-2.5-2.5-53.5-30.5z"/><path d="m469.5 832 55.5 32.5-0.5 63.5-55.5-32.5z"/><path d="m691.5 896 110.5 64.5v63l1.5 1.5 53.5 31.5-0.5 63.5-110.5-64.5v-63l-2.5-2.5-52.5-30.5z"/><path d="m248.5 960 54.5 32.5-0.5 63.5-54.5-32.5z"/><path d="m414.5 992 54.5 32.5v63l1.5 1.5 54.5 31.5-0.5 63.5-166.5-96.5 0.5-63.5 55 32z"/><path d="m192.5 1120 55.5 32.5-0.5 63.5-55.5-32.5z"/><path d="m636.5 1120 109.5 64.5-0.5 63.5-109.5-64.5z"/><path d="m358.5 1152 110.5 64.5v63l1.5 1.5 54.5 31.5-0.5 63.5-55.5-32.5v-63l-2.5-2.5-108.5-62.5z"/><path d="m802.5 1152 54.5 32.5-0.5 63.5-54.5-32.5z"/><path d="m192.5 1376 55.5 32.5-0.5 63.5-55.5-32.5z"/><path d="m691.5 1408 54.5 32.5v63l1.5 1.5 54.5 31.5-0.5 63.5-165.5-96.5 0.5-63.5 54 32z"/><path d="m303.5 1504 54.5 32.5-0.5 63.5-54.5-32.5z"/><path d="m469.5 1536 55.5 32.5-0.5 63.5-55-32-1 64-54.5-32.5 0.5-63.5 54 32z"/><path d="m746.5 1696 55.5 32.5-0.5 63.5-55-32-1 64-54.5-32.5 0.5-63.5 54 32z"/><path d="m857.5 1760 110.5 64.5-0.5 63.5-110.5-64.5z"/></g><g transform="matrix(.011713 0 0 .011711 .005856 .006783)" fill="#130c19" stroke="#130c19"><path d="m1023.5 0 55.5 32.5-109.5 63.5h-3l-53.5-31.5z"/><path d="m1190.5 96 54.5 32.5-53.5 31.5h-3l-54.5-31.5z"/><path d="m855.5 97 5 1 52.5 30.5-52.5 30.5-5 1-53.5-31.5z"/><path d="m1689.5 384 54.5 32.5-53.5 31.5h-3l-54.5-31.5z"/><path d="m356.5 385 5 1 52.5 30.5-52.5 30.5-5 1-53.5-31.5z"/><path d="m1799.5 448 110.5 64.5-53.5 31.5h-3l-109.5-63.5z"/><path d="m190.5 481 5 1 52.5 30.5-52.5 30.5-5 1-53.5-31.5z"/><path d="m356.5 577 5 1 52.5 30.5-52.5 30.5-5 1-53.5-31.5z"/><path d="m1687.5 577h3l53.5 31.5-53.5 31.5h-3l-54.5-31.5z"/><path d="m855.5 865 5 1 52.5 30.5-52.5 30.5-5 1-53.5-31.5z"/><path d="m1188.5 865h3l53.5 31.5-53.5 31.5h-3l-54.5-31.5z"/><path d="m966.5 929 5 1 51 30h3l52-31h3l53.5 31.5-108.5 63.5h-3l-109.5-63.5z"/></g><path d="m2.9165 13.498 1.9385 1.1301-0.00586 1.4932-1.2943-0.75537v-0.7378l-0.029283-0.02928-0.61493-0.35719z" fill="#ababab" stroke="#ababab" stroke-width=".011712"/><path d="m8.7496 15.372 1.9502 1.1301-0.0058 4.4912-0.65007-0.38061v-1.4873l-0.02928-0.02928-0.61493-0.35719v-1.4873l-0.029283-0.02928-0.62665-0.35719z" fill="#ababab" stroke="#ababab" stroke-width=".011712"/></svg>
