<svg version="1.1" viewBox="0 0 24 24" xmlns="http://www.w3.org/2000/svg"><defs><linearGradient id="linearGradient" x1="12" x2="12" y2="24" gradientUnits="userSpaceOnUse"><stop stop-color="#6ec257" offset="0"/><stop stop-color="#87ce75" offset="1"/></linearGradient></defs><rect width="24" height="24" rx="1" ry="1" fill="url(#linearGradient)"/><path d="m5.8902 12.547c0-3.5952 4.7755-7.5023 4.7755-7.5023s1.7501 1.609 2.404 2.4257c0.29847-0.39072 1.2861-1.164 1.2861-1.164s3.6901 3.0769 3.6901 6.2379c0 3.4676-2.7079 6.3926-6.0778 6.3926-3.4079 0-6.0778-2.9277-6.0778-6.3899zm6.124 3.7851c0.68647 0 1.2943-0.18993 1.8668-0.5698 1.1423-0.79772 1.4489-2.3932 0.76244-3.6467-0.07598-0.15195-0.15194-0.30389-0.26591-0.45584l-1.3729 1.5954s-2.2086-2.811-2.3633-3.0009c-1.1396 1.4055-1.7121 2.2032-1.7121 3.1149 0 1.8613 1.3729 2.963 3.0851 2.963z" fill="#fff" stroke-width=".027133"/></svg>
