<?xml version="1.0" encoding="UTF-8" standalone="no"?>
<svg
   viewBox="0 0 24 24"
   version="1.1"
   id="svg1"
   sodipodi:docname="vegas-pro-14-fix.svg"
   inkscape:version="1.3.1 (91b66b0783, 2023-11-16)"
   xmlns:inkscape="http://www.inkscape.org/namespaces/inkscape"
   xmlns:sodipodi="http://sodipodi.sourceforge.net/DTD/sodipodi-0.dtd"
   xmlns="http://www.w3.org/2000/svg"
   xmlns:svg="http://www.w3.org/2000/svg">
  <defs
     id="defs1">
    <linearGradient
       id="g1"
       x1="46.099998"
       y1="4.1999998"
       x2="46.099998"
       y2="331.29999"
       gradientUnits="userSpaceOnUse">
      <stop
         offset="0"
         stop-color="#333333"
         id="stop1" />
      <stop
         offset="1"
         stop-color="#282828"
         id="stop2" />
    </linearGradient>
    <clipPath
       clipPathUnits="userSpaceOnUse"
       id="cp1">
      <path
         d="m 648.71,1 c 13.63,0 24.59,10.97 24.59,24.59 v 623.32 c 0,13.62 -10.96,24.59 -24.59,24.59 H 507.99 L 373.28,430.81 326.63,296.11 513.69,1 Z m -83.33,33.45 -16.35,25.82 c -1.56,2.45 -0.83,5.67 1.62,7.22 l 44.27,28.03 c 2.45,1.55 5.67,0.83 7.22,-1.62 l 16.35,-25.82 c 1.55,-2.45 0.83,-5.67 -1.62,-7.22 L 572.6,32.83 c -0.92,-0.59 -1.95,-0.85 -2.96,-0.82 -1.67,0.05 -3.29,0.91 -4.26,2.44 z m -52.57,92.87 -16.35,25.83 c -1.55,2.45 -0.83,5.67 1.62,7.22 l 44.28,28.03 c 2.44,1.55 5.66,0.83 7.21,-1.62 l 16.36,-25.83 c 1.55,-2.45 0.82,-5.67 -1.63,-7.22 L 520.03,125.7 c -0.92,-0.58 -1.94,-0.84 -2.95,-0.81 -1.68,0.05 -3.3,0.9 -4.27,2.43 z m -53.72,89.16 -16.35,25.83 c -1.56,2.45 -0.83,5.67 1.62,7.22 l 44.27,28.03 c 2.45,1.55 5.67,0.83 7.22,-1.62 l 16.35,-25.83 c 1.55,-2.45 0.83,-5.67 -1.62,-7.22 l -44.27,-28.03 c -0.92,-0.58 -1.95,-0.84 -2.96,-0.81 -1.67,0.04 -3.29,0.9 -4.26,2.43 z m -52.57,92.88 -16.35,25.82 c -1.55,2.45 -0.83,5.67 1.62,7.22 l 44.28,28.03 c 2.44,1.55 5.66,0.83 7.21,-1.62 l 16.36,-25.83 c 1.55,-2.44 0.82,-5.66 -1.63,-7.21 l -44.27,-28.04 c -0.92,-0.58 -1.94,-0.84 -2.95,-0.81 -1.68,0.05 -3.3,0.91 -4.27,2.44 z"
         id="path2" />
    </clipPath>
    <linearGradient
       id="g2"
       x1="673.29999"
       y1="1"
       x2="673.29999"
       y2="848.90002"
       gradientUnits="userSpaceOnUse">
      <stop
         offset="0"
         stop-color="#f1f1f1"
         id="stop3" />
      <stop
         offset="1"
         stop-color="#d5d5d5"
         id="stop4" />
    </linearGradient>
    <linearGradient
       id="g3"
       x1="0"
       y1="1"
       x2="0"
       y2="848.90002"
       gradientUnits="userSpaceOnUse">
      <stop
         offset="0"
         stop-color="#0fb1fd"
         id="stop5" />
      <stop
         offset="1"
         stop-color="#1790ff"
         id="stop6" />
    </linearGradient>
  </defs>
  <sodipodi:namedview
     id="namedview1"
     pagecolor="#ffffff"
     bordercolor="#000000"
     borderopacity="0.25"
     inkscape:showpageshadow="2"
     inkscape:pageopacity="0.0"
     inkscape:pagecheckerboard="0"
     inkscape:deskcolor="#d1d1d1"
     inkscape:zoom="24.188944"
     inkscape:cx="4.444179"
     inkscape:cy="14.159361"
     inkscape:window-width="1920"
     inkscape:window-height="1017"
     inkscape:window-x="1432"
     inkscape:window-y="727"
     inkscape:window-maximized="1"
     inkscape:current-layer="svg1" />
  <g
     id="layer1"
     transform="matrix(0.03564533,0,0,0.03568773,0,-0.03568773)">
    <path
       id="rect1661"
       class="s0"
       d="M 32.6,1 H 641.7 V 668.4 H 32.6 Z"
       style="fill:url(#g1)" />
    <path
       id="rect1435-6 copy"
       class="s1"
       d="m 143.1,1 c -13.6,0 -31.6,12.3 -24.6,23.5 l 396.7,623.2 c 7.8,12.2 12.3,25.8 26.6,25.8 h 74.3 L 170.8,1 Z"
       style="opacity:0.5;fill:#000000" />
    <g
       clip-path="url(#cp1)"
       id="g6">
      <path
         id="rect1435-3"
         fill-rule="evenodd"
         class="s2"
         d="m 648.7,1 c 13.6,0 24.6,11 24.6,24.6 v 623.3 c 0,13.6 -11,24.6 -24.6,24.6 H 508 L 373.3,430.8 326.6,296.1 513.7,1 Z M 565.4,34.4 549,60.3 c -1.5,2.4 -0.8,5.6 1.6,7.2 l 44.3,28 c 2.4,1.6 5.7,0.9 7.2,-1.6 l 16.4,-25.8 c 1.5,-2.5 0.8,-5.7 -1.7,-7.2 L 572.6,32.8 c -0.9,-0.6 -2,-0.8 -3,-0.8 -1.7,0.1 -3.3,0.9 -4.2,2.4 z m -52.6,92.9 -16.4,25.8 c -1.5,2.5 -0.8,5.7 1.7,7.3 l 44.2,28 c 2.5,1.5 5.7,0.8 7.3,-1.6 L 565.9,161 c 1.6,-2.5 0.8,-5.7 -1.6,-7.3 l -44.3,-28 c -0.9,-0.6 -1.9,-0.8 -2.9,-0.8 -1.7,0 -3.3,0.9 -4.3,2.4 z m -53.7,89.2 -16.4,25.8 c -1.5,2.5 -0.8,5.7 1.6,7.2 l 44.3,28.1 c 2.5,1.5 5.7,0.8 7.2,-1.7 l 16.4,-25.8 c 1.5,-2.4 0.8,-5.7 -1.6,-7.2 l -44.3,-28 c -0.9,-0.6 -2,-0.9 -3,-0.9 -1.6,0.1 -3.3,1 -4.2,2.5 z m -52.6,92.9 -16.4,25.8 c -1.5,2.4 -0.8,5.7 1.7,7.2 l 44.2,28 c 2.5,1.6 5.7,0.9 7.3,-1.6 L 459.6,343 c 1.6,-2.5 0.8,-5.7 -1.6,-7.2 l -44.3,-28.1 c -0.9,-0.5 -1.9,-0.8 -2.9,-0.8 -1.7,0.1 -3.3,0.9 -4.3,2.5 z"
         style="fill:url(#g2)" />
      <path
         id="rect1435-6"
         class="s3"
         d="M 125,1 C 110.8,1 92.5,14.3 100.2,26.3 L 500,649.6 c 7.2,11.3 11.3,23.9 25,23.9 h 71.5 L 153.8,1 Z"
         style="opacity:0.8;fill:#a6a7aa" />
    </g>
    <path
       id="rect1435"
       fill-rule="evenodd"
       class="s4"
       d="M 159.6,1 553,673.5 H 24.6 C 11,673.5 0,662.5 0,648.9 V 25.6 C 0,12 11,1 24.6,1 Z M 100,32.4 55.7,60.5 c -2.4,1.5 -3.1,4.7 -1.6,7.2 l 16.4,25.8 c 1.5,2.4 4.7,3.2 7.2,1.6 l 44.2,-28 c 2.5,-1.6 3.2,-4.8 1.7,-7.2 L 107.2,34 c -1,-1.5 -2.6,-2.3 -4.3,-2.4 -1,0 -2,0.2 -2.9,0.8 z m 52.6,92.9 -44.3,28 c -2.5,1.6 -3.2,4.8 -1.6,7.2 l 16.3,25.9 c 1.6,2.4 4.8,3.1 7.2,1.6 l 44.3,-28 c 2.5,-1.6 3.2,-4.8 1.6,-7.3 l -16.3,-25.8 c -1,-1.5 -2.6,-2.4 -4.3,-2.4 -1,0 -2,0.2 -2.9,0.8 z m 51.3,91.4 -44.3,28.1 c -2.5,1.5 -3.2,4.7 -1.6,7.2 l 16.3,25.8 c 1.6,2.5 4.8,3.2 7.2,1.6 l 44.3,-28 c 2.5,-1.5 3.2,-4.8 1.6,-7.2 l -16.3,-25.8 c -1,-1.6 -2.6,-2.4 -4.3,-2.5 -1,0 -2,0.3 -2.9,0.8 z m 52.5,92.9 -44.3,28 c -2.4,1.6 -3.1,4.8 -1.6,7.3 l 16.4,25.8 c 1.5,2.4 4.7,3.2 7.2,1.6 l 44.3,-28 c 2.4,-1.6 3.1,-4.8 1.6,-7.2 l -16.4,-25.9 c -0.9,-1.5 -2.5,-2.4 -4.2,-2.4 -1,0 -2.1,0.2 -3,0.8 z m 54.2,89.2 -44.3,28 c -2.4,1.5 -3.2,4.8 -1.6,7.2 l 16.3,25.8 c 1.6,2.5 4.8,3.2 7.3,1.7 l 44.2,-28.1 c 2.5,-1.5 3.2,-4.7 1.6,-7.2 l -16.3,-25.8 c -1,-1.5 -2.6,-2.4 -4.3,-2.5 -1,0 -2,0.3 -2.9,0.9 z m 52.5,92.8 -44.2,28.1 c -2.5,1.5 -3.2,4.7 -1.7,7.2 l 16.4,25.8 c 1.5,2.5 4.8,3.2 7.2,1.6 l 44.3,-28 c 2.4,-1.5 3.2,-4.8 1.6,-7.2 l -16.3,-25.8 c -1,-1.6 -2.6,-2.4 -4.3,-2.5 -1,0 -2,0.3 -3,0.8 z m 51.3,91.5 -44.2,28 c -2.5,1.6 -3.2,4.8 -1.7,7.2 l 16.4,25.9 c 1.5,2.4 4.8,3.1 7.2,1.6 l 44.3,-28.1 c 2.4,-1.5 3.2,-4.7 1.6,-7.2 l -16.3,-25.8 c -1,-1.5 -2.6,-2.4 -4.3,-2.4 -1,-0.1 -2,0.2 -3,0.8 z"
       style="fill:url(#g3)" />
  </g>
</svg>
