<svg height="499.95" width="500" xmlns="http://www.w3.org/2000/svg"><g fill-rule="evenodd"><path d="M500 249.95q0 50.85-19.65 97.3-19 44.9-53.6 79.5T347.3 480.3q-46.45 19.65-97.3 19.65-50.9 0-97.3-19.65-44.9-18.95-79.5-53.55-34.6-34.6-53.55-79.5Q0 300.8 0 249.95q0-50.85 19.65-97.3Q38.6 107.8 73.2 73.2q34.6-34.6 79.5-53.55Q199.15 0 250 0q50.85 0 97.3 19.65 44.85 18.95 79.45 53.55 34.6 34.6 53.6 79.45Q500 199.1 500 249.95m-159.4-89.8h-46.35L252.7 326.2q-.35.95-1.2.95h-5.8l-.8-.25q-.4-.3-.4-.7l-41.75-166.05h-46.5l55.9 190.75q1.2 5.15 5.4 8.75 4.2 3.6 10.4 3.6h41.15q6 0 10.2-3.6 4.35-3.75 5.75-8.75l55.55-190.75" fill="#406aff"/><path d="M340.6 160.15 285.05 350.9q-1.4 5-5.75 8.75-4.2 3.6-10.2 3.6h-41.15q-6.2 0-10.4-3.6t-5.4-8.75l-55.9-190.75h46.5L244.5 326.2q0 .4.4.7l.8.25h5.8q.85 0 1.2-.95l41.55-166.05h46.35" fill="#fff"/></g></svg>