<svg viewBox="0 0 24 24" xml:space="preserve" xmlns="http://www.w3.org/2000/svg"><g style="clip-rule:evenodd;fill-rule:evenodd;image-rendering:optimizeQuality;shape-rendering:geometricPrecision;text-rendering:geometricPrecision"><path style="opacity:1" fill="#0fb0fb" d="M-.5-.5h1000v992h-391c-7.587-10.332-15.421-21.665-23.5-34-.667-.667-.667-1.333 0-2 19.961-.232 40.128-.732 60.5-1.5-63.666-.5-127.332-.667-191-.5a9173.05 9173.05 0 0 0-191-1 12543 12543 0 0 1-224-1h920v-912h-920c-1 85.498-1.333 171.165-1 257a17438.453 17438.453 0 0 1-1.5-187c-.654-1.196-1.154-1.196-1.5 0 .65 6.953.983 13.953 1 21a127.129 127.129 0 0 1-1.5 22 774.006 774.006 0 0 0-21-31c.257-2.876-.743-5.543-3-8-1.281.119-2.448-.381-3.5-1.5 1.333-1.84 1.166-2.34-.5-1.5a101.396 101.396 0 0 0-7.5-9V-.5z" transform="matrix(.024 0 0 .024 .012 .012)"/><path style="opacity:1" fill="#0f0f0f" d="M40.5 40.5h226a1289.422 1289.422 0 0 1-51 1.5c1.154.914.987 1.747-.5 2.5l-1.5-1.5a308.732 308.732 0 0 0-43 .5 56687.915 56687.915 0 0 0 143.5 171c.617.949.451 1.782-.5 2.5a3190.813 3190.813 0 0 0 49 58l-36 1c25.503.168 50.837.668 76 1.5-25.342-.333-50.675 0-76 1 .124.607.457.94 1 1a169269.725 169269.725 0 0 1 144 440h56a9060.724 9060.724 0 0 1 58-176c1.478-.262 2.811.071 4 1a152683.585 152683.585 0 0 1 337 403 225.771 225.771 0 0 0 30 1c-.455-6.514.045-12.847 1.5-19 .167-39.835.667-79.502 1.5-119v141h-532c82.832-.833 165.832-1.333 249-1.5a9.454 9.454 0 0 1-2.5-1.5 296.6 296.6 0 0 1-48.5 0 3.647 3.647 0 0 1 1-1.5A828683.263 828683.263 0 0 1 42 248.5c-.529-69.192-1.029-138.525-1.5-208z" transform="matrix(.024 0 0 .024 .012 .012)"/><path style="opacity:1" fill="#151515" d="M266.5 40.5c66.334-.167 132.668 0 199 .5 67.584 79.89 132.917 157.89 196 234l-64 1c25.17.168 50.17.668 75 1.5-25.241-.328-50.408.005-75.5 1a21174.87 21174.87 0 0 1-60.5 190c-1.826 2.83-3.326 6.497-4.5 11-.72-1.612-.554-3.112.5-4.5A4689.6 4689.6 0 0 1 428 350.5a2129.484 2129.484 0 0 1-13.5-43h-3a732.288 732.288 0 0 0-9-29v-1a2872.361 2872.361 0 0 0-76-1.5l36-1a3190.813 3190.813 0 0 1-49-58c.951-.718 1.117-1.551.5-2.5a56687.915 56687.915 0 0 1-143.5-171 308.732 308.732 0 0 1 43-.5l1.5 1.5c1.487-.753 1.654-1.586.5-2.5 17.172-.168 34.172-.668 51-1.5z" transform="matrix(.024 0 0 .024 .012 .012)"/><path style="opacity:1" fill="#191919" d="M39.5 40.5v-1h920v591a49141.068 49141.068 0 0 1-262.5-314 1189.937 1189.937 0 0 0-26.5-30l2-9c-24.83-.832-49.83-1.332-75-1.5l64-1c-63.083-76.11-128.416-154.11-196-234-66.332-.5-132.666-.667-199-.5h-227z" transform="matrix(.024 0 0 .024 .012 .012)"/><path style="opacity:1" fill="#10abfd" d="M-.5 101.5c2.636 2.81 5.136 5.81 7.5 9 1.666-.84 1.833-.34.5 1.5 1.052 1.119 2.219 1.619 3.5 1.5 2.257 2.457 3.257 5.124 3 8a774.006 774.006 0 0 1 21 31 127.129 127.129 0 0 0 1.5-22 231.718 231.718 0 0 0-1-21c.346-1.196.846-1.196 1.5 0 .167 62.501.667 124.835 1.5 187 .167 93.001 0 186.001-.5 279l-1-188-1.5 1.5a276.59 276.59 0 0 1 .5 40.5c-1.333-3.939-3.666-6.273-7-7-.617-.949-.45-1.782.5-2.5a650.818 650.818 0 0 0-30-42.5v-276z" transform="matrix(.024 0 0 .024 .012 .012)"/><path style="opacity:1" fill="#090909" d="M39.5 40.5h1c.471 69.475.971 138.808 1.5 208A828683.263 828683.263 0 0 0 626.5 947a3.647 3.647 0 0 0-1 1.5 296.6 296.6 0 0 0 48.5 0 9.454 9.454 0 0 0 2.5 1.5c-83.168.167-166.168.667-249 1.5h-100a1191.857 1191.857 0 0 1 49-1.5 9.454 9.454 0 0 1-2.5-1.5 296.6 296.6 0 0 1-48.5 0 3.647 3.647 0 0 1 1-1.5A68252.346 68252.346 0 0 0 43 608.5l-1 1c.284-40.197-.05-80.531-1-121-.5 154.333-.667 308.666-.5 463h-1v-911z" transform="matrix(.024 0 0 .024 .012 .012)"/><path style="opacity:1" fill="#106188" d="M402.5 277.5v1c-25.172-.331-50.172.002-75 1-.543-.06-.876-.393-1-1 25.325-1 50.658-1.333 76-1z" transform="matrix(.024 0 0 .024 .012 .012)"/><path style="opacity:1" fill="#0fb0fb" d="m672.5 277.5-2 9a19314.758 19314.758 0 0 0-85 257 9060.724 9060.724 0 0 0-58 176h-56a169269.725 169269.725 0 0 0-144-440 1406.593 1406.593 0 0 1 75-1 732.288 732.288 0 0 1 9 29 134637.88 134637.88 0 0 0 88.5 278 7904.93 7904.93 0 0 0 36.5-117 21174.87 21174.87 0 0 0 60.5-190 1434.677 1434.677 0 0 1 75.5-1z" transform="matrix(.024 0 0 .024 .012 .012)"/><path style="opacity:1" fill="#151515" d="M670.5 286.5a1189.937 1189.937 0 0 1 26.5 30 49141.068 49141.068 0 0 0 262.5 314v180a7044.442 7044.442 0 0 0-1.5 119c-1.455 6.153-1.955 12.486-1.5 19a225.771 225.771 0 0 1-30-1 152683.585 152683.585 0 0 0-337-403c-1.189-.929-2.522-1.262-4-1a19314.758 19314.758 0 0 1 85-257z" transform="matrix(.024 0 0 .024 .012 .012)"/><path style="opacity:1" fill="#111112" d="M411.5 307.5h3a2129.484 2129.484 0 0 0 13.5 43A4689.6 4689.6 0 0 0 532.5 475c-1.054 1.388-1.22 2.888-.5 4.5 1.174-4.503 2.674-8.17 4.5-11a7904.93 7904.93 0 0 1-36.5 117 134637.88 134637.88 0 0 1-88.5-278z" transform="matrix(.024 0 0 .024 .012 .012)"/><path style="opacity:1" fill="#11a4fb" d="M39.5 39.5v912a65162.199 65162.199 0 0 0-2.5-284c-.654-1.196-1.154-1.196-1.5 0a285.645 285.645 0 0 1 .5 41A3571.408 3571.408 0 0 0 1.5 658a2.429 2.429 0 0 0-2-.5v-280a650.818 650.818 0 0 1 30 42.5c-.95.718-1.117 1.551-.5 2.5 3.334.727 5.667 3.061 7 7a276.59 276.59 0 0 0-.5-40.5l1.5-1.5 1 188c.5-92.999.667-185.999.5-279-.333-85.835 0-171.502 1-257z" transform="matrix(.024 0 0 .024 .012 .012)"/><path style="opacity:1" fill="#040404" d="M327.5 951.5h-287c-.167-154.334 0-308.667.5-463 .95 40.469 1.284 80.803 1 121l1-1A68252.346 68252.346 0 0 1 326.5 947a3.647 3.647 0 0 0-1 1.5 296.6 296.6 0 0 0 48.5 0 9.454 9.454 0 0 0 2.5 1.5c-16.505.169-32.838.669-49 1.5z" transform="matrix(.024 0 0 .024 .012 .012)"/><path style="opacity:1" fill="#139ffd" d="M-.5 657.5a2.429 2.429 0 0 1 2 .5A3571.408 3571.408 0 0 1 36 708.5a285.645 285.645 0 0 0-.5-41c.346-1.196.846-1.196 1.5 0a65162.199 65162.199 0 0 1 2.5 284 12543 12543 0 0 0 224 1c-10.194 1.676-20.694 2.676-31.5 3a101.168 101.168 0 0 0-14-1c-5.005-.143-9.839.357-14.5 1.5a6.978 6.978 0 0 1 3.5 2.5 19122.723 19122.723 0 0 0 21.5 33h-190c-11.17-16.059-22.67-33.059-34.5-51l-3-1c1.008-1.866.508-3.199-1.5-4v-278z" transform="matrix(.024 0 0 .024 .012 .012)"/><path style="opacity:1" fill="#149bfe" d="M-.5 935.5c2.008.801 2.508 2.134 1.5 4l3 1c11.83 17.941 23.33 34.941 34.5 51h-39v-56z" transform="matrix(.024 0 0 .024 .012 .012)"/><path style="opacity:1" fill="#11a5fd" d="M263.5 952.5a9173.05 9173.05 0 0 1 191 1l-31 2a144.36 144.36 0 0 0-29-.5 3.647 3.647 0 0 0-1 1.5 1022.217 1022.217 0 0 1 24 35h-189a19122.723 19122.723 0 0 1-21.5-33 6.978 6.978 0 0 0-3.5-2.5c4.661-1.143 9.495-1.643 14.5-1.5 4.747.013 9.414.347 14 1 10.806-.324 21.306-1.324 31.5-3z" transform="matrix(.024 0 0 .024 .012 .012)"/><path style="opacity:1" fill="#10abfc" d="M454.5 953.5c63.668-.167 127.334 0 191 .5a2322.563 2322.563 0 0 1-60.5 1.5c-.667.667-.667 1.333 0 2 8.079 12.335 15.913 23.668 23.5 34h-161a658.417 658.417 0 0 0-24-36l31-2z" transform="matrix(.024 0 0 .024 .012 .012)"/><path style="opacity:1" fill="#11a8fd" d="M423.5 955.5a658.417 658.417 0 0 1 24 36h-30a1022.217 1022.217 0 0 0-24-35 3.647 3.647 0 0 1 1-1.5 144.36 144.36 0 0 1 29 .5z" transform="matrix(.024 0 0 .024 .012 .012)"/></g></svg>