<svg version="1.2" xmlns="http://www.w3.org/2000/svg" viewBox="0 0 674 674" width="674" height="674">
	<title>Vegas_Pro_14-svg</title>
	<defs>
		<linearGradient id="g1" x1="46.1" y1="4.2" x2="46.1" y2="331.3" gradientUnits="userSpaceOnUse">
			<stop offset="0" stop-color="#333333"/>
			<stop offset="1" stop-color="#282828"/>
		</linearGradient>
		<clipPath clipPathUnits="userSpaceOnUse" id="cp1">
			<path d="m648.71 1c13.63 0 24.59 10.97 24.59 24.59v623.32c0 13.62-10.96 24.59-24.59 24.59h-140.72l-134.71-242.69-46.65-134.7 187.06-295.11zm-83.33 33.45l-16.35 25.82c-1.56 2.45-0.83 5.67 1.62 7.22l44.27 28.03c2.45 1.55 5.67 0.83 7.22-1.62l16.35-25.82c1.55-2.45 0.83-5.67-1.62-7.22l-44.27-28.03c-0.92-0.59-1.95-0.85-2.96-0.82-1.67 0.05-3.29 0.91-4.26 2.44zm-52.57 92.87l-16.35 25.83c-1.55 2.45-0.83 5.67 1.62 7.22l44.28 28.03c2.44 1.55 5.66 0.83 7.21-1.62l16.36-25.83c1.55-2.45 0.82-5.67-1.63-7.22l-44.27-28.03c-0.92-0.58-1.94-0.84-2.95-0.81-1.68 0.05-3.3 0.9-4.27 2.43zm-53.72 89.16l-16.35 25.83c-1.56 2.45-0.83 5.67 1.62 7.22l44.27 28.03c2.45 1.55 5.67 0.83 7.22-1.62l16.35-25.83c1.55-2.45 0.83-5.67-1.62-7.22l-44.27-28.03c-0.92-0.58-1.95-0.84-2.96-0.81-1.67 0.04-3.29 0.9-4.26 2.43zm-52.57 92.88l-16.35 25.82c-1.55 2.45-0.83 5.67 1.62 7.22l44.28 28.03c2.44 1.55 5.66 0.83 7.21-1.62l16.36-25.83c1.55-2.44 0.82-5.66-1.63-7.21l-44.27-28.04c-0.92-0.58-1.94-0.84-2.95-0.81-1.68 0.05-3.3 0.91-4.27 2.44z"/>
		</clipPath>
		<linearGradient id="g2" x1="673.3" y1="1" x2="673.3" y2="848.9" gradientUnits="userSpaceOnUse">
			<stop offset="0" stop-color="#f1f1f1"/>
			<stop offset="1" stop-color="#d5d5d5"/>
		</linearGradient>
		<linearGradient id="g3" x1="0" y1="1" x2="0" y2="848.9" gradientUnits="userSpaceOnUse">
			<stop offset="0" stop-color="#0fb1fd"/>
			<stop offset="1" stop-color="#1790ff"/>
		</linearGradient>
	</defs>
	<style>
		.s0 { fill: url(#g1) } 
		.s1 { opacity: .5;fill: #000000 } 
		.s2 { fill: url(#g2) } 
		.s3 { opacity: .8;fill: #a6a7aa } 
		.s4 { fill: url(#g3) } 
	</style>
	<g id="layer1">
		<path id="rect1661" class="s0" d="m32.6 1h609.1v667.4h-609.1z"/>
		<path id="rect1435-6 copy" class="s1" d="m143.1 1c-13.6 0-31.6 12.3-24.6 23.5l396.7 623.2c7.8 12.2 12.3 25.8 26.6 25.8h74.3l-445.3-672.5z"/>
		<g clip-path="url(#cp1)">
			<path id="rect1435-3" fill-rule="evenodd" class="s2" d="m648.7 1c13.6 0 24.6 11 24.6 24.6v623.3c0 13.6-11 24.6-24.6 24.6h-140.7l-134.7-242.7-46.7-134.7 187.1-295.1zm-83.3 33.4l-16.4 25.9c-1.5 2.4-0.8 5.6 1.6 7.2l44.3 28c2.4 1.6 5.7 0.9 7.2-1.6l16.4-25.8c1.5-2.5 0.8-5.7-1.7-7.2l-44.2-28.1c-0.9-0.6-2-0.8-3-0.8-1.7 0.1-3.3 0.9-4.2 2.4zm-52.6 92.9l-16.4 25.8c-1.5 2.5-0.8 5.7 1.7 7.3l44.2 28c2.5 1.5 5.7 0.8 7.3-1.6l16.3-25.8c1.6-2.5 0.8-5.7-1.6-7.3l-44.3-28c-0.9-0.6-1.9-0.8-2.9-0.8-1.7 0-3.3 0.9-4.3 2.4zm-53.7 89.2l-16.4 25.8c-1.5 2.5-0.8 5.7 1.6 7.2l44.3 28.1c2.5 1.5 5.7 0.8 7.2-1.7l16.4-25.8c1.5-2.4 0.8-5.7-1.6-7.2l-44.3-28c-0.9-0.6-2-0.9-3-0.9-1.6 0.1-3.3 1-4.2 2.5zm-52.6 92.9l-16.4 25.8c-1.5 2.4-0.8 5.7 1.7 7.2l44.2 28c2.5 1.6 5.7 0.9 7.3-1.6l16.3-25.8c1.6-2.5 0.8-5.7-1.6-7.2l-44.3-28.1c-0.9-0.5-1.9-0.8-2.9-0.8-1.7 0.1-3.3 0.9-4.3 2.5z"/>
			<path id="rect1435-6" class="s3" d="m125 1c-14.2 0-32.5 13.3-24.8 25.3l399.8 623.3c7.2 11.3 11.3 23.9 25 23.9h71.5l-442.7-672.5z"/>
		</g>
		<path id="rect1435" fill-rule="evenodd" class="s4" d="m159.6 1l393.4 672.5h-528.4c-13.6 0-24.6-11-24.6-24.6v-623.3c0-13.6 11-24.6 24.6-24.6zm-59.6 31.4l-44.3 28.1c-2.4 1.5-3.1 4.7-1.6 7.2l16.4 25.8c1.5 2.4 4.7 3.2 7.2 1.6l44.2-28c2.5-1.6 3.2-4.8 1.7-7.2l-16.4-25.9c-1-1.5-2.6-2.3-4.3-2.4-1 0-2 0.2-2.9 0.8zm52.6 92.9l-44.3 28c-2.5 1.6-3.2 4.8-1.6 7.2l16.3 25.9c1.6 2.4 4.8 3.1 7.2 1.6l44.3-28c2.5-1.6 3.2-4.8 1.6-7.3l-16.3-25.8c-1-1.5-2.6-2.4-4.3-2.4-1 0-2 0.2-2.9 0.8zm51.3 91.4l-44.3 28.1c-2.5 1.5-3.2 4.7-1.6 7.2l16.3 25.8c1.6 2.5 4.8 3.2 7.2 1.6l44.3-28c2.5-1.5 3.2-4.8 1.6-7.2l-16.3-25.8c-1-1.6-2.6-2.4-4.3-2.5-1 0-2 0.3-2.9 0.8zm52.5 92.9l-44.3 28c-2.4 1.6-3.1 4.8-1.6 7.3l16.4 25.8c1.5 2.4 4.7 3.2 7.2 1.6l44.3-28c2.4-1.6 3.1-4.8 1.6-7.2l-16.4-25.9c-0.9-1.5-2.5-2.4-4.2-2.4-1 0-2.1 0.2-3 0.8zm54.2 89.2l-44.3 28c-2.4 1.5-3.2 4.8-1.6 7.2l16.3 25.8c1.6 2.5 4.8 3.2 7.3 1.7l44.2-28.1c2.5-1.5 3.2-4.7 1.6-7.2l-16.3-25.8c-1-1.5-2.6-2.4-4.3-2.5-1 0-2 0.3-2.9 0.9zm52.5 92.8l-44.2 28.1c-2.5 1.5-3.2 4.7-1.7 7.2l16.4 25.8c1.5 2.5 4.8 3.2 7.2 1.6l44.3-28c2.4-1.5 3.2-4.8 1.6-7.2l-16.3-25.8c-1-1.6-2.6-2.4-4.3-2.5-1 0-2 0.3-3 0.8zm51.3 91.5l-44.2 28c-2.5 1.6-3.2 4.8-1.7 7.2l16.4 25.9c1.5 2.4 4.8 3.1 7.2 1.6l44.3-28.1c2.4-1.5 3.2-4.7 1.6-7.2l-16.3-25.8c-1-1.5-2.6-2.4-4.3-2.4-1-0.1-2 0.2-3 0.8z"/>
	</g>
</svg>