<?xml version="1.0" encoding="UTF-8" standalone="no"?>
<svg xmlns:xlink="http://www.w3.org/1999/xlink" height="499.95px" width="500.0px" xmlns="http://www.w3.org/2000/svg">
  <g transform="matrix(1.0, 0.0, 0.0, 1.0, 0.0, 0.0)">
    <path d="M500.0 249.95 Q500.0 300.8 480.35 347.25 461.35 392.15 426.75 426.75 392.15 461.35 347.3 480.3 300.85 499.95 250.0 499.95 199.1 499.95 152.7 480.3 107.8 461.35 73.2 426.75 38.6 392.15 19.65 347.25 0.0 300.8 0.0 249.95 0.0 199.1 19.65 152.65 38.6 107.8 73.2 73.2 107.8 38.6 152.7 19.65 199.15 0.0 250.0 0.0 300.85 0.0 347.3 19.65 392.15 38.6 426.75 73.2 461.35 107.8 480.35 152.65 500.0 199.1 500.0 249.95 M340.6 160.15 L294.25 160.15 252.7 326.2 Q252.35 327.15 251.5 327.15 L245.7 327.15 244.9 326.9 Q244.5 326.6 244.5 326.2 L202.75 160.15 156.25 160.15 212.15 350.9 Q213.35 356.05 217.55 359.65 221.75 363.25 227.95 363.25 L269.1 363.25 Q275.1 363.25 279.3 359.65 283.65 355.9 285.05 350.9 L340.6 160.15" fill="#406aff" fill-rule="evenodd" stroke="none"/>
    <path d="M340.6 160.15 L285.05 350.9 Q283.65 355.9 279.3 359.65 275.1 363.25 269.1 363.25 L227.95 363.25 Q221.75 363.25 217.55 359.65 213.35 356.05 212.15 350.9 L156.25 160.15 202.75 160.15 244.5 326.2 Q244.5 326.6 244.9 326.9 L245.7 327.15 251.5 327.15 Q252.35 327.15 252.7 326.2 L294.25 160.15 340.6 160.15" fill="#ffffff" fill-rule="evenodd" stroke="none"/>
  </g>
</svg>
