<svg version="1.2" xmlns="http://www.w3.org/2000/svg" width="674" height="674"><defs><linearGradient id="a" x1="46.1" y1="4.2" x2="46.1" y2="331.3" gradientUnits="userSpaceOnUse"><stop offset="0" stop-color="#333"/><stop offset="1" stop-color="#282828"/></linearGradient><linearGradient id="c" x1="673.3" y1="1" x2="673.3" y2="848.9" gradientUnits="userSpaceOnUse"><stop offset="0" stop-color="#f1f1f1"/><stop offset="1" stop-color="#d5d5d5"/></linearGradient><linearGradient id="d" x1="0" y1="1" x2="0" y2="848.9" gradientUnits="userSpaceOnUse"><stop offset="0" stop-color="#0fb1fd"/><stop offset="1" stop-color="#1790ff"/></linearGradient><clipPath clipPathUnits="userSpaceOnUse" id="b"><path d="M648.71 1c13.63 0 24.59 10.97 24.59 24.59v623.32c0 13.62-10.96 24.59-24.59 24.59H507.99L373.28 430.81l-46.65-134.7L513.69 1zm-83.33 33.45-16.35 25.82a5.211 5.211 0 0 0 1.62 7.22l44.27 28.03a5.22 5.22 0 0 0 7.22-1.62l16.35-25.82a5.22 5.22 0 0 0-1.62-7.22L572.6 32.83c-.92-.59-1.95-.85-2.96-.82-1.67.05-3.29.91-4.26 2.44zm-52.57 92.87-16.35 25.83a5.22 5.22 0 0 0 1.62 7.22l44.28 28.03a5.21 5.21 0 0 0 7.21-1.62l16.36-25.83c1.55-2.45.82-5.67-1.63-7.22l-44.27-28.03a5.21 5.21 0 0 0-2.95-.81c-1.68.05-3.3.9-4.27 2.43zm-53.72 89.16-16.35 25.83a5.211 5.211 0 0 0 1.62 7.22l44.27 28.03a5.22 5.22 0 0 0 7.22-1.62l16.35-25.83a5.22 5.22 0 0 0-1.62-7.22l-44.27-28.03c-.92-.58-1.95-.84-2.96-.81-1.67.04-3.29.9-4.26 2.43zm-52.57 92.88-16.35 25.82a5.22 5.22 0 0 0 1.62 7.22l44.28 28.03a5.21 5.21 0 0 0 7.21-1.62l16.36-25.83c1.55-2.44.82-5.66-1.63-7.21l-44.27-28.04a5.23 5.23 0 0 0-7.22 1.63z"/></clipPath></defs><path d="M32.6 1h609.1v667.4H32.6z" style="fill:url(#a)"/><path d="M143.1 1c-13.6 0-31.6 12.3-24.6 23.5l396.7 623.2c7.8 12.2 12.3 25.8 26.6 25.8h74.3L170.8 1z" style="opacity:.5;fill:#000"/><g clip-path="url(#b)"><path fill-rule="evenodd" d="M648.7 1c13.6 0 24.6 11 24.6 24.6v623.3c0 13.6-11 24.6-24.6 24.6H508L373.3 430.8l-46.7-134.7L513.7 1zm-83.3 33.4L549 60.3c-1.5 2.4-.8 5.6 1.6 7.2l44.3 28c2.4 1.6 5.7.9 7.2-1.6l16.4-25.8c1.5-2.5.8-5.7-1.7-7.2l-44.2-28.1c-.9-.6-2-.8-3-.8-1.7.1-3.3.9-4.2 2.4zm-52.6 92.9-16.4 25.8c-1.5 2.5-.8 5.7 1.7 7.3l44.2 28c2.5 1.5 5.7.8 7.3-1.6l16.3-25.8c1.6-2.5.8-5.7-1.6-7.3l-44.3-28c-.9-.6-1.9-.8-2.9-.8-1.7 0-3.3.9-4.3 2.4zm-53.7 89.2-16.4 25.8c-1.5 2.5-.8 5.7 1.6 7.2l44.3 28.1c2.5 1.5 5.7.8 7.2-1.7l16.4-25.8c1.5-2.4.8-5.7-1.6-7.2l-44.3-28c-.9-.6-2-.9-3-.9-1.6.1-3.3 1-4.2 2.5zm-52.6 92.9-16.4 25.8c-1.5 2.4-.8 5.7 1.7 7.2l44.2 28c2.5 1.6 5.7.9 7.3-1.6l16.3-25.8c1.6-2.5.8-5.7-1.6-7.2l-44.3-28.1c-.9-.5-1.9-.8-2.9-.8-1.7.1-3.3.9-4.3 2.5z" style="fill:url(#c)"/><path d="M125 1c-14.2 0-32.5 13.3-24.8 25.3L500 649.6c7.2 11.3 11.3 23.9 25 23.9h71.5L153.8 1z" style="opacity:.8;fill:#a6a7aa"/></g><path fill-rule="evenodd" d="M159.6 1 553 673.5H24.6C11 673.5 0 662.5 0 648.9V25.6C0 12 11 1 24.6 1zM100 32.4 55.7 60.5c-2.4 1.5-3.1 4.7-1.6 7.2l16.4 25.8c1.5 2.4 4.7 3.2 7.2 1.6l44.2-28c2.5-1.6 3.2-4.8 1.7-7.2L107.2 34c-1-1.5-2.6-2.3-4.3-2.4-1 0-2 .2-2.9.8zm52.6 92.9-44.3 28c-2.5 1.6-3.2 4.8-1.6 7.2l16.3 25.9c1.6 2.4 4.8 3.1 7.2 1.6l44.3-28c2.5-1.6 3.2-4.8 1.6-7.3l-16.3-25.8c-1-1.5-2.6-2.4-4.3-2.4-1 0-2 .2-2.9.8zm51.3 91.4-44.3 28.1c-2.5 1.5-3.2 4.7-1.6 7.2l16.3 25.8c1.6 2.5 4.8 3.2 7.2 1.6l44.3-28c2.5-1.5 3.2-4.8 1.6-7.2l-16.3-25.8c-1-1.6-2.6-2.4-4.3-2.5-1 0-2 .3-2.9.8zm52.5 92.9-44.3 28c-2.4 1.6-3.1 4.8-1.6 7.3l16.4 25.8c1.5 2.4 4.7 3.2 7.2 1.6l44.3-28c2.4-1.6 3.1-4.8 1.6-7.2l-16.4-25.9c-.9-1.5-2.5-2.4-4.2-2.4-1 0-2.1.2-3 .8zm54.2 89.2-44.3 28c-2.4 1.5-3.2 4.8-1.6 7.2l16.3 25.8c1.6 2.5 4.8 3.2 7.3 1.7l44.2-28.1c2.5-1.5 3.2-4.7 1.6-7.2l-16.3-25.8c-1-1.5-2.6-2.4-4.3-2.5-1 0-2 .3-2.9.9zm52.5 92.8-44.2 28.1c-2.5 1.5-3.2 4.7-1.7 7.2l16.4 25.8c1.5 2.5 4.8 3.2 7.2 1.6l44.3-28c2.4-1.5 3.2-4.8 1.6-7.2l-16.3-25.8c-1-1.6-2.6-2.4-4.3-2.5-1 0-2 .3-3 .8zm51.3 91.5-44.2 28c-2.5 1.6-3.2 4.8-1.7 7.2l16.4 25.9c1.5 2.4 4.8 3.1 7.2 1.6l44.3-28.1c2.4-1.5 3.2-4.7 1.6-7.2l-16.3-25.8c-1-1.5-2.6-2.4-4.3-2.4-1-.1-2 .2-3 .8z" style="fill:url(#d)"/></svg>