<svg viewBox="0 0 24 24" fill="none" xmlns="http://www.w3.org/2000/svg">
<path d="M0.141766 3.81207C0.107118 3.81207 0.0724376 3.82573 0.039175 3.86045C-0.0270923 3.92958 0.0041397 4.02953 0.0351461 4.11835C0.173644 4.5156 0.316911 4.91108 0.445771 5.31205C0.809694 6.44491 1.36932 7.40496 2.34616 8.03845C3.53703 8.81071 4.84859 9.17833 6.19195 9.43096C7.21371 9.62311 8.24566 9.75013 9.27013 9.92654C10.02 10.0557 10.5617 10.6355 10.5261 11.2274C10.4891 11.8437 9.90653 12.2586 9.09476 12.2464C9.06075 12.2459 9.02649 12.2459 8.99278 12.2415C8.33426 12.1563 7.67388 12.0849 7.01771 11.9818C5.77472 11.7866 4.55902 11.4475 3.24592 11.0568C3.54326 11.5634 3.80907 11.9652 4.02611 12.3962C4.5694 13.4748 5.44409 14.0029 6.50807 14.2398C7.57525 14.4774 8.64839 14.6669 9.73561 14.7603C10.1233 14.7936 10.515 14.8321 10.8583 15.0768C11.1816 15.3073 11.3821 15.6225 11.3609 16.043C11.3397 16.4624 11.1127 16.7576 10.7685 16.9485C10.4194 17.1422 10.0452 17.1349 9.67144 17.1194C8.74221 17.0808 7.81666 16.9874 6.8281 16.8338C7.42602 17.9477 7.97785 18.9792 9.29362 19.0229C9.77609 19.0389 10.2556 19.1417 10.7379 19.1869C11.4187 19.2508 11.9822 19.7641 12.004 20.36C12.0261 20.9625 11.5245 21.4359 10.7797 21.4962C10.4649 21.5217 10.1479 21.5142 9.77222 21.5232C10.2249 22.3082 10.6599 23.0309 11.062 23.7748C11.2347 24.0943 11.3314 24.0485 11.5196 23.7959C12.307 22.7389 13.1314 21.7158 13.8969 20.6378C14.852 19.2931 15.8792 18.0086 16.8218 16.6541C17.6584 15.4519 18.4815 14.2363 19.3067 13.0248C20.9807 10.5672 22.5447 8.04143 23.8511 5.33097C23.9207 5.18647 24.0738 5.038 23.958 4.83574C23.6388 5.05408 23.3367 5.29523 23.0077 5.47962C21.6761 6.22594 20.2307 6.55771 18.766 6.79223C15.4633 7.32106 12.1465 7.34198 8.84574 6.86086C5.85188 6.42447 2.82621 6.00567 0.31085 3.89478C0.259345 3.85157 0.200621 3.81207 0.141766 3.81207C0.141799 3.81207 0.141734 3.81207 0.141766 3.81207Z" fill="currentColor"/>
<path d="M4.53972 0.345249C3.4963 0.514082 2.45765 0.721358 1.53342 1.31503C0.368233 2.06346 0.341544 3.08253 1.44695 3.92164C2.10478 4.42101 2.85419 4.707 3.60612 4.96796C5.69089 5.69139 7.84529 6.01592 10.0164 6.22313C10.8295 6.30072 11.4264 5.88761 11.4618 5.26374C11.4991 4.60645 10.9487 4.09715 10.1223 4.06014C8.99962 4.0099 7.87884 3.93653 6.76381 3.78651C6.12389 3.70046 5.47749 3.62877 4.87963 3.3346C4.67265 3.23276 4.48516 3.09078 4.50791 2.79883C4.52802 2.54092 4.70639 2.42415 4.90104 2.33726C5.2999 2.15927 5.72474 2.12539 6.14729 2.08663C8.00045 1.91664 9.85365 2.06044 11.7069 2.08758C12.0637 2.09281 12.4223 2.08786 12.7774 2.05479C13.1855 2.01677 13.4919 1.79225 13.5892 1.33936C13.69 0.86976 13.4624 0.552211 13.1041 0.343003C12.9429 0.248915 12.7565 0.19892 12.5766 0.151419C12.0273 0.00638921 11.4692 0.00677508 10.9112 0.00716126C10.721 0.00716126 10.5308 0.00751313 10.3411 0.00182567C10.1603 0.000667116 9.97993 0 9.79927 0C8.04022 3.51078e-05 6.28411 0.0630179 4.53972 0.345249Z" fill="currentColor"/>
<path d="M15.9884 4.35476C15.2076 4.43231 14.4262 4.43312 13.6438 4.41686C13.0981 4.40552 12.8071 4.68189 12.7679 5.24688C12.7304 5.78845 13.0191 6.16702 13.5322 6.22358C13.8025 6.25338 14.0758 6.25198 14.2501 6.26016C14.9779 6.31542 15.6083 6.29492 16.2277 6.16667C16.7152 6.0658 16.9748 5.60923 16.8907 5.09328C16.8103 4.59998 16.5601 4.34805 16.1182 4.34805C16.0767 4.34805 16.0334 4.3503 15.9884 4.35476Z" fill="currentColor"/>
</svg>