<svg version="1.1" viewBox="0 0 24 24" xmlns="http://www.w3.org/2000/svg"><defs><style>.cls-1, .cls-4 {
        fill: red;
      }

      .cls-1, .cls-2, .cls-3, .cls-4 {
        fill-rule: evenodd;
      }

      .cls-2 {
        fill: #666;
      }

      .cls-3 {
        fill: #fff;
      }

      .cls-3, .cls-4 {
        stroke: #282828;
        stroke-linejoin: round;
        stroke-width: 1px;
      }</style></defs><g transform="matrix(.079688 0 0 .079688 -17.735 6.9275)"><path class="cls-3" d="m223.06 40.6 36.161 20.584-36.161 21.255 7.956 11.961 43.337-26.926v-12.574l-43.5-26.926zm97.968 76.216v-13.8h-55.632v13.8z"/><path class="cls-4" d="m344.32 103.5a12.975 12.975 0 0 1-5.424-3.824 17.885 17.885 0 0 1-3.269-5.911 31.164 31.164 0 0 1-1.46-6.815 40.017 40.017 0 0 1-0.07-7.093 64.082 64.082 0 0 1 0.974-7.232l2.921-18.081a47.854 47.854 0 0 1 2.712-9.6 26.529 26.529 0 0 1 5.424-8.484 23.518 23.518 0 0 1 8.345-5.7 25.528 25.528 0 0 1 9.666-1.947 20.709 20.709 0 0 1 5.633 0.765 11.788 11.788 0 0 1 4.728 2.573 14.385 14.385 0 0 1 3.269 4.312 21.361 21.361 0 0 1 1.808 5.146l6.676-40.199h19.471l-16.824 102.22h-19.61l1.53-9.458a20.581 20.581 0 0 1-3.755 4.52 24.418 24.418 0 0 1-4.8 3.408 20.667 20.667 0 0 1-5.424 2.016 26.173 26.173 0 0 1-5.633 0.626 19.058 19.058 0 0 1-6.888-1.247zm21.836-15.507a9.49 9.49 0 0 0 3.616-2.086 10.662 10.662 0 0 0 2.5-3.407 13.948 13.948 0 0 0 1.182-3.894l3.06-18.08q0.277-1.669 0.417-3.407a28.276 28.276 0 0 0 0.069-3.419 15.584 15.584 0 0 0-0.487-3.268 9.346 9.346 0 0 0-1.252-2.851 5.5 5.5 0 0 0-2.364-1.947 7.659 7.659 0 0 0-3.2-0.7 12.622 12.622 0 0 0-4.659 0.9 11.3 11.3 0 0 0-4.033 2.712 12.64 12.64 0 0 0-2.643 4.033 17.554 17.554 0 0 0-1.182 4.59l-3.06 18.081a23.192 23.192 0 0 0-0.348 4.729 11.38 11.38 0 0 0 0.974 4.381 6.567 6.567 0 0 0 2.921 3.129 8.9 8.9 0 0 0 4.381 1.113 13.776 13.776 0 0 0 4.108-0.614zm33.588-0.487h16.689l11.544-69.958h-12.517v-16.138h34.77l-14.325 86.09h12.517v16.134h-48.678v-16.134zm68.566-57.584h19.611l-1.53 9.319a31.287 31.287 0 0 1 3.825-4.451 21.413 21.413 0 0 1 4.728-3.477 19.049 19.049 0 0 1 5.425-1.947 29.445 29.445 0 0 1 5.631-0.557 19.093 19.093 0 0 1 6.885 1.252 13.041 13.041 0 0 1 5.424 3.825 18.154 18.154 0 0 1 3.268 5.841 30.317 30.317 0 0 1 1.461 6.746 41.152 41.152 0 0 1 0.069 7.163q-0.28 3.687-0.834 7.3l-3.06 18.081a48.3 48.3 0 0 1-2.712 9.457 27.978 27.978 0 0 1-5.355 8.553 22.306 22.306 0 0 1-8.346 5.773 26.069 26.069 0 0 1-9.735 1.947 20.92 20.92 0 0 1-5.563-0.765 11.135 11.135 0 0 1-4.729-2.573 14.869 14.869 0 0 1-3.2-4.311 26.622 26.622 0 0 1-1.947-5.146l-6.676 40.194h-19.468zm23.853 57.788a11.256 11.256 0 0 0 4.037-2.71 12.482 12.482 0 0 0 2.643-4.1 24.835 24.835 0 0 0 1.321-4.52l2.921-18.081a23.24 23.24 0 0 0 0.347-4.729 11.453 11.453 0 0 0-0.973-4.381 6.61 6.61 0 0 0-2.921-3.129 8.932 8.932 0 0 0-4.381-1.113 13.761 13.761 0 0 0-4.1 0.626 9.46 9.46 0 0 0-3.616 2.086 9.791 9.791 0 0 0-2.441 3.403 21.249 21.249 0 0 0-1.252 3.894l-2.92 18.081q-0.28 1.669-0.487 3.407a16.193 16.193 0 0 0-0.07 3.338 25.184 25.184 0 0 0 0.487 3.2 8.979 8.979 0 0 0 1.182 2.918 5.3 5.3 0 0 0 2.365 2.017 7.619 7.619 0 0 0 3.2 0.7 12.589 12.589 0 0 0 4.658-0.907z"/></g></svg>
